<?xml version="1.0" encoding="UTF-8"?>
<svg width="25px" height="32px" viewBox="0 0 25 32" version="1.1" xmlns="http://www.w3.org/2000/svg" xmlns:xlink="http://www.w3.org/1999/xlink">
    <!-- Generator: Sketch 51.1 (57501) - http://www.bohemiancoding.com/sketch -->
    <title>1</title>
    <desc>Created with Sketch.</desc>
    <defs></defs>
    <g id="Page-1" stroke="none" stroke-width="1" fill="none" fill-rule="evenodd">
        <g id="icons" transform="translate(-843.000000, -279.000000)">
            <g id="table" transform="translate(843.000000, 279.000000)">
                <g id="1">
                    <g id="gauge">
                        <path d="M13.2331055,0 L13.2331055,2.93240741 C15.3240723,3.09108187 17.229248,3.92300195 18.7317383,5.21052632 L20.8125488,3.1337232 C18.7729492,1.32246589 16.1358887,0.167446394 13.2331055,0 Z" id="Shape" fill="#70819D" fill-rule="nonzero"></path>
                        <path d="M16.6814941,17.6726608 L17.7181641,16.6379142 L18.7286621,17.6464425 C19.0997559,17.2040448 19.4193848,16.7284113 19.6845215,16.2266569 L18.3599609,15.6790936 L18.9209961,14.327193 L20.2468262,14.8752924 C20.4161133,14.3328947 20.5279297,13.770809 20.5793945,13.1962476 L19.1464355,13.1962476 L19.1464355,11.7329922 L20.5791016,11.7329922 C20.5269043,11.1539961 20.413916,10.5922027 20.2456055,10.0544834 L18.9210449,10.6020468 L18.3600098,9.2501462 L19.682373,8.70346004 C19.4144043,8.1958577 19.0941895,7.71983431 18.7286133,7.282846 L17.7274902,8.28211501 L16.6907715,7.24741715 L17.6918945,6.24824561 C17.2540039,5.88333333 16.7771484,5.56379142 16.268457,5.29634503 L15.7207031,6.6161306 L14.3661621,6.05618908 L14.9147949,4.73421053 C14.3760254,4.56622807 13.8131348,4.45346004 13.2330078,4.40136452 L13.2330078,5.83123782 L11.7668945,5.83123782 L11.7668945,4.40131579 C11.1867676,4.45341131 10.6238281,4.56617934 10.0851074,4.73416179 L10.6337402,6.05614035 L9.27919922,6.61608187 L8.73144531,5.2962963 C8.22285156,5.56374269 7.74589844,5.88333333 7.30805664,6.24819688 L8.31020508,7.24839181 L7.27348633,8.28308967 L6.27133789,7.28289474 C5.90571289,7.71993177 5.58554688,8.1958577 5.31757813,8.7035575 L6.63994141,9.25024366 L6.07890625,10.6021442 L4.7543457,10.0545809 C4.58603516,10.5923002 4.47304688,11.1540936 4.42084961,11.7330897 L5.85351563,11.7330897 L5.85351562,13 L4.42084961,13 C4.47231445,13.5745127 4.58388672,14.3329435 4.75317383,14.8753411 L6.07900391,14.3272417 L6.64003906,15.6791423 L5.31552734,16.2267057 C5.58066406,16.72846 5.90039063,17.2040936 6.27138672,17.6464912 L7.28188477,16.637963 L8.31860352,17.6726608 L4.18754883,21.7957115 C6.39765625,23.7583333 9.3090332,24.9513158 12.5000488,24.9513158 C15.6910645,24.9513158 18.6024902,23.7583821 20.8125488,21.7957115 L16.6814941,17.6726608 Z" id="Shape" fill="#70819D" fill-rule="nonzero"></path>
                        <rect id="Rectangle-3" fill="#FFFFFF" fill-rule="nonzero" x="8" y="10" width="9" height="4"></rect>
                        <text id="42" font-family="MyriadPro-Bold, Myriad Pro" font-size="4" font-weight="bold" fill="#70819D">
                            <tspan x="10.3" y="13.4">42</tspan>
                        </text>
                        <path d="M2.94912109,13.1962963 L0.0109863281,13.1962963 C0.178759766,16.0934698 1.33608398,18.7253411 3.15078125,20.7609649 L5.23085937,18.6849415 C3.8956543,17.1363548 3.1027832,15.2292398 2.94912109,13.1962963 Z" id="Shape" fill="#70819D" fill-rule="nonzero"></path>
                        <path d="M3.15083008,4.16837232 C1.33608398,6.20404483 0.178759766,8.83591618 0.0109863281,11.7330409 L2.94912109,11.7330409 C3.1081543,9.6461501 3.94169922,7.74468811 5.23168945,6.24512671 L3.15083008,4.16837232 Z" id="Shape" fill="#70819D" fill-rule="nonzero"></path>
                        <path d="M21.8492676,4.16837232 L19.768457,6.24512671 C21.0584473,7.74468811 21.8919922,9.6461501 22.0509766,11.7330409 L24.9891113,11.7330409 C24.8212891,8.83586745 23.6640625,6.20404483 21.8492676,4.16837232 Z" id="Shape" fill="#70819D" fill-rule="nonzero"></path>
                        <path d="M4.18754883,3.13367446 L6.26835937,5.21042885 C7.77080078,3.92295322 9.67602539,3.09103314 11.7669922,2.93235867 L11.7669922,0 C8.86416016,0.167446394 6.22709961,1.32251462 4.18754883,3.13367446 Z" id="Shape" fill="#70819D" fill-rule="nonzero"></path>
                        <path d="M22.0509766,13.1962963 C21.8972656,15.2292398 21.1044434,17.1364035 19.7691406,18.6849415 L21.8492187,20.7609649 C23.6640137,18.7252924 24.8212402,16.0934211 24.9890137,13.1962963 L22.0509766,13.1962963 Z" id="Shape" fill="#70819D" fill-rule="nonzero"></path>
                    </g>
                    <g id="tick" transform="translate(6.500000, 20.000000)" fill-rule="nonzero">
                        <circle id="Oval-2" fill="#FFFFFF" cx="6" cy="6" r="6"></circle>
                        <path d="M6,1 C3.2430165,1 1,3.24295262 1,5.99997391 C1,8.75699521 3.2430165,11 6,11 C8.7569835,11 11,8.75699521 11,5.99997391 C11,3.24295262 8.75703568,1 6,1 Z M8.87108825,5.15543625 L5.72984254,8.29666557 C5.59627686,8.43023056 5.41872841,8.50374347 5.22985819,8.50374347 C5.04098797,8.50374347 4.86343953,8.43023056 4.72987384,8.29666557 L3.12891175,6.69571183 C2.99534607,6.56214685 2.9217806,6.38459933 2.9217806,6.19573009 C2.9217806,6.00680868 2.99534607,5.82926117 3.12891175,5.69569618 C3.26242526,5.5621312 3.4399737,5.48856611 3.6288961,5.48856611 C3.81776632,5.48856611 3.99536694,5.5621312 4.12888045,5.69574836 L5.22980602,6.79661601 L7.8710152,4.1554206 C8.00458089,4.02185561 8.18212933,3.9483427 8.37099955,3.9483427 C8.55986977,3.9483427 8.73741822,4.02185561 8.8709839,4.1554206 C9.14677616,4.43121142 9.14677616,4.87974977 8.87108825,5.15543625 Z" id="Shape" fill="#70819D"></path>
                    </g>
                </g>
            </g>
        </g>
    </g>
</svg>