<?xml version="1.0" encoding="UTF-8"?>
<svg width="29px" height="23px" viewBox="0 0 29 23" version="1.1" xmlns="http://www.w3.org/2000/svg" xmlns:xlink="http://www.w3.org/1999/xlink">
    <!-- Generator: Sketch 51.1 (57501) - http://www.bohemiancoding.com/sketch -->
    <title>2</title>
    <desc>Created with Sketch.</desc>
    <defs></defs>
    <g id="Page-1" stroke="none" stroke-width="1" fill="none" fill-rule="evenodd">
        <g id="icons" transform="translate(-896.000000, -280.000000)" fill="#70819D" fill-rule="nonzero">
            <g id="table" transform="translate(843.000000, 279.000000)">
                <g id="2" transform="translate(53.000000, 1.000000)">
                    <g id="Group">
                        <path d="M5.7003125,0.545783784 C2.552,0.545783784 0,3.17151351 0,6.41078378 L0,16.1099459 C0,19.2640541 2.4849375,21.8214054 5.55047917,21.8214054 L5.55047917,19.8005135 L5.2435625,19.8005135 C3.432875,19.8005135 1.96535417,18.2905946 1.96535417,16.4282162 L1.96535417,5.91659459 C1.96535417,4.05359459 3.432875,2.54367568 5.2435625,2.54367568 L23.2199375,2.54367568 C25.0300208,2.54367568 26.4981458,4.05359459 26.4981458,5.91659459 L26.4981458,16.4282162 C26.4981458,18.2905946 25.0300208,19.8005135 23.2199375,19.8005135 L22.9613542,19.8005135 L22.9613542,21.8214054 C25.9858125,21.8214054 28.4369167,19.2988649 28.4369167,16.1882703 L28.4369167,6.25662162 C28.4369167,3.10251351 25.9519792,0.545783784 22.8864375,0.545783784 L5.7003125,0.545783784 Z" id="Shape"></path>
                        <path d="M6.79083333,18.5355135 L6.79083333,3.55256757 L5.62841667,3.55256757 C4.29683333,3.55256757 3.2171875,4.66340541 3.2171875,6.03408108 L3.2171875,16.0552432 C3.2171875,17.4259189 4.29683333,18.5367568 5.62841667,18.5367568 L6.79083333,18.5367568 L6.79083333,18.5355135 Z" id="Shape"></path>
                        <rect id="Rectangle-path" x="17.4712917" y="3.55256757" width="3.10904167" height="14.9829459"></rect>
                        <rect id="Rectangle-path" x="11.2767708" y="3.55256757" width="2.287375" height="14.9829459"></rect>
                        <rect id="Rectangle-path" x="14.8667292" y="3.55256757" width="1.301375" height="14.9829459"></rect>
                        <rect id="Rectangle-path" x="8.08616667" y="3.55256757" width="1.93997917" height="14.9829459"></rect>
                        <path d="M7.83725,19.5823243 C7.12916667,19.5823243 6.7914375,20.2288108 6.7914375,21.0443784 C6.796875,21.8419189 7.108625,22.4971081 7.81610417,22.4971081 C8.51572917,22.4971081 8.85708333,21.8984865 8.85708333,21.026973 C8.85647917,20.2542973 8.57010417,19.5823243 7.83725,19.5823243 Z M7.83241667,21.9985676 C7.58470833,21.9985676 7.43245833,21.6908649 7.4366875,21.0443784 C7.43245833,20.3891892 7.5925625,20.0814865 7.8281875,20.0814865 C8.08616667,20.0814865 8.21666667,20.4109459 8.21666667,21.0356757 C8.2160625,21.6778108 8.08133333,21.9985676 7.83241667,21.9985676 Z" id="Shape"></path>
                        <path d="M10.5384792,19.5823243 C9.82979167,19.5823243 9.493875,20.2288108 9.493875,21.0443784 C9.4975,21.8419189 9.80925,22.4971081 10.5173333,22.4971081 C11.2175625,22.4971081 11.5589167,21.8984865 11.5589167,21.026973 C11.5589167,20.2542973 11.2719375,19.5823243 10.5384792,19.5823243 Z M10.5348542,21.9985676 C10.2859375,21.9985676 10.1342917,21.6908649 10.1385208,21.0443784 C10.1342917,20.3891892 10.2943958,20.0814865 10.5300208,20.0814865 C10.7867917,20.0814865 10.9185,20.4109459 10.9185,21.0356757 C10.9185,21.6778108 10.7831667,21.9985676 10.5348542,21.9985676 Z" id="Shape"></path>
                        <polygon id="Shape" points="12.1340833 19.9733243 12.2398125 20.4755946 12.7624167 20.2281892 12.770875 20.2281892 12.770875 22.4523514 13.3841042 22.4523514 13.3841042 19.6221081 12.8596875 19.6221081"></polygon>
                        <path d="M15.2014375,21.8984865 L15.4563958,21.6815405 C15.8527292,21.3172703 16.1868333,20.9405676 16.1868333,20.4675135 C16.1868333,19.9552973 15.8466875,19.5823243 15.2262083,19.5823243 C14.8564583,19.5823243 14.5350417,19.7122432 14.329625,19.8732432 L14.5102708,20.3462973 C14.6540625,20.2331622 14.8594792,20.1119459 15.0969167,20.1119459 C15.4128958,20.1119459 15.547625,20.2940811 15.547625,20.5247027 C15.5391667,20.8541622 15.2473542,21.1711892 14.6492292,21.7213243 L14.293375,22.0507838 L14.293375,22.4523514 L16.2333542,22.4523514 L16.2333542,21.8966216 L15.2020417,21.8966216 L15.2014375,21.8984865 Z" id="Shape"></path>
                        <path d="M17.9878542,19.5823243 C17.3855,19.5823243 16.9553333,20.0466757 16.9553333,20.5974324 C16.9553333,21.1438378 17.3468333,21.4782703 17.8108333,21.4782703 C18.05975,21.4782703 18.2355625,21.4042973 18.3582083,21.2743784 L18.3715,21.2781081 C18.3195417,21.4907027 18.2017292,21.6728378 18.0253125,21.799027 C17.8778958,21.9034595 17.6833542,21.9594054 17.4888125,21.9718378 C17.3625417,21.9811622 17.287625,21.9811622 17.2139167,21.9718378 L17.2139167,22.4884054 C17.287625,22.4927568 17.3921458,22.4971081 17.5015,22.4884054 C17.9274375,22.471 18.2851042,22.3367297 18.5461042,22.0942973 C18.8451667,21.8120811 19.0252083,21.3819189 19.0252083,20.796973 C19.0258125,20.1374324 18.6923125,19.5823243 17.9878542,19.5823243 Z M18.3376667,20.8230811 C18.2796667,20.9225405 18.1570208,21.0101892 17.9848333,21.0101892 C17.7220208,21.0101892 17.5963542,20.8025676 17.5963542,20.5595135 C17.5915208,20.2636216 17.7522292,20.0653243 17.9709375,20.0653243 C18.2615417,20.0653243 18.3721042,20.359973 18.3721042,20.658973 C18.3727083,20.7416486 18.3600208,20.7839189 18.3376667,20.8230811 Z" id="Shape"></path>
                        <path d="M21.2781458,20.8013243 C21.0836042,20.6577297 20.818375,20.5974324 20.5579792,20.5974324 C20.4909167,20.5974324 20.4395625,20.5999189 20.3803542,20.6092432 L20.4395625,20.1784595 L21.5131667,20.1784595 L21.5131667,19.6214865 L19.991875,19.6214865 L19.8100208,21.1046757 C19.9242083,21.0878919 20.0299375,21.0804324 20.1815833,21.0804324 C20.7289583,21.0804324 20.9531042,21.2600811 20.9531042,21.551 C20.9531042,21.8493784 20.6691458,21.9799189 20.4045208,21.9799189 C20.1562083,21.9799189 19.9072917,21.9022162 19.78525,21.8412973 L19.6716667,22.3361081 C19.8227083,22.4181622 20.1012292,22.4964865 20.4347292,22.4964865 C21.1730208,22.4964865 21.6104375,22.0333784 21.6104375,21.5081081 C21.6110417,21.1786486 21.4847708,20.9442973 21.2781458,20.8013243 Z" id="Shape"></path>
                    </g>
                    <path d="M21.8575417,3.55256757 L21.8575417,18.5355135 L22.8332708,18.5355135 C24.1654583,18.5355135 25.2451042,17.4246757 25.2451042,16.054 L25.2451042,6.03345946 C25.2451042,4.66278378 24.1654583,3.55194595 22.8332708,3.55194595 L21.8575417,3.55256757 Z" id="Shape"></path>
                </g>
            </g>
        </g>
    </g>
</svg>