<?xml version="1.0" encoding="UTF-8"?>
<svg width="21px" height="22px" viewBox="0 0 21 22" version="1.1" xmlns="http://www.w3.org/2000/svg" xmlns:xlink="http://www.w3.org/1999/xlink">
    <!-- Generator: Sketch 51.1 (57501) - http://www.bohemiancoding.com/sketch -->
    <title>3</title>
    <desc>Created with Sketch.</desc>
    <defs></defs>
    <g id="Page-1" stroke="none" stroke-width="1" fill="none" fill-rule="evenodd">
        <g id="icons" transform="translate(-954.000000, -281.000000)" fill="#70819D" fill-rule="nonzero">
            <g id="table" transform="translate(843.000000, 279.000000)">
                <g id="3" transform="translate(111.000000, 2.000000)">
                    <path d="M16.204125,7.75311346 L20.9678152,7.75311346 L20.9678152,0.96916095 C20.9678152,0.433788918 20.5410245,0 20.0150543,0 L6.99425543,0 L6.99425543,7.75311346 L11.7579457,7.75311346 C12.2839158,7.75311346 12.7107065,8.18690237 12.7107065,8.72227441 C12.7107065,9.25764644 12.2839158,9.69143536 11.7579457,9.69143536 L6.99425543,9.69143536 L6.99425543,12.5988602 C6.99425543,13.1342322 6.56746467,13.5680211 6.04149457,13.5680211 C5.51552446,13.5680211 5.0887337,13.1342322 5.0887337,12.5988602 L5.0887337,0 L0.960179348,0 C0.434209239,0 0.00741847826,0.433788918 0.00741847826,0.96916095 L0.00741847826,20.9980422 C0.00741847826,21.5334142 0.434209239,21.9672032 0.960179348,21.9672032 L5.0887337,21.9672032 L5.0887337,17.1215145 C5.0887337,16.5861425 5.51552446,16.1523536 6.04149457,16.1523536 C6.56746467,16.1523536 6.99425543,16.5861425 6.99425543,17.1215145 L6.99425543,21.9672032 L20.0150543,21.9672032 C20.5410245,21.9672032 20.9678152,21.5334142 20.9678152,20.9980422 L20.9678152,9.69143536 L16.204125,9.69143536 C15.6781549,9.69143536 15.2513641,9.25764644 15.2513641,8.72227441 C15.2513641,8.18690237 15.6780978,7.75311346 16.204125,7.75311346 Z" id="Shape"></path>
                </g>
            </g>
        </g>
    </g>
</svg>