<?xml version="1.0" encoding="UTF-8"?>
<svg width="23px" height="24px" viewBox="0 0 23 24" version="1.1" xmlns="http://www.w3.org/2000/svg" xmlns:xlink="http://www.w3.org/1999/xlink">
    <!-- Generator: Sketch 51.1 (57501) - http://www.bohemiancoding.com/sketch -->
    <title>4</title>
    <desc>Created with Sketch.</desc>
    <defs></defs>
    <g id="Page-1" stroke="none" stroke-width="1" fill="none" fill-rule="evenodd">
        <g id="icons" transform="translate(-1007.000000, -280.000000)" fill="#70819D" fill-rule="nonzero">
            <g id="table" transform="translate(843.000000, 279.000000)">
                <g id="4" transform="translate(164.000000, 1.000000)">
                    <path d="M5.97530612,6.18122449 C6.50571429,6.18122449 6.93285714,5.7355102 6.93285714,5.18204082 L6.93285714,0.999183673 C6.93285714,0.445714286 6.50571429,-2.13162821e-14 5.97530612,-2.13162821e-14 C5.44489796,-2.13162821e-14 5.0177551,0.445714286 5.0177551,0.999183673 L5.0177551,5.18204082 C5.0177551,5.7355102 5.44959184,6.18122449 5.97530612,6.18122449 Z" id="Shape"></path>
                    <path d="M17.0246939,6.18122449 C17.555102,6.18122449 17.9822449,5.7355102 17.9822449,5.18204082 L17.9822449,0.999183673 C17.9822449,0.445714286 17.555102,-2.13162821e-14 17.0246939,-2.13162821e-14 C16.4942857,-2.13162821e-14 16.0671429,0.445714286 16.0671429,0.999183673 L16.0671429,5.18204082 C16.0671429,5.7355102 16.4942857,6.18122449 17.0246939,6.18122449 Z" id="Shape"></path>
                    <path d="M16.2220408,19.1461224 C15.6963265,19.6506122 14.9828571,19.9053061 14.0816327,19.9053061 C13.3493878,19.9053061 12.7344898,19.7926531 12.2369388,19.562449 L12.2369388,18.0734694 C12.7579592,18.4065306 13.3071429,18.5730612 13.8938776,18.5730612 C14.335102,18.5730612 14.682449,18.4653061 14.9312245,18.244898 C15.18,18.0244898 15.3067347,17.7257143 15.3067347,17.3534694 C15.3067347,16.5697959 14.7763265,16.1779592 13.7108163,16.1779592 C13.3634694,16.1779592 12.9457143,16.2122449 12.4528571,16.2759184 L12.4528571,11.8481633 L16.6632653,11.8481633 L16.6632653,13.2734694 L13.8844898,13.2734694 L13.8844898,14.8604082 C14.105102,14.8359184 14.3163265,14.8261224 14.5134694,14.8261224 C15.2926531,14.8261224 15.907551,15.0416327 16.3487755,15.4677551 C16.79,15.8938776 17.0106122,16.4718367 17.0106122,17.1918367 C17.0153061,17.9853061 16.752449,18.6416327 16.2220408,19.1461224 Z M10.8334694,19.7681633 L6.02693878,19.7681633 L6.02693878,18.3869388 L7.60408163,18.3869388 L7.60408163,13.4497959 L5.98938776,13.8171429 L5.98938776,12.4016327 L9.27510204,11.7110204 L9.27510204,18.3918367 L10.8381633,18.3918367 L10.8381633,19.7681633 L10.8334694,19.7681633 Z M22.042449,2.14530612 L19.8973469,2.14530612 L19.8973469,5.18204082 C19.8973469,6.83755102 18.6065306,8.17959184 17.02,8.17959184 C15.4334694,8.17959184 14.1426531,6.83265306 14.1426531,5.18204082 L14.1426531,2.14530612 L8.85265306,2.14530612 L8.85265306,5.18204082 C8.85265306,6.83755102 7.56183673,8.17959184 5.98,8.17959184 C4.39346939,8.17959184 3.10734694,6.83265306 3.10734694,5.18204082 L3.10734694,2.14530612 L0.95755102,2.14530612 C0.427142857,2.14530612 2.84217094e-14,2.59591837 2.84217094e-14,3.1444898 L2.84217094e-14,23.0008163 C2.84217094e-14,23.5542857 0.427142857,24 0.95755102,24 L22.042449,24 C22.5728571,24 23,23.5542857 23,23.0008163 L23,3.1444898 C23,2.59591837 22.5728571,2.14530612 22.042449,2.14530612 Z" id="Shape"></path>
                </g>
            </g>
        </g>
    </g>
</svg>