<?xml version="1.0" encoding="UTF-8"?>
<svg width="26px" height="26px" viewBox="0 0 26 26" version="1.1" xmlns="http://www.w3.org/2000/svg" xmlns:xlink="http://www.w3.org/1999/xlink">
    <!-- Generator: Sketch 51.1 (57501) - http://www.bohemiancoding.com/sketch -->
    <title>5</title>
    <desc>Created with Sketch.</desc>
    <defs></defs>
    <g id="Page-1" stroke="none" stroke-width="1" fill="none" fill-rule="evenodd">
        <g id="icons" transform="translate(-1059.000000, -279.000000)">
            <g id="table" transform="translate(843.000000, 279.000000)">
                <g id="5" transform="translate(216.000000, 0.000000)">
                    <path d="M19.518535,0 L6.48146502,0 C5.66458013,0 5,0.686620167 5,1.5305961 L5,8.4694039 C5,9.31337983 5.66458013,10 6.48146502,10 L19.518535,10 C20.3354199,10 21,9.31337983 21,8.4694039 L21,1.53064713 C21,0.686671191 20.3354199,0 19.518535,0 Z" id="Shape" fill="#70819D" fill-rule="nonzero"></path>
                    <text id="W-1.2.3" font-family="MyriadPro-BoldCond, Myriad Pro" font-size="5.63701601" font-style="condensed" font-weight="bold" fill="#FFFFFF">
                        <tspan x="6" y="6">W 1.2.3</tspan>
                    </text>
                    <path d="M13.8535,16.1465 C13.7605,16.05345 13.6315,16 13.5,16 C13.3685,16 13.2395,16.0535 13.1465,16.1465 C13.0535,16.2395 13,16.3685 13,16.5 C13,16.6315 13.0535,16.7605 13.1465,16.8535 C13.2395,16.9465 13.3685,17 13.5,17 C13.6315,17 13.7605,16.9465 13.8535,16.8535 C13.9465,16.7605 14,16.6315 14,16.5 C14,16.3685 13.94645,16.2395 13.8535,16.1465 Z" id="Shape" fill="#70819D" fill-rule="nonzero"></path>
                    <path d="M19.518535,16 L15.814823,16 C15.5420672,16 15.3209684,16.2284312 15.3209684,16.5101817 C15.3209684,16.7919322 15.5420672,17.0203634 15.814823,17.0203634 L19.518535,17.0203634 C19.7908464,17.0203634 20.0123402,17.2492538 20.0123402,17.5305961 L20.0123402,24.4694039 C20.0123402,24.7507462 19.790797,24.9796366 19.518535,24.9796366 L6.48146502,24.9796366 C6.20915359,24.9796366 5.98765981,24.7507462 5.98765981,24.4694039 L5.98765981,17.5305961 C5.98765981,17.2492538 6.20920298,17.0203634 6.48146502,17.0203634 L11.5679204,17.0203634 C11.8406763,17.0203634 12.0617257,16.7919322 12.0617257,16.5101817 C12.0617257,16.2284312 11.8406269,16 11.5679204,16 L6.48146502,16 C5.66458013,16 5,16.6866202 5,17.5305961 L5,24.4694039 C5,25.3133798 5.66458013,26 6.48146502,26 L19.518535,26 C20.3354199,26 21,25.3133798 21,24.4694039 L21,17.5305961 C21,16.6866202 20.3354199,16 19.518535,16 Z" id="Shape" fill="#70819D" fill-rule="nonzero"></path>
                    <path d="M14.5909197,19.0426642 L12.3743715,19.0426642 C11.9288701,19.0426642 11.5664313,19.4169556 11.5664313,19.8769717 L11.5664313,22.1657366 C11.5664313,22.6257526 11.9288701,23 12.3743715,23 L14.5909197,23 C15.036421,23 15.3988599,22.6257526 15.3988599,22.1657366 L15.3988599,19.8769717 C15.3989025,19.4169556 15.0364636,19.0426642 14.5909197,19.0426642 Z M14.3603233,21.3515504 L12.6049679,21.3515504 C12.4283535,21.3515504 12.2851689,21.2037447 12.2851689,21.0213321 C12.2851689,20.8389195 12.4283535,20.6911138 12.6049679,20.6911138 L14.3603233,20.6911138 C14.5369376,20.6911138 14.6801223,20.8389195 14.6801223,21.0213321 C14.6801223,21.2037447 14.5369376,21.3515504 14.3603233,21.3515504 Z M10.024531,19.0426642 L7.8079402,19.0426642 C7.36243887,19.0426642 7,19.4169556 7,19.8769717 L7,22.1657366 C7,22.6257526 7.36243887,23 7.8079402,23 L10.0244884,23 C10.4699897,23 10.8324286,22.6257526 10.8324286,22.1657366 L10.8324286,19.8769717 C10.8324712,19.4169556 10.4700324,19.0426642 10.024531,19.0426642 Z M9.80506365,21.3515504 L9.24716363,21.3515504 L9.24716363,21.9275831 C9.24716363,22.1099957 9.10397896,22.2578014 8.92736463,22.2578014 C8.7507503,22.2578014 8.60756562,22.1099957 8.60756562,21.9275831 L8.60756562,21.3515504 L8.04970824,21.3515504 C7.87309392,21.3515504 7.72990924,21.2037447 7.72990924,21.0213321 C7.72990924,20.8389195 7.87309392,20.6911138 8.04970824,20.6911138 L8.60756562,20.6911138 L8.60756562,20.1150811 C8.60756562,19.9326685 8.7507503,19.7848628 8.92736463,19.7848628 C9.10397896,19.7848628 9.24716363,19.9326685 9.24716363,20.1150811 L9.24716363,20.6911138 L9.80502101,20.6911138 C9.98163534,20.6911138 10.12482,20.8389195 10.12482,21.0213321 C10.12482,21.2037447 9.98167798,21.3515504 9.80506365,21.3515504 Z M19.1921024,19 L16.9755116,19 C16.5300103,19 16.1675714,19.3742474 16.1675714,19.8342634 L16.1675714,22.1230283 C16.1675714,22.5830444 16.5300103,22.9572918 16.9755116,22.9572918 L19.1920598,22.9572918 C19.6375611,22.9572918 20,22.5830444 20,22.1230283 L20,19.8342634 C20.0000426,19.3742474 19.6376038,19 19.1921024,19 Z M18.9416785,21.3859371 C19.0665707,21.5149424 19.0665707,21.7239926 18.9416785,21.8529538 C18.8792537,21.9174124 18.7973852,21.9496417 18.7155593,21.9496417 C18.6337334,21.9496417 18.5518648,21.9174124 18.4894401,21.8529538 L18.0949787,21.4456406 L17.7005173,21.8529538 C17.6380925,21.9174124 17.5562239,21.9496417 17.474398,21.9496417 C17.3925721,21.9496417 17.3107036,21.9174124 17.2482788,21.8529538 C17.1233867,21.7239485 17.1233867,21.5148983 17.2482788,21.3859371 L17.6427402,20.9786239 L17.2482788,20.5713106 C17.1233867,20.4423054 17.1233867,20.2332552 17.2482788,20.1042939 C17.373171,19.9753767 17.5756677,19.9753767 17.7005173,20.1042939 L18.0949787,20.5116072 L18.4894401,20.1042939 C18.6143322,19.9753767 18.816829,19.9753767 18.9416785,20.1042939 C19.0665707,20.2332992 19.0665707,20.4423494 18.9416785,20.5713106 L18.5472171,20.9786239 L18.9416785,21.3859371 Z" id="Shape" fill="#70819D" fill-rule="nonzero"></path>
                    <path d="M25.98909,13.0837377 C25.8940757,10.7913799 25.1782792,8.6057564 23.9041787,6.68316182 C24.1365261,6.72265704 24.3776291,6.61444116 24.4857768,6.40378296 C24.6161379,6.14995082 24.5041528,5.84425884 24.235648,5.72107259 L22.7764911,5.05128885 C22.6089999,4.97444433 22.4114587,4.98445865 22.2536419,5.07790852 C22.0958251,5.1713584 22,5.33495956 22,5.51097641 L22,7.07775636 C22,7.35994536 22.2419678,7.58869064 22.5404685,7.58869064 C22.7581152,7.58869064 22.9452254,7.46683281 23.0308356,7.29158236 C25.6027091,11.2357395 25.5751452,16.2587854 22.8399421,20.209227 C22.6765044,20.4453298 22.7464411,20.7619557 22.9961916,20.9165133 C23.0874767,20.9729716 23.1901657,21 23.2916657,21 C23.4679125,21 23.6407003,20.9186082 23.7443621,20.7688533 C25.3265297,18.4835465 26.1027506,15.8261263 25.98909,13.0837377 Z" id="Shape" fill="#70819D" fill-rule="nonzero"></path>
                    <path d="M3.98909003,13.0837377 C3.89407566,10.7913799 3.17827916,8.6057564 1.90417868,6.68316182 C2.13652609,6.72265704 2.3776291,6.61444116 2.48577685,6.40378296 C2.61613786,6.14995082 2.50415278,5.84425884 2.23564802,5.72107259 L0.776491118,5.05128885 C0.608999925,4.97444433 0.411458682,4.98445865 0.253641875,5.07790852 C0.0958250681,5.1713584 0,5.33495956 0,5.51097641 L0,7.07775636 C0,7.35994536 0.241967755,7.58869064 0.540468517,7.58869064 C0.758115189,7.58869064 0.945225389,7.46683281 1.0308356,7.29158236 C3.60270909,11.2357395 3.57514519,16.2587854 0.839942122,20.209227 C0.676504443,20.4453298 0.746441069,20.7619557 0.99619157,20.9165133 C1.0874767,20.9729716 1.19016572,21 1.29166571,21 C1.46791249,21 1.64070028,20.9186082 1.74436214,20.7688533 C3.32652967,18.4835465 4.10275056,15.8261263 3.98909003,13.0837377 Z" id="Shape" fill="#70819D" fill-rule="nonzero" transform="translate(2.000000, 13.000000) scale(-1, -1) translate(-2.000000, -13.000000) "></path>
                </g>
            </g>
        </g>
    </g>
</svg>