<?xml version="1.0" encoding="UTF-8"?>
<svg width="30px" height="26px" viewBox="0 0 30 26" version="1.1" xmlns="http://www.w3.org/2000/svg" xmlns:xlink="http://www.w3.org/1999/xlink">
    <!-- Generator: Sketch 51.1 (57501) - http://www.bohemiancoding.com/sketch -->
    <title>6</title>
    <desc>Created with Sketch.</desc>
    <defs></defs>
    <g id="Page-1" stroke="none" stroke-width="1" fill="none" fill-rule="evenodd">
        <g id="icons" transform="translate(-1112.000000, -279.000000)">
            <g id="table" transform="translate(843.000000, 279.000000)">
                <g id="6" transform="translate(269.000000, 0.000000)">
                    <path d="M26.3694727,8.30308594 C26.6714062,7.63710937 26.8284961,6.91253906 26.8284961,6.17015625 C26.8284961,3.31769531 24.507832,0.997089844 21.6554297,0.997089844 C20.7946289,0.997089844 19.9592578,1.20773437 19.2104883,1.61027344 C18.2368945,0.586757812 16.9001367,0.009140625 15.4681641,0.009140625 C13.6017187,0.009140625 11.8922461,1.01542969 10.9775391,2.6128125 C10.5609375,2.50658203 10.1320312,2.45291016 9.69679687,2.45291016 C6.84433594,2.45291016 4.52373047,4.77357422 4.52373047,7.62597656 C4.52373047,8.15419922 4.60230469,8.67128906 4.75792969,9.16875 C3.62707031,10.1465039 2.96384766,11.5792969 2.96384766,13.0853906 C2.96384766,15.809707 5.08072266,18.0489844 7.7559375,18.2446289 C7.75013672,18.3445898 7.74720703,18.4447852 7.74720703,18.5448047 C7.74720703,21.3972656 10.0678711,23.7178711 12.9202734,23.7178711 C14.6156836,23.7178711 16.1963086,22.8761133 17.1548437,21.5155078 C18.1180078,22.4835352 19.4358398,23.0419922 20.823457,23.0419922 C23.5357617,23.0419922 25.7671289,20.9439258 25.9798828,18.2853516 C28.3045312,17.7567773 30,15.6725391 30,13.2414844 C30,10.9598437 28.4880469,8.96689453 26.3694727,8.30308594 Z" id="Shape" fill="#70819D" fill-rule="nonzero"></path>
                    <path d="M6.65460937,21.1506445 C6.65460937,19.9003125 5.63736328,18.883125 4.38703125,18.883125 C3.75896484,18.883125 3.17537109,19.1363086 2.75285156,19.5775781 C2.59453125,19.542832 2.43234375,19.5254297 2.26746094,19.5254297 C1.0171875,19.5253711 0,20.5426172 0,21.7929492 C0,22.9287891 0.83953125,23.8722656 1.93072266,24.0355078 C2.24595703,24.9197461 3.08888672,25.5377344 4.06599609,25.5377344 C5.31626953,25.5377344 6.33351562,24.5205469 6.33351562,23.2701563 C6.33351562,23.0092969 6.28875,22.7519531 6.20220703,22.5089648 C6.49330078,22.1199023 6.65460937,21.6438867 6.65460937,21.1506445 Z" id="Shape" fill="#70819D" fill-rule="nonzero"></path>
                    <text id="Bq/m" font-family="NotoSans-ExtraCondensedBlack, Noto Sans" font-size="7.09" font-style="condensed" font-weight="600" fill="#FFFFFF">
                        <tspan x="8" y="14">Bq/m</tspan>
                    </text>
                    <text id="3" font-family="Roboto-Black, Roboto" font-size="3.1640625" font-weight="700" fill="#FFFFFF">
                        <tspan x="24" y="10.6171875">3</tspan>
                    </text>
                </g>
            </g>
        </g>
    </g>
</svg>