<?xml version="1.0" encoding="UTF-8"?>
<svg width="19px" height="25px" viewBox="0 0 19 25" version="1.1" xmlns="http://www.w3.org/2000/svg" xmlns:xlink="http://www.w3.org/1999/xlink">
    <!-- Generator: Sketch 51.2 (57519) - http://www.bohemiancoding.com/sketch -->
    <title>Path 6</title>
    <desc>Created with Sketch.</desc>
    <defs></defs>
    <g id="Page-1" stroke="none" stroke-width="1" fill="none" fill-rule="evenodd">
        <g id="icons" transform="translate(-1194.000000, -214.000000)" fill="#70819D" fill-rule="nonzero">
            <g id="table" transform="translate(843.000000, 214.000000)">
                <path d="M360.5,1.5 C362,1.5 363.5,2 364.5,3 C365.5,4 366,6 367,6 C368,6 369,5.5 369,4 C369,2.5 367,8.52651283e-14 361,2.84217094e-14 C355,-2.84217094e-14 352.5,4 352.5,6 C352.5,8 353,10 357.5,11.5 C355.5,12 351,13 351,17 C351,21 355.5,24.5 361,24 C366.5,23.5 370,21 370,19 C370,17 368.5,16.5 367.5,16.5 C366.5,16.5 366,17 365.5,18 C365,19 364.5,22.5 361,22.5 C357.5,22.5 356,18.5 356,17 C356,15.5 356.5,12.0477666 361,12.0238833 C361.5,12 363,12.5 364,12.5 C365,12.5 365.5,12 365.5,11.5 C365.5,11 365,10.5 364,10.5 C363,10.5 361.5,11 360.5,11 C359.5,11 356.5,10 356.5,6 C356.5,2 359,1.5 360.5,1.5 Z" id="Path-6"></path>
            </g>
        </g>
    </g>
</svg>