<?xml version="1.0" encoding="UTF-8"?>
<svg width="19px" height="25px" viewBox="0 0 19 25" version="1.1" xmlns="http://www.w3.org/2000/svg" xmlns:xlink="http://www.w3.org/1999/xlink">
    <!-- Generator: Sketch 51.1 (57501) - http://www.bohemiancoding.com/sketch -->
    <title>8</title>
    <desc>Created with Sketch.</desc>
    <defs></defs>
    <g id="Page-1" stroke="none" stroke-width="1" fill="none" fill-rule="evenodd">
        <g id="icons" transform="translate(-1225.000000, -280.000000)" fill="#70819D" fill-rule="nonzero">
            <g id="table" transform="translate(843.000000, 279.000000)">
                <g id="8" transform="translate(382.000000, 1.000000)">
                    <path d="M13.4583333,1.5625 L11.7388333,1.5625 C11.4126667,0.653125 10.5323333,0 9.5,0 C8.46766667,0 7.58733333,0.653125 7.25958333,1.5625 L5.54166667,1.5625 C5.10466667,1.5625 4.75,1.9125 4.75,2.34375 L4.75,5.46875 C4.75,5.9 5.10466667,6.25 5.54166667,6.25 L13.4583333,6.25 C13.8953333,6.25 14.25,5.9 14.25,5.46875 L14.25,2.34375 C14.25,1.9125 13.8953333,1.5625 13.4583333,1.5625 Z" id="Shape"></path>
                    <path d="M17.4166667,3.125 L15.8333333,3.125 L15.8333333,5.46875 C15.8333333,6.7609375 14.76775,7.8125 13.4583333,7.8125 L5.54166667,7.8125 C4.23225,7.8125 3.16666667,6.7609375 3.16666667,5.46875 L3.16666667,3.125 L1.58333333,3.125 C0.710916667,3.125 0,3.8265625 0,4.6875 L0,23.4375 C0,24.3140625 0.695083333,25 1.58333333,25 L17.4166667,25 C18.3049167,25 19,24.3140625 19,23.4375 L19,4.6875 C19,3.8109375 18.3049167,3.125 17.4166667,3.125 Z M9.26883333,16.959375 L6.10216667,20.084375 C5.947,20.2359375 5.74433333,20.3125 5.54166667,20.3125 C5.339,20.3125 5.13633333,20.2359375 4.98116667,20.084375 L3.39783333,18.521875 C3.08908333,18.2171875 3.08908333,17.721875 3.39783333,17.4171875 C3.70658333,17.1125 4.2085,17.1125 4.51725,17.4171875 L5.54166667,18.4265625 L8.14783333,15.8546875 C8.45658333,15.55 8.9585,15.55 9.26725,15.8546875 C9.576,16.159375 9.57758333,16.653125 9.26883333,16.959375 Z M9.26883333,10.709375 L6.10216667,13.834375 C5.947,13.9859375 5.74433333,14.0625 5.54166667,14.0625 C5.339,14.0625 5.13633333,13.9859375 4.98116667,13.834375 L3.39783333,12.271875 C3.08908333,11.9671875 3.08908333,11.471875 3.39783333,11.1671875 C3.70658333,10.8625 4.2085,10.8625 4.51725,11.1671875 L5.54166667,12.1765625 L8.14783333,9.6046875 C8.45658333,9.3 8.9585,9.3 9.26725,9.6046875 C9.576,9.909375 9.57758333,10.403125 9.26883333,10.709375 Z M15.0416667,18.75 L11.875,18.75 C11.438,18.75 11.0833333,18.4 11.0833333,17.96875 C11.0833333,17.5375 11.438,17.1875 11.875,17.1875 L15.0416667,17.1875 C15.4786667,17.1875 15.8333333,17.5375 15.8333333,17.96875 C15.8333333,18.4 15.4786667,18.75 15.0416667,18.75 Z M15.0416667,12.5 L11.875,12.5 C11.438,12.5 11.0833333,12.15 11.0833333,11.71875 C11.0833333,11.2875 11.438,10.9375 11.875,10.9375 L15.0416667,10.9375 C15.4786667,10.9375 15.8333333,11.2875 15.8333333,11.71875 C15.8333333,12.15 15.4786667,12.5 15.0416667,12.5 Z" id="Shape"></path>
                </g>
            </g>
        </g>
    </g>
</svg>