<svg width="25" height="32" viewBox="0 0 25 32" xmlns="http://www.w3.org/2000/svg"><title>1</title><g fill="none" fill-rule="evenodd"><path d="M13.233 0v2.932a9.548 9.548 0 0 1 5.499 2.279l2.08-2.077A12.472 12.472 0 0 0 13.234 0zm3.448 17.673l1.037-1.035 1.01 1.008a8.09 8.09 0 0 0 .957-1.42l-1.325-.547.561-1.352 1.326.548c.17-.542.28-1.104.332-1.679h-1.433v-1.463h1.433a8.029 8.029 0 0 0-.333-1.679l-1.325.548-.561-1.352 1.322-.547a8.128 8.128 0 0 0-.953-1.42l-1.002 1-1.036-1.036 1-.999a8.142 8.142 0 0 0-1.423-.952l-.547 1.32-1.355-.56.549-1.322a8.072 8.072 0 0 0-1.682-.333v1.43h-1.466v-1.43a8.071 8.071 0 0 0-1.682.333l.549 1.322-1.355.56-.548-1.32a8.146 8.146 0 0 0-1.423.952l1.002 1-1.037 1.035-1.002-1a8.124 8.124 0 0 0-.953 1.42l1.322.547-.561 1.352-1.325-.547a8.029 8.029 0 0 0-.333 1.678h1.433V13H4.42c.051.575.163 1.333.332 1.875l1.326-.548.561 1.352-1.324.548c.265.501.584.977.955 1.42l1.01-1.009 1.038 1.035-4.131 4.123A12.477 12.477 0 0 0 12.5 24.95c3.191 0 6.102-1.193 8.313-3.155l-4.132-4.123z" fill="#70819D" fill-rule="nonzero"/><path fill="#FFF" fill-rule="nonzero" d="M8 10h9v4H8z"/><text font-family="MyriadPro-Bold, Myriad Pro" font-size="4" font-weight="bold" fill="#70819D"><tspan x="10.3" y="13.4">42</tspan></text><path d="M2.95 13.196H.01a12.422 12.422 0 0 0 3.14 7.565l2.08-2.076a9.462 9.462 0 0 1-2.282-5.489zm.2-9.028a12.422 12.422 0 0 0-3.139 7.565h2.938a9.51 9.51 0 0 1 2.283-5.488L3.15 4.168zm18.7 0l-2.082 2.077a9.51 9.51 0 0 1 2.283 5.488h2.938a12.422 12.422 0 0 0-3.14-7.565zM4.188 3.134l2.08 2.076a9.548 9.548 0 0 1 5.499-2.278V0a12.472 12.472 0 0 0-7.58 3.134zm17.863 10.062a9.462 9.462 0 0 1-2.282 5.489l2.08 2.076a12.422 12.422 0 0 0 3.14-7.565h-2.938z" fill="#70819D" fill-rule="nonzero"/><g transform="translate(6.5 20)" fill-rule="nonzero"><circle fill="#FFF" cx="6" cy="6" r="6"/><path d="M6 1C3.243 1 1 3.243 1 6s2.243 5 5 5 5-2.243 5-5-2.243-5-5-5zm2.871 4.155L5.73 8.297a.702.702 0 0 1-.5.207.702.702 0 0 1-.5-.207L3.129 6.696a.702.702 0 0 1-.207-.5c0-.19.073-.367.207-.5a.702.702 0 0 1 .5-.207c.189 0 .366.073.5.207l1.1 1.1 2.642-2.64a.702.702 0 0 1 .5-.208.708.708 0 0 1 .5 1.207z" fill="#70819D"/></g></g></svg>