<svg width="29" height="23" viewBox="0 0 29 23" xmlns="http://www.w3.org/2000/svg"><title>2</title><g fill="#70819D"><path d="M5.7.546C2.552.546 0 3.172 0 6.41v9.699c0 3.154 2.485 5.711 5.55 5.711V19.8h-.306c-1.811 0-3.279-1.51-3.279-3.373V5.917c0-1.863 1.468-3.373 3.279-3.373H23.22c1.81 0 3.278 1.51 3.278 3.373v10.511c0 1.863-1.468 3.373-3.278 3.373h-.259v2.02c3.025 0 5.476-2.522 5.476-5.633V6.257c0-3.154-2.485-5.711-5.55-5.711H5.7z"/><path d="M6.79 18.536V3.553H5.629c-1.331 0-2.41 1.11-2.41 2.481v10.021c0 1.37 1.079 2.482 2.41 2.482h1.163v-.001zM17.471 3.553h3.109v14.983h-3.109zm-6.194 0h2.287v14.983h-2.287zm3.59 0h1.301v14.983h-1.301zm-6.781 0h1.94v14.983h-1.94zm-.249 16.029c-.708 0-1.046.647-1.046 1.462.006.798.318 1.453 1.025 1.453.7 0 1.041-.599 1.041-1.47 0-.773-.287-1.445-1.02-1.445zM7.832 22c-.247 0-.4-.308-.395-.955-.005-.655.156-.963.391-.963.258 0 .389.33.389.955 0 .642-.136.963-.385.963zm2.706-2.418c-.708 0-1.044.647-1.044 1.462.004.798.315 1.453 1.023 1.453.7 0 1.042-.599 1.042-1.47 0-.773-.287-1.445-1.02-1.445zM10.535 22c-.25 0-.4-.308-.396-.955-.005-.655.155-.963.391-.963.257 0 .389.33.389.955 0 .642-.136.963-.384.963zm1.599-2.027l.106.503.522-.248h.009v2.224h.613v-2.83h-.524zm3.067 1.925l.255-.216c.397-.365.73-.741.73-1.214 0-.513-.34-.886-.96-.886-.37 0-.691.13-.896.291l.18.473c.144-.113.35-.234.587-.234.316 0 .45.182.45.413-.008.33-.3.646-.898 1.196l-.356.33v.401h1.94v-.555h-1.031v.001zm2.787-2.316a1.01 1.01 0 0 0-1.033 1.015c0 .547.392.881.856.881.249 0 .425-.074.547-.204l.014.004a.89.89 0 0 1-.347.521c-.147.104-.342.16-.536.173-.126.01-.201.01-.275 0v.516c.074.005.178.01.288 0 .425-.017.783-.151 1.044-.394.3-.282.48-.712.48-1.297 0-.66-.334-1.215-1.038-1.215zm.35 1.241a.4.4 0 0 1-.353.187c-.263 0-.389-.207-.389-.45-.004-.296.156-.495.375-.495.29 0 .401.295.401.594a.296.296 0 0 1-.034.164zm2.94-.022c-.194-.143-.46-.204-.72-.204-.067 0-.118.003-.178.012l.06-.43h1.073v-.558h-1.521l-.182 1.484a2.4 2.4 0 0 1 .372-.025c.547 0 .771.18.771.471 0 .298-.284.429-.548.429-.249 0-.498-.078-.62-.139l-.113.495c.15.082.43.16.763.16.738 0 1.175-.463 1.175-.988.001-.33-.125-.564-.332-.707zm.58-17.248v14.983h.975c1.332 0 2.412-1.111 2.412-2.482V6.034c0-1.371-1.08-2.482-2.412-2.482h-.975z"/></g></svg>