<svg width="21" height="22" viewBox="0 0 21 22" xmlns="http://www.w3.org/2000/svg"><title>3</title><path d="M16.204 7.753h4.764V.97a.961.961 0 0 0-.953-.97H6.995v7.753h4.763c.526 0 .953.434.953.97a.96.96 0 0 1-.953.968H6.994V12.6a.961.961 0 0 1-.953.969.961.961 0 0 1-.952-.97V0H.96a.961.961 0 0 0-.953.97v20.028c0 .535.427.97.953.97h4.13v-4.846c0-.536.427-.97.952-.97.526 0 .953.434.953.97v4.845h13.021a.961.961 0 0 0 .953-.969V9.691h-4.764a.961.961 0 0 1-.953-.969c0-.535.427-.969.953-.969z" fill="#70819D"/></svg>