<svg width="23" height="24" viewBox="0 0 23 24" xmlns="http://www.w3.org/2000/svg"><title>4</title><g fill="#70819D"><path d="M5.975 6.181c.53 0 .958-.445.958-.999V.999C6.933.446 6.506 0 5.975 0c-.53 0-.957.446-.957 1v4.182c0 .554.432 1 .957 1zm11.05 0c.53 0 .957-.445.957-.999V.999c0-.553-.427-.999-.957-.999s-.958.446-.958 1v4.182c0 .554.427 1 .958 1z"/><path d="M16.222 19.146c-.526.505-1.24.76-2.14.76-.733 0-1.348-.113-1.845-.344v-1.489c.521.334 1.07.5 1.657.5.441 0 .788-.108 1.037-.328.249-.22.376-.52.376-.892 0-.783-.53-1.175-1.596-1.175-.348 0-.765.034-1.258.098v-4.428h4.21v1.425h-2.779v1.587c.221-.024.432-.034.63-.034.779 0 1.394.216 1.835.642.441.426.662 1.004.662 1.724.004.793-.259 1.45-.789 1.954zm-5.389.622H6.027v-1.381h1.577V13.45l-1.615.367v-1.415l3.286-.691v6.68h1.563v1.377h-.005zm11.21-17.623h-2.146v3.037c0 1.656-1.29 2.998-2.877 2.998-1.587 0-2.877-1.347-2.877-2.998V2.145h-5.29v3.037c0 1.656-1.291 2.998-2.873 2.998-1.587 0-2.873-1.347-2.873-2.998V2.145H.957c-.53 0-.957.45-.957 1V23c0 .553.427.999.958.999h21.084c.53 0 .958-.446.958-1V3.145c0-.548-.427-.999-.958-.999z"/></g></svg>