<svg width="26" height="26" viewBox="0 0 26 26" xmlns="http://www.w3.org/2000/svg"><title>5</title><g fill="none" fill-rule="evenodd"><path d="M19.519 0H6.48C5.665 0 5 .687 5 1.53v6.94C5 9.312 5.665 10 6.481 10H19.52c.815 0 1.48-.687 1.48-1.53V1.53C21 .688 20.335 0 19.519 0z" fill="#70819D" fill-rule="nonzero"/><text font-family="MyriadPro-BoldCond, Myriad Pro" font-size="5.637" font-style="condensed" font-weight="bold" fill="#FFF"><tspan x="6" y="6">W 1.2.3</tspan></text><path d="M13.854 16.146a.504.504 0 0 0-.707 0 .504.504 0 0 0 0 .707.504.504 0 0 0 .707 0 .504.504 0 0 0 0-.707z" fill="#70819D" fill-rule="nonzero"/><path d="M19.519 16h-3.704a.502.502 0 0 0-.494.51c0 .282.221.51.494.51h3.704c.272 0 .493.23.493.51v6.94c0 .28-.221.51-.493.51H6.48a.503.503 0 0 1-.493-.51v-6.94c0-.28.221-.51.493-.51h5.087a.502.502 0 0 0 .494-.51.502.502 0 0 0-.494-.51H6.48C5.665 16 5 16.687 5 17.53v6.94c0 .843.665 1.53 1.481 1.53H19.52c.816 0 1.481-.687 1.481-1.53v-6.94c0-.843-.665-1.53-1.481-1.53z" fill="#70819D" fill-rule="nonzero"/><path d="M14.59 19.043h-2.216a.822.822 0 0 0-.808.834v2.289c0 .46.363.834.808.834h2.217a.822.822 0 0 0 .808-.834v-2.289a.822.822 0 0 0-.808-.834zm-.23 2.309h-1.755a.325.325 0 0 1-.32-.33c0-.183.143-.33.32-.33h1.755c.177 0 .32.147.32.33 0 .182-.143.33-.32.33zm-4.335-2.31H7.808a.822.822 0 0 0-.808.835v2.289c0 .46.362.834.808.834h2.216a.822.822 0 0 0 .808-.834v-2.289a.822.822 0 0 0-.807-.834zm-.22 2.31h-.558v.576c0 .182-.143.33-.32.33a.325.325 0 0 1-.32-.33v-.576H8.05a.325.325 0 0 1-.32-.33c0-.183.143-.33.32-.33h.558v-.577c0-.182.143-.33.32-.33.176 0 .32.148.32.33v.576h.557c.177 0 .32.148.32.33 0 .183-.143.33-.32.33zM19.192 19h-2.216a.822.822 0 0 0-.808.834v2.289c0 .46.362.834.808.834h2.216a.822.822 0 0 0 .808-.834v-2.289a.822.822 0 0 0-.808-.834zm-.25 2.386a.338.338 0 0 1 0 .467.314.314 0 0 1-.453 0l-.394-.407-.394.407a.314.314 0 0 1-.453 0 .338.338 0 0 1 0-.467l.395-.407-.395-.408a.338.338 0 0 1 0-.467.313.313 0 0 1 .453 0l.394.408.394-.408a.313.313 0 0 1 .453 0 .338.338 0 0 1 0 .467l-.395.408.395.407zm7.048-8.302a12.456 12.456 0 0 0-2.086-6.4.55.55 0 0 0 .582-.28.499.499 0 0 0-.25-.683l-1.46-.67a.568.568 0 0 0-.522.027.505.505 0 0 0-.254.433v1.567c0 .282.242.51.54.51a.543.543 0 0 0 .49-.296c2.573 3.944 2.545 8.967-.19 12.917a.494.494 0 0 0 .156.708.56.56 0 0 0 .748-.148c1.583-2.285 2.359-4.943 2.245-7.685zM.01 12.916a12.462 12.462 0 0 0 2.086 6.4.55.55 0 0 0-.582.28.499.499 0 0 0 .25.683l1.46.67a.568.568 0 0 0 .522-.027A.505.505 0 0 0 4 20.49v-1.567c0-.282-.242-.51-.54-.51a.543.543 0 0 0-.49.296C.396 14.764.424 9.741 3.16 5.791a.494.494 0 0 0-.156-.708.56.56 0 0 0-.748.148C.673 7.516-.103 10.174.01 12.916z" fill="#70819D" fill-rule="nonzero"/></g></svg>