<svg width="30" height="26" viewBox="0 0 30 26" xmlns="http://www.w3.org/2000/svg"><title>6</title><g fill="none" fill-rule="evenodd"><path d="M26.37 8.303A5.179 5.179 0 0 0 21.655.997c-.861 0-1.697.21-2.446.613a5.136 5.136 0 0 0-3.742-1.6 5.18 5.18 0 0 0-4.49 2.603 5.179 5.179 0 0 0-6.22 6.556 5.19 5.19 0 0 0-1.794 3.916 5.18 5.18 0 0 0 4.792 5.16 5.179 5.179 0 0 0 5.164 5.473 5.199 5.199 0 0 0 4.235-2.202 5.178 5.178 0 0 0 3.668 1.526 5.18 5.18 0 0 0 5.157-4.757A5.18 5.18 0 0 0 30 13.241a5.198 5.198 0 0 0-3.63-4.938z" fill="#70819D" fill-rule="nonzero"/><path d="M6.655 21.15a2.27 2.27 0 0 0-3.902-1.572A2.27 2.27 0 0 0 0 21.793c0 1.136.84 2.08 1.93 2.243a2.265 2.265 0 0 0 2.136 1.502 2.27 2.27 0 0 0 2.136-3.029c.291-.39.453-.865.453-1.358z" fill="#70819D" fill-rule="nonzero"/><text font-family="NotoSans-ExtraCondensedBlack, Noto Sans" font-size="7.09" font-style="condensed" font-weight="600" fill="#FFF"><tspan x="8" y="14">Bq/m</tspan></text><text font-family="Roboto-Black, Roboto" font-size="3.164" font-weight="700" fill="#FFF"><tspan x="24" y="10.617">3</tspan></text></g></svg>