<svg width="19" height="25" viewBox="0 0 19 25" xmlns="http://www.w3.org/2000/svg"><title>8</title><g fill="#70819D"><path d="M13.458 1.563h-1.72A2.376 2.376 0 0 0 9.5 0a2.38 2.38 0 0 0-2.24 1.563H5.542a.787.787 0 0 0-.792.78V5.47c0 .431.355.781.792.781h7.916c.437 0 .792-.35.792-.781V2.344a.787.787 0 0 0-.792-.781z"/><path d="M17.417 3.125h-1.584v2.344c0 1.292-1.065 2.343-2.375 2.343H5.542c-1.31 0-2.375-1.051-2.375-2.343V3.125H1.583C.711 3.125 0 3.827 0 4.688v18.75C0 24.314.695 25 1.583 25h15.834c.888 0 1.583-.686 1.583-1.563V4.688c0-.876-.695-1.562-1.583-1.562zM9.269 16.959l-3.167 3.125a.8.8 0 0 1-1.12 0l-1.584-1.562a.775.775 0 0 1 0-1.105.8.8 0 0 1 1.12 0l1.024 1.01 2.606-2.572a.8.8 0 0 1 1.12 0 .773.773 0 0 1 0 1.104zm0-6.25l-3.167 3.125a.8.8 0 0 1-1.12 0l-1.584-1.562a.775.775 0 0 1 0-1.105.8.8 0 0 1 1.12 0l1.024 1.01 2.606-2.572a.8.8 0 0 1 1.12 0 .773.773 0 0 1 0 1.104zm5.773 8.041h-3.167a.787.787 0 0 1-.792-.781c0-.431.355-.782.792-.782h3.167c.437 0 .791.35.791.782a.787.787 0 0 1-.791.781zm0-6.25h-3.167a.787.787 0 0 1-.792-.781c0-.431.355-.781.792-.781h3.167c.437 0 .791.35.791.78a.787.787 0 0 1-.791.782z"/></g></svg>