<?xml version="1.0" encoding="UTF-8"?>
<svg width="27px" height="27px" viewBox="0 0 27 27" version="1.1" xmlns="http://www.w3.org/2000/svg" xmlns:xlink="http://www.w3.org/1999/xlink">
    <!-- Generator: Sketch 48.2 (47327) - http://www.bohemiancoding.com/sketch -->
    <title>Shape</title>
    <desc>Created with Sketch.</desc>
    <defs></defs>
    <g id="radon" stroke="none" stroke-width="1" fill="none" fill-rule="evenodd" transform="translate(-379.000000, -3764.000000)">
        <g id="4-block" transform="translate(376.000000, 2751.000000)" fill="#FF6A82" fill-rule="nonzero">
            <g id="analog" transform="translate(0.000000, 153.000000)">
                <g id="ulemper" transform="translate(3.000000, 730.000000)">
                    <g id="minuses" transform="translate(0.000000, 69.000000)">
                        <path d="M13.5,61 C6.09146341,61 0,67.0914634 0,74.5 C0,81.9085366 6.09146341,88 13.5,88 C20.9085366,88 27,81.9085366 27,74.5 C27,67.0914634 20.9085366,61 13.5,61 Z M19.8219512,75.7512195 L14.7512195,75.7512195 L12.2487805,75.7512195 L7.17804878,75.7512195 C6.45365854,75.7512195 5.92682927,75.1914634 5.92682927,74.5 C5.92682927,73.8085366 6.45365854,73.2487805 7.17804878,73.2487805 L12.2487805,73.2487805 L14.7512195,73.2487805 L19.8219512,73.2487805 C20.5463415,73.2487805 21.0731707,73.8085366 21.0731707,74.5 C21.0731707,75.1914634 20.5134146,75.7512195 19.8219512,75.7512195 Z" id="Shape"></path>
                    </g>
                </g>
            </g>
        </g>
    </g>
</svg>