<?xml version="1.0" encoding="UTF-8"?>
<svg width="28px" height="30px" viewBox="0 0 28 30" version="1.1" xmlns="http://www.w3.org/2000/svg" xmlns:xlink="http://www.w3.org/1999/xlink">
    <!-- Generator: Sketch 48.2 (47327) - http://www.bohemiancoding.com/sketch -->
    <title>book-with-bookmark</title>
    <desc>Created with Sketch.</desc>
    <defs></defs>
    <g id="radon" stroke="none" stroke-width="1" fill="none" fill-rule="evenodd" transform="translate(-570.000000, -234.000000)">
        <g id="book-with-bookmark" transform="translate(570.000000, 234.000000)" fill="#797979" fill-rule="nonzero">
            <path d="M27.594907,5.45260156 L25.466207,5.13695726 C25.4557742,4.29756547 25.7843528,4.02538174 25.7887788,4.02157498 C25.9508551,3.91350513 26.0305232,3.71713948 25.98953,3.52658972 C25.9480098,3.3354055 25.7958393,3.18842205 25.6037294,3.1569105 C24.8534154,3.03276764 7.22240506,0.115410626 5.50732623,0.0099843707 C4.63856372,-0.0444735243 4.07466899,0.123552874 3.78244696,0.521148379 C3.63512406,0.721532284 3.59033705,0.945814216 3.59887293,1.13932479 L0,24.9640723 L0.0135941732,25.0417937 C0.233524711,26.2722249 1.27195093,26.9741502 2.94582571,27.037702 L3.44101191,23.6581402 C1.52265278,23.2606504 0.961708716,22.3740971 0.961708716,22.3740971 L1.20313702,20.7785336 C2.06125603,21.4826795 3.03086833,21.8029765 3.69118685,21.9492197 L5.9052456,6.84027332 C3.97244924,6.44436971 3.41066213,5.55104875 3.41066213,5.55104875 L3.65156352,3.95527381 C4.5143193,4.66354367 5.49425897,4.98489813 6.15542054,5.13008393 L6.5695686,2.30472375 C5.08896292,1.97237197 4.64183054,1.47823267 4.5703821,1.21598882 C4.568696,1.19187931 4.56490227,1.16829851 4.55921169,1.14429474 C4.55921169,1.13932479 4.55815788,1.13361465 4.55815788,1.12917342 L4.5614247,1.10897641 L4.54920048,1.1067558 C4.54751438,1.09988247 4.54646057,1.09332638 4.54424756,1.08698177 C4.54540676,1.08528987 4.68830365,0.913668197 5.45010425,0.958609178 C6.92386015,1.05007729 21.2879483,3.40889722 24.7186328,3.97399041 C24.6132516,4.23242749 24.5341104,4.56943197 24.5227292,4.9967414 L12.8783188,3.26921008 C13.524727,6.08283274 12.6875788,8.37810083 12.6875788,8.37810083 C12.4903052,7.82368774 11.1488027,6.79702424 11.1488027,6.79702424 C10.0833989,7.86968615 9.13602204,7.94254341 9.13602204,7.94254341 C9.68526879,5.00953636 9.41264766,3.45859666 9.13876195,2.71395104 L7.50387821,2.47137548 L3.90869362,27.005979 C3.94283713,27.0027009 3.97740216,26.9983654 4.00142907,26.9949816 L23.349942,29.9945013 C23.3744958,29.9983081 23.3985227,30 23.4225496,30 C23.6489084,30 23.8480788,29.8373665 23.8879129,29.6062113 L27.9930371,6.00426533 C28.014851,5.87811335 27.9849227,5.74857758 27.9101021,5.6443145 C27.8350707,5.53994568 27.7215752,5.47100093 27.594907,5.45260156 Z" id="Shape"></path>
        </g>
    </g>
</svg>