<?xml version="1.0" encoding="UTF-8"?>
<svg width="27px" height="35px" viewBox="0 0 27 35" version="1.1" xmlns="http://www.w3.org/2000/svg" xmlns:xlink="http://www.w3.org/1999/xlink">
    <!-- Generator: Sketch 48.2 (47327) - http://www.bohemiancoding.com/sketch -->
    <title>analog dev</title>
    <desc>Created with Sketch.</desc>
    <defs></defs>
    <g id="radon" stroke="none" stroke-width="1" fill="none" fill-rule="evenodd" transform="translate(-1027.000000, -232.000000)">
        <g id="analog-dev" transform="translate(1027.000000, 232.000000)" fill="#797979" fill-rule="nonzero">
            <path d="M17.4750617,11 L9.52493826,11 C8.13275496,11 7,12.0954148 7,13.4417061 L7,16.5582939 C7,17.9045852 8.13275496,19 9.52493826,19 L17.4750617,19 C18.867245,19 20,17.9045852 20,16.5582939 L20,13.4417061 C20,12.0954148 18.867245,11 17.4750617,11 Z M8.35494108,14.024543 L10.1276428,12.3102767 C10.3586994,12.0868366 10.7321073,12.0868366 10.9631639,12.3102767 C11.1942206,12.5337169 11.1942206,12.8948157 10.9631639,13.1182558 L9.19046226,14.832522 C9.07521554,14.9439698 8.9239938,14.9999319 8.77270167,14.9999319 C8.62140954,14.9999319 8.47018781,14.9439017 8.35494108,14.832522 C8.12395481,14.60915 8.12395481,14.2479831 8.35494108,14.024543 Z M9.36364916,17.8571331 C9.21235703,17.8571331 9.0611353,17.8011029 8.94588857,17.6897233 C8.7148319,17.4662831 8.7148319,17.1051843 8.94588857,16.8817442 L13.6731869,12.3102767 C13.9042436,12.0868366 14.2776514,12.0868366 14.5087081,12.3102767 C14.7397648,12.5337169 14.7397648,12.8948157 14.5087081,13.1182558 L9.78140976,17.6897233 C9.66616303,17.8011029 9.5149413,17.8571331 9.36364916,17.8571331 Z M12.9091229,17.8571331 C12.7578308,17.8571331 12.606609,17.8011029 12.4913623,17.6897233 C12.2603056,17.4662831 12.2603056,17.1051843 12.4913623,16.8817442 L17.2186606,12.3102767 C17.4497173,12.0868366 17.8231252,12.0868366 18.0541818,12.3102767 C18.2852385,12.5337169 18.2852385,12.8948157 18.0541818,13.1182558 L13.3268835,17.6897233 C13.2116368,17.8011029 13.0603446,17.8571331 12.9091229,17.8571331 Z M18.6450589,15.9753889 L16.8723572,17.6896552 C16.7571105,17.8011029 16.6058888,17.8570651 16.4545967,17.8570651 C16.3033045,17.8570651 16.1520828,17.8010348 16.0368361,17.6896552 C15.8057794,17.4662151 15.8057794,17.1051162 16.0368361,16.8816761 L17.8095377,15.1674099 C18.0405944,14.9439698 18.4140023,14.9439698 18.6450589,15.1674099 C18.8761156,15.39085 18.8761156,15.7520169 18.6450589,15.9753889 Z" id="Shape"></path>
            <path d="M25.2682269,11.0624875 C25.2641003,11.0554721 25.2606032,11.0490818 25.2564766,11.0420665 C24.9629275,10.5027853 24.6353862,9.9891346 24.2766506,9.5035454 L25.3539066,8.43317927 C25.5834583,8.20583933 25.5834583,7.8367332 25.3539066,7.60883759 L25.9903144,6.97627274 C26.2644894,6.70461785 26.4153556,6.34370789 26.4153556,5.95952911 C26.4153556,5.57535032 26.2644894,5.21444037 25.9909439,4.94334115 L24.7170093,3.67814199 C24.1528522,3.11788415 23.2347156,3.11788415 22.6704886,3.67814199 L22.0335213,4.31070684 C21.9237114,4.20110023 21.7746637,4.13990669 21.6184819,4.13990669 C21.4623,4.13990669 21.3138119,4.20110023 21.2034424,4.31070684 L19.8338263,5.67085671 C18.7700692,5.10240269 17.6282562,4.67564542 16.4353151,4.4098251 L16.4353151,2.91499386 C16.4353151,2.59318943 16.1728904,2.33202287 15.8482868,2.33202287 L15.8482868,1.43766633 C15.8482868,0.6454148 15.1990096,0 14.4006147,0 L12.5995226,0 C11.8011278,0 11.1518506,0.6454148 11.1518506,1.43766633 L11.1518506,2.33202287 C10.827177,2.33202287 10.5648223,2.59318943 10.5648223,2.91499386 L10.5648223,4.4098251 C9.36488693,4.67745136 8.21656922,5.10768159 7.14812597,5.68134505 L5.76738897,4.31070684 C5.53846682,4.08274177 5.16686176,4.08274177 4.93731012,4.31070684 L4.30034281,3.67814199 C3.73618574,3.11788415 2.81804915,3.11788415 2.25382214,3.67814199 L0.979258028,4.94327169 C0.415100965,5.50352952 0.415100965,6.41532032 0.979258028,6.97564761 L1.61678489,7.60876813 C1.38723325,7.8367332 1.38723325,8.20576988 1.61678489,8.43310981 L2.71103696,9.52042398 C2.35293082,10.0072634 2.02531965,10.5220255 1.73240001,11.0624875 C-1.13419771,16.3485403 -0.392176597,22.943482 3.57930448,27.4716656 L8.00338416,32.5152364 L8.00338416,32.5146807 C9.38768822,34.0940438 11.3913341,35 13.5000337,35 C15.6087333,35 17.6123792,34.0940438 18.9966833,32.5152364 L23.4207629,27.4716656 C27.3916145,22.943482 28.1342651,16.3490959 25.2682269,11.0624875 Z M11.7388789,3.4980343 L15.2612585,3.4980343 L15.2612585,4.19825241 C14.6824135,4.1218473 14.0941961,4.08107475 13.5001036,4.08107475 C12.9060111,4.08107475 12.3177938,4.12247243 11.7389488,4.19825241 L11.7389488,3.4980343 L11.7388789,3.4980343 Z M5.3892093,6.8100569 C4.68887398,7.34114187 4.04071585,7.94342251 3.45368756,8.60863318 L2.86190316,8.02093897 L5.35220966,5.54728881 L6.1095482,6.29939293 L6.10898866,6.2999486 C5.86474908,6.46144122 5.62582514,6.63050489 5.39221683,6.80776474 C5.39158735,6.80832042 5.39039833,6.80887609 5.3892093,6.8100569 Z M13.5000337,32.0650714 C11.8814919,32.0650714 10.5647523,30.7574326 10.5647523,29.1500775 C10.5647523,27.5433475 11.8815618,26.2350836 13.5000337,26.2350836 C15.1185756,26.2350836 16.4353151,27.5433475 16.4353151,29.1500775 C16.435385,30.7574326 15.1185756,32.0650714 13.5000337,32.0650714 Z M21.1318212,16.7478612 C21.1318212,18.7644698 19.4798468,20.4050265 17.4492031,20.4050265 L9.55093426,20.4050265 C7.52029057,20.4050265 5.86831615,18.7644698 5.86831615,16.7478612 L5.86831615,13.5687835 C5.86831615,11.5521748 7.52029057,9.91106247 9.55093426,9.91106247 L17.4492031,9.91106247 C19.4798468,9.91106247 21.1318212,11.5522442 21.1318212,13.5687835 L21.1318212,16.7478612 Z M23.5328809,8.59286595 C22.747985,7.70552478 21.8532792,6.93188832 20.8728937,6.28765432 L21.6184819,5.54721935 L24.1087883,8.02086951 L23.5328809,8.59286595 Z" id="Shape"></path>
            <path d="M13.5,28 C12.6729746,28 12,28.6730342 12,29.5 C12,30.3269658 12.6730342,31 13.5,31 C14.3269658,31 15,30.3269658 15,29.5 C15,28.6730342 14.3270254,28 13.5,28 Z" id="Shape"></path>
        </g>
    </g>
</svg>