<?xml version="1.0" encoding="UTF-8"?>
<svg width="38px" height="23px" viewBox="0 0 38 23" version="1.1" xmlns="http://www.w3.org/2000/svg" xmlns:xlink="http://www.w3.org/1999/xlink">
    <!-- Generator: Sketch 46.2 (44496) - http://www.bohemiancoding.com/sketch -->
    <title>mastercard</title>
    <desc>Created with Sketch.</desc>
    <defs></defs>
    <g id="Page-1" stroke="none" stroke-width="1" fill="none" fill-rule="evenodd">
        <g id="payment" transform="translate(-1226.000000, -387.000000)">
            <g id="card" transform="translate(590.000000, 325.000000)">
                <g id="logos" transform="translate(558.000000, 62.000000)">
                    <g id="mastercard" transform="translate(78.000000, 0.000000)">
                        <g id="logo">
                            <path d="M22.6172973,11.4599764 C22.6172973,17.7893228 17.5632973,22.9195906 11.3286212,22.9195906 C5.09340998,22.9195906 0.0390531744,17.7893228 0.0390531744,11.4599764 C0.0390531744,5.13081102 5.09340998,0 11.3286212,0 C17.5632973,0 22.6172973,5.13081102 22.6172973,11.4599764" id="Fill-2" fill="#D82332"></path>
                            <path d="M26.5958795,0 C23.6784428,0 21.0207621,1.12337795 19.0169311,2.96627559 C18.6094569,3.34188189 18.2287433,3.74755118 17.8778231,4.17948031 L20.1583583,4.17948031 C20.4698513,4.56450394 20.7570813,4.96926772 21.0189781,5.39322835 L17.0166682,5.39322835 C16.7774288,5.78277953 16.5595978,6.18754331 16.3663865,6.60697638 L21.6692597,6.60697638 C21.850518,6.9997874 22.0100109,7.40437008 22.1473818,7.8201811 L15.8882644,7.8201811 C15.7578513,8.21552756 15.648133,8.62029134 15.5601799,9.03320472 L22.4749311,9.03320472 C22.6403114,9.81556693 22.7284428,10.6272677 22.7284428,11.4599764 C22.7284428,12.7322205 22.5243489,13.9568346 22.1473818,15.1004961 L15.8882644,15.1004961 C16.0254569,15.516126 16.1851283,15.9210709 16.3660297,16.3144252 L21.6692597,16.3144252 C21.4755133,16.7327717 21.2587527,17.1378976 21.018086,17.5279921 L17.0166682,17.5279921 C17.2778513,17.950685 17.5656166,18.3559921 17.8778231,18.7404724 L20.1576447,18.7404724 C19.8072597,19.1727638 19.4263677,19.5784331 19.0174663,19.9540394 C21.0211189,21.796937 23.6784428,22.9195906 26.5958795,22.9195906 C32.8305555,22.9195906 37.8849123,17.7893228 37.8849123,11.4599764 C37.8849123,5.13135433 32.8305555,0 26.5958795,0" id="Fill-3" fill="#F1AB3E"></path>
                            <path d="M36.2550156,17.7558189 C36.2550156,17.5515354 36.4184335,17.3858268 36.6198513,17.3858268 C36.8216259,17.3858268 36.9843302,17.5515354 36.9843302,17.7558189 C36.9843302,17.9602835 36.8216259,18.1261732 36.6198513,18.1261732 C36.4184335,18.1261732 36.2550156,17.9602835 36.2550156,17.7558189 L36.2550156,17.7558189 Z M36.6198513,18.0374331 C36.7723865,18.0374331 36.8969123,17.9112047 36.8969123,17.7558189 C36.8969123,17.5998898 36.7723865,17.474748 36.6198513,17.474748 C36.4666025,17.474748 36.3424335,17.5998898 36.3424335,17.7558189 C36.3424335,17.9112047 36.4666025,18.0374331 36.6198513,18.0374331 L36.6198513,18.0374331 Z M36.5704335,17.9182677 L36.4955039,17.9182677 L36.4955039,17.5935512 L36.6312691,17.5935512 C36.6592785,17.5935512 36.6881799,17.5935512 36.7131565,17.609126 C36.7386682,17.6275984 36.7536541,17.6585669 36.7536541,17.6908031 C36.7536541,17.7275669 36.7327809,17.7619764 36.6979921,17.7750157 L36.7572222,17.9182677 L36.6742644,17.9182677 L36.625025,17.7898661 L36.5704335,17.7898661 L36.5704335,17.9182677 L36.5704335,17.9182677 Z M36.5704335,17.7339055 L36.6118231,17.7339055 C36.6271659,17.7339055 36.643579,17.7349921 36.6574945,17.7275669 C36.6696259,17.7194173 36.6762269,17.7049291 36.6762269,17.6900787 C36.6762269,17.6777638 36.6680203,17.6632756 36.6578513,17.656937 C36.6446494,17.6491496 36.6239546,17.6507795 36.6100391,17.6507795 L36.5704335,17.6507795 L36.5704335,17.7339055 L36.5704335,17.7339055 Z" id="registered" fill="#F1AB3E"></path>
                            <path d="M36.2550156,14.1341339 C36.2550156,13.9289449 36.4187903,13.7637795 36.6191377,13.7637795 C36.8209123,13.7637795 36.9836166,13.9289449 36.9836166,14.1341339 C36.9836166,14.337874 36.8209123,14.504126 36.6191377,14.504126 C36.4187903,14.504126 36.2550156,14.337874 36.2550156,14.1341339 L36.2550156,14.1341339 Z M36.6191377,14.4153858 C36.7727433,14.4153858 36.8969123,14.2891575 36.8969123,14.1341339 C36.8969123,13.9789291 36.7727433,13.8527008 36.6191377,13.8527008 C36.4662457,13.8527008 36.3424335,13.9789291 36.3424335,14.1341339 C36.3424335,14.2891575 36.4662457,14.4153858 36.6191377,14.4153858 L36.6191377,14.4153858 Z M36.5700766,14.2958583 L36.4955039,14.2958583 L36.4955039,13.9711417 L36.6309123,13.9711417 C36.6592785,13.9711417 36.6878231,13.9722283 36.7126212,13.9878031 C36.739025,14.0053701 36.7532973,14.0365197 36.7532973,14.0687559 C36.7532973,14.1055197 36.7324241,14.1399291 36.6983489,14.1529685 L36.7572222,14.2958583 L36.6742644,14.2958583 L36.625025,14.1674567 L36.5700766,14.1674567 L36.5700766,14.2958583 L36.5700766,14.2958583 Z M36.5700766,14.1118583 L36.6114663,14.1118583 C36.6264522,14.1118583 36.6439358,14.1133071 36.6571377,14.1055197 C36.6692691,14.0977323 36.6755133,14.0821575 36.6755133,14.0680315 C36.6755133,14.0557165 36.6683771,14.0419528 36.6578513,14.0343465 C36.6450062,14.0271024 36.6239546,14.0290945 36.6100391,14.0290945 L36.5700766,14.0290945 L36.5700766,14.1118583 L36.5700766,14.1118583 Z" id="registered" fill="#FFFFFE"></path>
                            <path d="M35.1002081,8.87401575 L34.8277856,10.553378 C34.4932785,10.105874 34.1332597,9.78170079 33.6579921,9.78170079 C33.0394663,9.78170079 32.4767809,10.2576378 32.1081987,10.9585039 C31.5947527,10.8503858 31.0645367,10.6665669 31.0645367,10.6665669 L31.0641799,10.6710945 C31.104856,10.2793701 31.1223396,10.0410394 31.1182363,9.95954331 L29.9923302,9.95954331 C29.8394382,11.4230315 29.5664804,12.904811 29.3536447,14.3688425 L29.2972691,14.6868583 L30.523795,14.6868583 C30.6891752,13.5958976 30.8156635,12.688937 30.9091471,11.970685 C31.3282175,11.5862047 31.5380203,11.2515276 31.9606588,11.2732598 C31.7733349,11.733622 31.663795,12.2635276 31.663795,12.8071969 C31.663795,13.9885276 32.2523489,14.7685354 33.1436541,14.7685354 C33.5928748,14.7685354 33.9373724,14.6111575 34.2736635,14.2467795 L34.2158607,14.6864961 L35.3754851,14.6864961 L36.3088936,8.87401575 L35.1002081,8.87401575 L35.1002081,8.87401575 Z M33.567363,13.594811 C33.1502551,13.594811 32.9392034,13.2807795 32.9392034,12.6628583 C32.9392034,11.733622 33.3340109,11.0749528 33.8897386,11.0749528 C34.3109499,11.0749528 34.5391283,11.4002126 34.5391283,12.000748 C34.5391283,12.9379528 34.1377198,13.594811 33.567363,13.594811 L33.567363,13.594811 Z" id="Fill-12" fill="#0C2D5A"></path>
                            <path d="M28.054687,12.6878504 C27.9267715,12.6726378 27.8700391,12.6684724 27.7819076,12.6684724 C27.0873818,12.6684724 26.735748,12.910063 26.735748,13.3876299 C26.735748,13.6815591 26.9073724,13.8697244 27.1749781,13.8697244 C27.673795,13.8697244 28.0341705,13.3872677 28.054687,12.6878504 L28.054687,12.6878504 Z M28.9467058,14.7935276 L27.93141,14.7935276 L27.9544241,14.3040079 C27.6445367,14.6906614 27.2313536,14.8755669 26.6702738,14.8755669 C26.0055414,14.8755669 25.5507903,14.3485591 25.5507903,13.5839449 C25.5507903,12.4324961 26.3421893,11.7620551 27.7021612,11.7620551 C27.8411377,11.7620551 28.0188278,11.7749134 28.2009781,11.7988189 C28.2389781,11.6423465 28.2491471,11.5758819 28.2491471,11.491126 C28.2491471,11.1785433 28.0363114,11.0620945 27.4634569,11.0620945 C26.8640203,11.0548504 26.3700203,11.2064331 26.1661048,11.2739843 C26.1791283,11.195748 26.3361236,10.2110945 26.3361236,10.2110945 C26.9469781,10.0292677 27.3494569,9.96062992 27.8027809,9.96062992 C28.8551846,9.96062992 29.4128748,10.4407323 29.4116259,11.3469685 C29.4139452,11.5898268 29.3743396,11.8902756 29.3126119,12.2836299 C29.2062832,12.9676535 28.9781048,14.4367559 28.9467058,14.7935276 L28.9467058,14.7935276 Z" id="a" fill="#0C2D5A"></path>
                            <path d="M24.8218325,10.1326772 C25.1622269,10.1326772 25.479964,10.2225039 25.9170532,10.4463465 L26.1177574,9.1849685 C25.9375696,9.11325197 25.3058419,8.69291339 24.7706306,8.69291339 C23.950687,8.69291339 23.256518,9.10655118 22.7694757,9.78767717 C22.0580015,9.54862205 21.765241,10.0318031 21.4070062,10.5135354 L21.0885555,10.588874 C21.11264,10.4304094 21.1345837,10.2728504 21.1276259,10.1134803 L20.001363,10.1134803 C19.8481142,11.5769685 19.5756917,13.058748 19.3623208,14.5227795 L19.3066588,14.8407953 L20.5328278,14.8407953 C20.7372785,13.4908583 20.8491377,12.6268189 20.9174663,12.0414961 L21.3791752,11.7817953 C21.4485743,11.5208268 21.6639076,11.4331732 22.0968936,11.4438583 C22.040518,11.7520945 22.0098325,12.076811 22.0098325,12.4127559 C22.0098325,13.9595512 22.832809,14.9224724 24.151748,14.9224724 C24.4914288,14.9224724 24.7834757,14.8771969 25.2353724,14.7522362 L25.4499921,13.4276535 C25.0437668,13.6303071 24.7110438,13.725748 24.4091846,13.725748 C23.69664,13.725748 23.2656166,13.1916772 23.2656166,12.3095276 C23.2656166,11.029315 23.9064428,10.1326772 24.8218325,10.1326772" id="Fill-11" fill="#0C2D5A"></path>
                            <path d="M18.8850907,14.6843228 C18.4665555,14.8143543 18.0621142,14.8759291 17.6348372,14.8755669 C16.2707621,14.8746614 15.5601799,14.1511575 15.5601799,12.766811 C15.5601799,11.1504724 16.4643302,9.96062992 17.6915696,9.96062992 C18.6968748,9.96062992 19.3380579,10.6267244 19.3380579,11.6722283 C19.3380579,12.0186772 19.2934569,12.3567953 19.1881987,12.8343622 L16.762086,12.8343622 C16.6796635,13.5201969 17.1122926,13.8063386 17.8207339,13.8063386 C18.2565743,13.8063386 18.650133,13.7147008 19.0879358,13.5082441 L18.8850907,14.6843228 L18.8850907,14.6843228 Z M18.2003771,11.8810394 C18.2069781,11.7821575 18.329363,11.0372835 17.6332316,11.0372835 C17.2453818,11.0372835 16.967964,11.3380945 16.854856,11.8810394 L18.2003771,11.8810394 L18.2003771,11.8810394 Z" id="e" fill="#0C2D5A"></path>
                            <path d="M15.0904273,14.7879134 C14.7552067,14.895126 14.4936667,14.9416693 14.2101832,14.9416693 C13.5836292,14.9416693 13.2414508,14.5760236 13.2414508,13.9035906 C13.2328874,13.693874 13.3319015,13.145315 13.4096855,12.6432992 C13.4803334,12.2012283 13.9411503,9.41732283 13.9411503,9.41732283 L15.1592912,9.41732283 L15.016925,10.1326772 L15.6422301,10.1326772 L15.4757794,11.2685512 L14.8483334,11.2685512 C14.7068592,12.1682677 14.5049062,13.2874803 14.5025869,13.4359843 C14.5025869,13.6804724 14.6310376,13.7862362 14.9225494,13.7862362 C15.0620611,13.7862362 15.1701738,13.7722913 15.2529531,13.741685 L15.0904273,14.7879134" id="t" fill="#0C2D5A"></path>
                            <path d="M10.3151095,11.5608504 C10.3151095,12.1593937 10.6009123,12.5708583 11.2486964,12.8810866 C11.7448372,13.1179685 11.8215508,13.1880551 11.8215508,13.4028425 C11.8215508,13.6974961 11.6028278,13.8304252 11.117748,13.8304252 C10.7520203,13.8304252 10.4119828,13.7728346 10.0194945,13.6444331 C10.0194945,13.6444331 9.85893111,14.6859528 9.85125975,14.7352126 C10.129748,14.7971496 10.3782644,14.8536535 11.1264898,14.8755669 C12.419917,14.8755669 13.0172128,14.3759055 13.0172128,13.2956299 C13.0172128,12.6458346 12.7670907,12.2647953 12.1532034,11.9786535 C11.6394006,11.7386929 11.5803489,11.6856299 11.5803489,11.464685 C11.5803489,11.2091496 11.7839076,11.0776693 12.1801424,11.0776693 C12.4204522,11.0776693 12.7492504,11.1048346 13.0607433,11.1493858 L13.2352222,10.0531732 C12.9178419,10.0022835 12.4368654,9.96062992 12.1564147,9.96062992 C10.7853818,9.96062992 10.3110062,10.6875748 10.3151095,11.5608504" id="s" fill="#0C2D5A"></path>
                            <path d="M8.78797336,12.6878504 C8.65952266,12.6726378 8.60279026,12.6684724 8.5144804,12.6684724 C7.81977618,12.6684724 7.46814238,12.910063 7.46814238,13.3876299 C7.46814238,13.6815591 7.63976679,13.8697244 7.90755083,13.8697244 C8.40690294,13.8697244 8.76674332,13.3872677 8.78797336,12.6878504 L8.78797336,12.6878504 Z M9.67927853,14.7935276 L8.66398275,14.7935276 L8.68717524,14.3040079 C8.37746632,14.6906614 7.96410482,14.8755669 7.4026682,14.8755669 C6.73847101,14.8755669 6.28318463,14.3485591 6.28318463,13.5839449 C6.28318463,12.4324961 7.0751189,11.7620551 8.43473393,11.7620551 C8.57388886,11.7620551 8.7519358,11.7749134 8.93426444,11.7988189 C8.97226444,11.6423465 8.98225505,11.5758819 8.98225505,11.491126 C8.98225505,11.1785433 8.76870576,11.0620945 8.19638651,11.0620945 C7.59641468,11.0548504 7.10223627,11.2064331 6.89885599,11.2739843 C6.91170106,11.195748 7.06887477,10.2110945 7.06887477,10.2110945 C7.67955083,10.0292677 8.08238651,9.96062992 8.53571045,9.96062992 C9.58811421,9.96062992 10.1454475,10.4407323 10.1443771,11.3469685 C10.146518,11.5898268 10.1069123,11.8902756 10.045363,12.2836299 C9.93885599,12.9676535 9.71049918,14.4367559 9.67927853,14.7935276 L9.67927853,14.7935276 Z" id="a" fill="#0C2D5A"></path>
                            <polyline id="m" fill="#0C2D5A" points="5.66715646 14.8674173 4.44170106 14.8674173 5.14389824 10.3992598 3.57626444 14.8674173 2.74097806 14.8674173 2.63768228 10.4251575 1.89980435 14.8674173 0.752668198 14.8674173 1.71087477 9.05511811 3.47332547 9.05511811 3.52238651 12.6532598 4.71162594 9.05511811 6.61501562 9.05511811 5.66715646 14.8674173"></polyline>
                            <path d="M35.863241,14.5052126 L34.7041518,14.5052126 L34.7615978,14.065315 C34.4253067,14.429874 34.0806306,14.587252 33.6315884,14.587252 C32.7408184,14.587252 32.1517292,13.8081496 32.1517292,12.6255512 C32.1517292,11.0532205 33.0653349,9.72791339 34.145748,9.72791339 C34.621194,9.72791339 34.9810344,9.92495276 35.3162551,10.3726378 L35.5881424,8.69291339 L36.7968278,8.69291339 L35.863241,14.5052126 L35.863241,14.5052126 Z M34.0552973,13.4129843 C34.6263677,13.4129843 35.0270626,12.7564882 35.0270626,11.820189 C35.0270626,11.2194724 34.7988842,10.8933071 34.3774945,10.8933071 C33.8217668,10.8933071 33.4269593,11.5519764 33.4269593,12.4815748 C33.4269593,13.1004016 33.6385461,13.4129843 34.0552973,13.4129843 L34.0552973,13.4129843 Z" id="d-2" fill="#FFFFFE"></path>
                            <path d="M30.3489593,9.64917493 C30.195532,11.1123009 29.9231095,12.5942615 29.709917,14.0581119 L29.6540766,14.3761277 L30.8798889,14.3761277 C31.3182269,11.4853718 31.4238419,10.9212379 32.1117668,10.9916867 C32.2211283,10.4000253 32.4248654,9.88189146 32.5768654,9.62074186 C32.0635978,9.51208044 31.7769029,9.80655288 31.4011846,10.3661592 C31.4311565,10.1240253 31.4852128,9.88913556 31.4750438,9.64917493 L30.3489593,9.64917493" id="r-2" fill="#FFFFFE"></path>
                            <path d="M28.4114945,12.3256457 C28.283579,12.3104331 28.2268466,12.3062677 28.1387151,12.3062677 C27.4441893,12.3062677 27.0925555,12.5478583 27.0925555,13.0254252 C27.0925555,13.3193543 27.2641799,13.5075197 27.5317856,13.5075197 C28.0306025,13.5075197 28.3909781,13.025063 28.4114945,12.3256457 L28.4114945,12.3256457 Z M29.3035133,14.4313228 L28.2882175,14.4313228 L28.3112316,13.9418031 C28.0013443,14.3284567 27.5881612,14.5133622 27.0270813,14.5133622 C26.3623489,14.5133622 25.9075978,13.9863543 25.9075978,13.2217402 C25.9075978,12.0702913 26.6989968,11.3998504 28.0589687,11.3998504 C28.1979452,11.3998504 28.3756353,11.4127087 28.5577856,11.4366142 C28.5957856,11.2801417 28.6059546,11.2136772 28.6059546,11.1289213 C28.6059546,10.8163386 28.3931189,10.6998898 27.8202644,10.6998898 C27.2208278,10.6926457 26.7268278,10.8442283 26.5229123,10.9117795 C26.5359358,10.8335433 26.6929311,9.84888976 26.6929311,9.84888976 C27.3037856,9.66706299 27.7062644,9.5984252 28.1595884,9.5984252 C29.2119921,9.5984252 29.7696823,10.0785276 29.7684335,10.9847638 C29.7707527,11.227622 29.7311471,11.5280709 29.6694194,11.9214252 C29.5630907,12.6054488 29.3349123,14.0745512 29.3035133,14.4313228 L29.3035133,14.4313228 Z" id="a-2" fill="#FFFFFE"></path>
                            <path d="M26.4469123,8.81370866 L26.2462081,10.0750866 C25.8085837,9.8517874 25.4915602,9.76141732 25.1513443,9.76141732 C24.2363114,9.76141732 23.5945931,10.6591417 23.5945931,11.9395354 C23.5945931,12.821685 24.0259734,13.3546693 24.738518,13.3546693 C25.0401987,13.3546693 25.3736353,13.2599528 25.7793255,13.0565748 L25.5639921,14.3811575 C25.112809,14.5061181 24.8207621,14.5515748 24.4810813,14.5515748 C23.1614288,14.5515748 22.3395227,13.5884724 22.3395227,12.0420394 C22.3395227,9.96407087 23.4757762,8.51181102 25.0997856,8.51181102 C25.6349968,8.51181102 26.2670813,8.74199213 26.4469123,8.81370866" id="c-2" fill="#FFFFFE"></path>
                            <path d="M20.3590626,9.64917493 C20.2049217,11.1123009 19.9321424,12.5942615 19.7193067,14.0581119 L19.6634663,14.3761277 L20.8896353,14.3761277 C21.3283302,11.4853718 21.4335884,10.9212379 22.1204428,10.9916867 C22.230518,10.4000253 22.4347903,9.88189146 22.5862551,9.62074186 C22.0733443,9.51208044 21.7862926,9.80655288 21.4112879,10.3661592 C21.4409029,10.1240253 21.4953161,9.88913556 21.4844335,9.64917493 L20.3590626,9.64917493" id="r-3" fill="#FFFFFE"></path>
                            <path d="M19.2418982,14.3221181 C18.823363,14.4521496 18.4189217,14.5137244 17.9916447,14.5133622 C16.6275696,14.5124567 15.9169874,13.7889528 15.9169874,12.4046063 C15.9169874,10.7882677 16.8211377,9.5984252 18.0483771,9.5984252 C19.0536823,9.5984252 19.6948654,10.2645197 19.6948654,11.3100236 C19.6948654,11.6564724 19.6502644,11.9945906 19.5450062,12.4721575 L17.1188936,12.4721575 C17.036471,13.1579921 17.4691001,13.4441339 18.1775414,13.4441339 C18.6133818,13.4441339 19.0069405,13.3524961 19.4447433,13.1460394 L19.2418982,14.3221181 L19.2418982,14.3221181 Z M18.5571846,11.5188346 C18.5637856,11.4199528 18.6861705,10.6750787 17.9900391,10.6750787 C17.6021893,10.6750787 17.3247715,10.9758898 17.2116635,11.5188346 L18.5571846,11.5188346 L18.5571846,11.5188346 Z" id="e-2" fill="#FFFFFE"></path>
                            <path d="M15.4472348,14.4257087 C15.1120142,14.5329213 14.8504743,14.5794646 14.5669907,14.5794646 C13.9404367,14.5794646 13.5982583,14.2138189 13.5982583,13.5413858 C13.5896949,13.3316693 13.688709,12.7831102 13.766493,12.2810945 C13.8371409,11.8390236 14.2979578,9.05511811 14.2979578,9.05511811 L15.5160987,9.05511811 L15.3737325,9.77047244 L15.9990376,9.77047244 L15.8325869,10.9063465 L15.2051409,10.9063465 C15.0636667,11.806063 14.8617137,12.9252756 14.8593944,13.0737795 C14.8593944,13.3182677 14.9878451,13.4240315 15.2793569,13.4240315 C15.4188686,13.4240315 15.5269813,13.4100866 15.6097606,13.3794803 L15.4472348,14.4257087" id="t-2" fill="#FFFFFE"></path>
                            <path d="M10.671917,11.1986457 C10.671917,11.797189 10.9577198,12.2086535 11.6055039,12.5188819 C12.1016447,12.7557638 12.1783583,12.8258504 12.1783583,13.0406378 C12.1783583,13.3352913 11.9596353,13.4682205 11.4745555,13.4682205 C11.1088278,13.4682205 10.7687903,13.4106299 10.376302,13.2822283 C10.376302,13.2822283 10.2157386,14.323748 10.2080673,14.3730079 C10.4865555,14.4349449 10.735072,14.4914488 11.4832973,14.5133622 C12.7767245,14.5133622 13.3740203,14.0137008 13.3740203,12.9334252 C13.3740203,12.2836299 13.1238982,11.9025906 12.5100109,11.6164488 C11.9962081,11.3764882 11.9371565,11.3234252 11.9371565,11.1024803 C11.9371565,10.8469449 12.1407151,10.7154646 12.5369499,10.7154646 C12.7772597,10.7154646 13.1060579,10.7426299 13.4175508,10.7871811 L13.5920297,9.6909685 C13.2746494,9.64007874 12.7936729,9.5984252 12.5132222,9.5984252 C11.1421893,9.5984252 10.6678137,10.3253701 10.671917,11.1986457" id="s-2" fill="#FFFFFE"></path>
                            <path d="M9.14478087,12.3256457 C9.01633017,12.3104331 8.95959778,12.3062677 8.87128792,12.3062677 C8.17658369,12.3062677 7.82494989,12.5478583 7.82494989,13.0254252 C7.82494989,13.3193543 7.9965743,13.5075197 8.26435834,13.5075197 C8.76371045,13.5075197 9.12355083,13.025063 9.14478087,12.3256457 L9.14478087,12.3256457 Z M10.036086,14.4313228 L9.02079026,14.4313228 L9.04398275,13.9418031 C8.73427383,14.3284567 8.32091233,14.5133622 7.75947571,14.5133622 C7.09527853,14.5133622 6.63999214,13.9863543 6.63999214,13.2217402 C6.63999214,12.0702913 7.43192641,11.3998504 8.79154144,11.3998504 C8.93069637,11.3998504 9.10874332,11.4127087 9.29107195,11.4366142 C9.32907195,11.2801417 9.33906256,11.2136772 9.33906256,11.1289213 C9.33906256,10.8163386 9.12551327,10.6998898 8.55319402,10.6998898 C7.95322219,10.6926457 7.45904378,10.8442283 7.2556635,10.9117795 C7.26850857,10.8335433 7.42568228,9.84888976 7.42568228,9.84888976 C8.03635834,9.66706299 8.43919402,9.5984252 8.89251796,9.5984252 C9.94492172,9.5984252 10.5022551,10.0785276 10.5011846,10.9847638 C10.5033255,11.227622 10.4637198,11.5280709 10.4021705,11.9214252 C10.2956635,12.6054488 10.0673067,14.0745512 10.036086,14.4313228 L10.036086,14.4313228 Z" id="a-3" fill="#FFFFFE"></path>
                            <polyline id="m-2" fill="#FFFFFE" points="6.02396397 14.5052126 4.79850857 14.5052126 5.50070576 10.0370551 3.93307195 14.5052126 3.09778557 14.5052126 2.99448979 10.0629528 2.25661186 14.5052126 1.10947571 14.5052126 2.06768228 8.69291339 3.83013299 8.69291339 3.87919402 12.2910551 5.06843346 8.69291339 6.97182313 8.69291339 6.02396397 14.5052126"></polyline>
                        </g>
                    </g>
                </g>
            </g>
        </g>
    </g>
</svg>