<?xml version="1.0" encoding="UTF-8"?>
<svg width="22px" height="25px" viewBox="0 0 22 25" version="1.1" xmlns="http://www.w3.org/2000/svg" xmlns:xlink="http://www.w3.org/1999/xlink">
    <!-- Generator: Sketch 46.2 (44496) - http://www.bohemiancoding.com/sketch -->
    <title>pdf</title>
    <desc>Created with Sketch.</desc>
    <defs></defs>
    <g id="Page-1" stroke="none" stroke-width="1" fill="none" fill-rule="evenodd">
        <g id="user-profile" transform="translate(-1344.000000, -614.000000)" fill-rule="nonzero">
            <g id="orders" transform="translate(0.000000, 277.000000)">
                <g id="all-orders" transform="translate(378.000000, 122.000000)">
                    <g id="1-order-opened" transform="translate(31.000000, 129.000000)">
                        <g id="sub-product-1" transform="translate(0.000000, 74.000000)">
                            <g id="product" transform="translate(1.000000, 0.000000)">
                                <g id="pdf" transform="translate(934.000000, 12.000000)">
                                    <path d="M1.57141696,0 L14.9230548,0 L22,7.00939641 L22,23.4375152 C22,24.300766 21.2960371,25 20.428583,25 L1.57141696,25 C0.703962928,25 0,24.300766 0,23.4375152 L0,1.56248484 C0,0.699233995 0.704044226,0 1.57141696,0 Z" id="Shape" fill="#E2574C"></path>
                                    <path d="M22,7 L16.5605702,7 C15.6991038,7 15,6.30159699 15,5.44099415 L15,0 L22,7 Z" id="Shape" fill="#B53629"></path>
                                    <path d="M16.6075352,11.9609371 C16.8710229,11.9609371 17,11.7171611 17,11.4809005 C17,11.2362606 16.8654895,11 16.6075352,11 L15.1070063,11 C14.8136545,11 14.6500936,11.257943 14.6500936,11.5426651 L14.6500936,15.4573349 C14.6500936,15.8063268 14.8372528,16 15.0904874,16 C15.3421759,16 15.5301489,15.8063268 15.5301489,15.4573349 L15.5301489,14.382889 L16.4377085,14.382889 C16.7192611,14.382889 16.8600374,14.1382492 16.8600374,13.895337 C16.8600374,13.6574351 16.7192611,13.4210881 16.4377085,13.4210881 L15.5301489,13.4210881 L15.5301489,11.9609371 C15.5301489,11.9609371 16.6075352,11.9609371 16.6075352,11.9609371 Z M11.5357637,11 L10.4378713,11 C10.1397998,11 9.9282285,11.2170833 9.9282285,11.5392961 L9.9282285,15.4607039 C9.9282285,15.860576 10.2325657,15.985833 10.4504028,15.985833 L11.6025714,15.985833 C12.96623,15.985833 13.8667101,15.0332752 13.8667101,13.5630172 C13.8659777,12.0085348 13.0182277,11 11.5357637,11 Z M11.5884938,15.0191082 L10.919196,15.0191082 L10.919196,11.9668112 L11.5224184,11.9668112 C12.4355114,11.9668112 12.8326145,12.6171974 12.8326145,13.5146421 C12.8326145,14.354555 12.4425096,15.0191082 11.5884938,15.0191082 Z M7.56660428,11 L6.47896493,11 C6.17145415,11 6,11.2153556 6,11.5426651 L6,15.4573349 C6,15.8063268 6.19659858,16 6.46081862,16 C6.72503865,16 6.92163724,15.8063268 6.92163724,15.4573349 L6.92163724,14.3143864 L7.60346651,14.3143864 C8.44495077,14.3143864 9.13939295,13.6815363 9.13939295,12.6638448 C9.13947433,11.6679221 8.46944422,11 7.56660428,11 Z M7.54853934,13.3961231 L6.92171861,13.3961231 L6.92171861,11.9192136 L7.54853934,11.9192136 C7.93547075,11.9192136 8.18162584,12.2397851 8.18162584,12.658057 C8.18081211,13.0755516 7.93547075,13.3961231 7.54853934,13.3961231 Z" id="Shape" fill="#FFFFFF"></path>
                                </g>
                            </g>
                        </g>
                    </g>
                </g>
            </g>
        </g>
    </g>
</svg>