<?xml version="1.0" encoding="UTF-8"?>
<svg width="24px" height="35px" viewBox="0 0 24 35" version="1.1" xmlns="http://www.w3.org/2000/svg" xmlns:xlink="http://www.w3.org/1999/xlink">
    <!-- Generator: Sketch 48.2 (47327) - http://www.bohemiancoding.com/sketch -->
    <title>paper-bag</title>
    <desc>Created with Sketch.</desc>
    <defs></defs>
    <g id="radon" stroke="none" stroke-width="1" fill="none" fill-rule="evenodd" transform="translate(-1279.000000, -232.000000)">
        <g id="paper-bag" transform="translate(1279.000000, 232.000000)" fill="#797979" fill-rule="nonzero">
            <path d="M23.0142667,8.21647182 L22.99868,8.21915775 L23.0026673,8.21025177 L20.0587342,7.00016964 L19.3089766,7.10619319 C18.518186,3.6542784 16.4177483,1.24224261 13.8788525,1.24224261 C13.5803849,1.24224261 13.2901094,1.28634841 13.0043286,1.35074004 C12.0863794,0.491242455 10.9398491,0 9.60693065,0 C5.74062607,0 3.86376721,5.01858946 3.83716104,9.48281712 L0.311009482,10.0241734 L0,33.0175716 L4.76170741,35 L24,32.0950254 L23.0142667,8.21647182 Z M16.8788253,7.47946677 L15.4171532,7.70317647 C15.361621,6.26316459 15.0952693,4.95624761 14.6468792,3.84215214 C15.5663508,4.32597294 16.4326826,5.64236136 16.8788253,7.47946677 Z M12.9814198,8.07892393 L10.6933614,8.43063939 C10.9469538,6.69870934 11.5624481,5.32146341 12.3038686,4.49631745 C12.7322497,5.45674946 12.967573,6.6916411 12.9814198,8.07892393 Z M8.11075031,10.304641 L3.99803051,10.8783698 L1.40331248,10.4317279 L8.13837143,9.41863753 C8.12561207,9.66348125 8.10785045,9.9050029 8.10785045,10.1571976 C8.10676301,10.2058977 8.11075031,10.2545979 8.11075031,10.304641 Z M6.30218305,9.10459577 C6.45623786,5.50658053 7.84882088,2.3911845 9.60577071,2.3911845 C10.0097931,2.3911845 10.3827144,2.48589887 10.7222875,2.65928272 C9.36602517,4.00627659 8.42038236,6.21298011 8.17563457,8.81762536 L6.30218305,9.10459577 Z M9.65680817,13.7944415 C8.85325826,13.7944415 8.20122579,13.1590071 8.20122579,12.3744328 C8.20122579,11.590424 8.85325826,10.9549895 9.65680817,10.9549895 C10.4603581,10.9549895 11.112463,11.590424 11.112463,12.3744328 C11.112318,13.1589364 10.4603581,13.7944415 9.65680817,13.7944415 Z M10.5646804,9.96048856 C10.5691026,9.64397291 10.5868643,9.33827167 10.6146304,9.03907321 L17.0086663,8.06111198 C17.066446,8.37465896 17.1119012,8.62996367 17.1430021,8.96839085 L10.5646804,9.96048856 Z M19.0042743,12.3749982 C18.2007244,12.3749982 17.547532,11.7394931 17.547532,10.9554842 C17.547532,10.1714754 18.2007244,9.53653572 19.0042743,9.53653572 C19.8078242,9.53653572 20.4592767,10.1714754 20.4592767,10.9554842 C20.4593492,11.7394224 19.8078242,12.3749982 19.0042743,12.3749982 Z M19.5702535,8.62890343 C19.5337153,8.28482167 19.4463572,7.97954452 19.3871277,7.65080083 L19.9978372,7.52958057 L21.874696,8.3107621 L19.5702535,8.62890343 Z" id="Shape"></path>
        </g>
    </g>
</svg>