<?xml version="1.0" encoding="UTF-8"?>
<svg width="243px" height="74px" viewBox="0 0 243 74" version="1.1" xmlns="http://www.w3.org/2000/svg" xmlns:xlink="http://www.w3.org/1999/xlink">
    <!-- Generator: Sketch 46.2 (44496) - http://www.bohemiancoding.com/sketch -->
    <title>radon_logo</title>
    <desc>Created with Sketch.</desc>
    <defs></defs>
    <g id="Symbols" stroke="none" stroke-width="1" fill="none" fill-rule="evenodd">
        <g id="header_big" transform="translate(-840.000000, 0.000000)">
            <g id="header">
                <g id="radon_logo" transform="translate(840.000000, 0.000000)">
                    <path d="M10.8740741,44.0000879 C11.7248196,43.996452 12.572111,44.1056278 13.3925926,44.3246058 C14.1448196,44.5216052 14.85136,44.8569651 15.4740741,45.3125824 C16.0787191,45.7663664 16.565799,46.3517051 16.8962963,47.0217099 C17.2640135,47.7909765 17.4440118,48.6326127 17.4222222,49.4808342 C17.4511391,50.7165652 17.0806126,51.929921 16.362963,52.9495697 C15.6135815,53.9573413 14.4839532,54.6343123 13.2222222,54.8317733 L13.2222222,54.8894654 C13.8378159,54.9575855 14.434003,55.1412627 14.9777778,55.4303285 C15.4279531,55.6837579 15.8149754,56.0309929 16.1111111,56.4471512 C16.4150645,56.8844622 16.6312172,57.373849 16.7481481,57.8894528 C16.8852635,58.4654056 16.9719937,59.0516356 17.0074074,59.6418494 C17.0074074,59.9928094 17.0271605,60.4230961 17.0666667,60.9327093 C17.1061728,61.4423226 17.145679,61.9567435 17.1851852,62.4759721 C17.2430182,62.9632901 17.3396044,63.4455047 17.4740741,63.9182738 C17.5681974,64.3090215 17.7475638,64.6754834 18,64.9927885 L15.7703704,64.9927885 C15.6371907,64.7680006 15.5397875,64.524854 15.4814815,64.2716377 C15.4107312,63.9821609 15.3612235,63.6881508 15.3333333,63.3918337 C15.3037037,63.0889503 15.2790123,62.7908746 15.2592593,62.4976066 C15.2395062,62.2043386 15.2197531,61.949532 15.2,61.7331868 C15.1604938,60.9879976 15.0938272,60.247616 15,59.5120422 C14.9253204,58.8291681 14.732474,58.1635223 14.4296296,57.5433004 C14.1461905,56.9733326 13.7082031,56.4895757 13.162963,56.1442678 C12.4710043,55.7609407 11.6735351,55.5970945 10.8814815,55.6755198 L3.05185185,55.6755198 L3.05185185,65 L1,65 L1,44.0000879 L10.8740741,44.0000879 Z M10.7259259,53.9663923 C11.3328566,53.9692451 11.9360815,53.8742094 12.5111111,53.6851435 C13.0536657,53.5111056 13.5566707,53.2368723 13.9925926,52.8774546 C14.4173097,52.5243349 14.7627596,52.0898271 15.0074074,51.6010176 C15.2682322,51.06257 15.397531,50.4726648 15.3851852,49.8774671 C15.4483804,48.7482237 15.0334144,47.6431108 14.237037,46.8197876 C13.2702149,46.0050927 12.0079123,45.6023813 10.7333333,45.7020039 L3.05185185,45.7020039 L3.05185185,53.9663923 L10.7259259,53.9663923 Z" id="Shape" fill="#FFFFFF" fill-rule="nonzero"></path>
                    <path d="M31.7403883,44 L40,65 L37.8302246,65 L35.262657,58.4735577 L25.6650171,58.4735577 L23.1263799,65 L21,65 L29.4621241,44 L31.7403883,44 Z M34.6334222,56.7644231 L30.561477,45.9975962 L26.3448801,56.7644231 L34.6334222,56.7644231 Z" id="Shape" fill="#FFFFFF" fill-rule="nonzero"></path>
                    <path d="M52.3105802,44 C55.5258817,44.0769231 57.9434016,44.9735577 59.5631399,46.6899038 C61.1828783,48.40625 61.995165,51.0096154 62,54.5 C62,57.9903846 61.1877133,60.59375 59.5631399,62.3100962 C57.9385666,64.0264423 55.5210466,64.9230769 52.3105802,65 L45,65 L45,44 L52.3105802,44 Z M51.3024744,63.2908654 C52.6244356,63.3164855 53.9432767,63.153777 55.2188567,62.8076923 C56.2368635,62.5279024 57.167352,61.9970759 57.9240614,61.2644231 C58.6684156,60.4983532 59.2071134,59.5584842 59.4906143,58.53125 C60.1601983,55.8874266 60.1601983,53.1197849 59.4906143,50.4759615 C59.2071134,49.4487273 58.6684156,48.5088584 57.9240614,47.7427885 C57.167352,47.0101356 56.2368635,46.4793092 55.2188567,46.1995192 C53.9432767,45.8534345 52.6244356,45.6907261 51.3024744,45.7163462 L47.0162116,45.7163462 L47.0162116,63.3052885 L51.3024744,63.2908654 Z" id="Shape" fill="#FFFFFF" fill-rule="nonzero"></path>
                    <path d="M67.6240951,50.8377004 C68.0172195,49.5592548 68.6533372,48.3680349 69.4978179,47.3288911 C70.3489989,46.2981304 71.4199461,45.4692603 72.6328406,44.9025095 C75.4241125,43.6991635 78.590469,43.6991635 81.3817409,44.9025095 C82.5886092,45.4723224 83.6541688,46.3008765 84.5021821,47.3288911 C85.346511,48.368135 85.9826124,49.5593243 86.3759049,50.8377004 C87.2080317,53.5607519 87.2080317,56.4689569 86.3759049,59.1920084 C85.9848044,60.4668821 85.3483959,61.6537117 84.5021821,62.6862885 C83.6509615,63.7073242 82.5859315,64.5305076 81.3817409,65.0981408 C78.5902889,66.3006197 75.4242926,66.3006197 72.6328406,65.0981408 C71.4226463,64.5335275 70.3522412,63.7100377 69.4978179,62.6862885 C68.6514486,61.653815 68.0150229,60.4669536 67.6240951,59.1920084 C66.7919683,56.4689569 66.7919683,53.5607519 67.6240951,50.8377004 Z M69.5051087,58.4074299 C69.8024938,59.4858916 70.2967989,60.5005101 70.9632587,61.4004515 C71.6149787,62.2879427 72.4632187,63.0138199 73.4421138,63.5217193 C74.5724572,64.083702 75.8248062,64.3582311 77.087489,64.320827 C78.3505144,64.3619034 79.6037567,64.0871785 80.7328642,63.5217193 C81.7055922,63.0106991 82.5484228,62.2851834 83.1971378,61.4004515 C83.8633119,60.5003379 84.3575903,59.4857744 84.6552878,58.4074299 C85.2697941,56.1822227 85.2697941,53.8329568 84.6552878,51.6077497 C84.3553147,50.5347291 83.8611545,49.5253322 83.1971378,48.6292573 C82.548233,47.7446996 81.7054468,47.019222 80.7328642,46.5079895 C79.6037567,45.9425303 78.3505144,45.6678053 77.087489,45.7088818 C75.8248062,45.6714776 74.5724572,45.9460068 73.4421138,46.5079895 C72.4633662,47.0161061 71.6151719,47.7419441 70.9632587,48.6292573 C70.2989606,49.5251622 69.8047742,50.5346128 69.5051087,51.6077497 C68.8906025,53.8329568 68.8906025,56.1822227 69.5051087,58.4074299 L69.5051087,58.4074299 Z" id="Shape" fill="#FFFFFF" fill-rule="nonzero"></path>
                    <polygon id="Shape" fill="#FFFFFF" fill-rule="nonzero" points="95.2962963 44 107.888889 61.7620192 107.948148 61.7620192 107.948148 44 110 44 110 65 107.703704 65 95.1111111 47.2379808 95.0518519 47.2379808 95.0518519 65 93 65 93 44"></polygon>
                    <polygon id="Shape" fill="#FFFFFF" fill-rule="nonzero" points="119.901257 44 126.83842 62.4110577 134.019749 44 137 44 137 65 135.010772 65 135.010772 46.8485577 134.953321 46.8485577 127.807899 64.9927885 125.933573 64.9927885 119.046679 46.8485577 118.989228 46.8485577 118.989228 64.9927885 117 64.9927885 117 44"></polygon>
                    <polygon id="Shape" fill="#FFFFFF" fill-rule="nonzero" points="158.84498 44 158.84498 45.7067901 146.052165 45.7067901 146.052165 53.2829218 158.032972 53.2829218 158.032972 55.0113169 146.052165 55.0113169 146.052165 63.2932099 159 63.2932099 159 65 144 65 144 44"></polygon>
                    <polygon id="Shape" fill="#FFFFFF" fill-rule="nonzero" points="179 44.0072091 179 45.715757 171.490256 45.715757 171.490256 65 169.428757 65 169.428757 45.7085479 162 45.7085479 162 44"></polygon>
                    <polygon id="Shape" fill="#FFFFFF" fill-rule="nonzero" points="198.84498 44 198.84498 45.7067901 186.052165 45.7067901 186.052165 53.2829218 198.032972 53.2829218 198.032972 55.0113169 186.052165 55.0113169 186.052165 63.2932099 199 63.2932099 199 65 184 65 184 44"></polygon>
                    <path d="M214.879078,44.0001218 C215.730818,43.9958299 216.579168,44.1050114 217.400609,44.3246391 C218.151527,44.5216382 218.856838,44.8569975 219.478469,45.3126142 C220.082255,45.7662044 220.568528,46.3515909 220.898217,47.0217389 C221.26555,47.7909215 221.445248,48.6326155 221.423227,49.4808592 C221.452094,50.7165883 221.082212,51.9299421 220.365811,52.9495891 C219.617734,53.9573591 218.490071,54.634329 217.230535,54.8317897 L217.230535,54.8894817 C217.845097,54.9574221 218.440281,55.1411097 218.983036,55.430344 C219.432428,55.6837729 219.818777,56.0310074 220.114398,56.447165 C220.417822,56.8844753 220.633599,57.3738613 220.750326,57.8894643 C220.887203,58.4654161 220.973782,59.0516452 221.009134,59.641858 C221.009134,59.9928175 221.028853,60.4231035 221.068291,60.9327159 C221.107728,61.4423283 221.147165,61.9567484 221.186603,62.4759762 C221.244335,62.9632934 221.340753,63.4455072 221.474989,63.9182755 C221.568949,64.3090226 221.748003,64.6754839 222,64.9927885 L219.737277,64.9927885 C219.604122,64.7680981 219.506876,64.5249202 219.448891,64.2716388 C219.378458,63.9821246 219.329039,63.6881284 219.301,63.3918362 C219.271422,63.0889534 219.246774,62.7908782 219.227055,62.4976107 C219.207337,62.2043431 219.187618,61.9495369 219.167899,61.733192 C219.128462,60.988004 219.061911,60.2476237 218.968247,59.5120511 C218.893697,58.829178 218.701187,58.1635333 218.398869,57.5433125 C218.116239,56.9731408 217.678946,56.4893094 217.134406,56.1442821 C216.443652,55.7609556 215.64757,55.5971096 214.856894,55.6755348 L207.070465,55.6755348 L207.070465,65 L205,65 L205,44.0001218 L214.879078,44.0001218 Z M214.731187,53.9664101 C215.337062,53.9692629 215.939238,53.8742273 216.513267,53.6851618 C217.054877,53.5111241 217.557007,53.2368912 217.992171,52.8774741 C218.416303,52.5244983 218.761178,52.0899575 219.00522,51.6010392 C219.265591,51.0625925 219.394665,50.4726882 219.38234,49.8774915 C219.445425,48.7482499 219.031181,47.6431388 218.23619,46.819817 C217.271468,46.0044031 216.011043,45.6015907 214.738582,45.702035 L207.070465,45.702035 L207.070465,53.9664101 L214.731187,53.9664101 Z" id="Shape" fill="#FFFFFF" fill-rule="nonzero"></path>
                    <path d="M228.658907,61.3236727 C228.991974,62.0224549 229.505259,62.6251609 230.148673,63.0729736 C230.824106,63.5219701 231.583298,63.8376159 232.383322,64.0020629 C233.301081,64.1951888 234.237733,64.2901117 235.176633,64.2851447 C235.802438,64.277146 236.425053,64.1967391 237.031392,64.0456139 C237.689744,63.9004735 238.320639,63.6555429 238.901048,63.3197629 C239.473252,62.9809632 239.965666,62.5283376 240.346121,61.9914556 C240.744076,61.4101829 240.947083,60.7228824 240.92713,60.0243995 C240.940143,59.4843129 240.798262,58.9513996 240.517444,58.4855954 C240.245141,58.0515391 239.882231,57.6781179 239.452261,57.3895604 C239.004754,57.0878236 238.519021,56.8438434 238.007188,56.6637094 C237.500082,56.4826895 236.982789,56.3300127 236.457832,56.2064233 L231.63099,55.0523202 C231.004684,54.8944019 230.390006,54.6955525 229.791129,54.4571224 C229.216439,54.2354176 228.686778,53.9159099 228.226875,53.5135161 C227.770409,53.1052465 227.403068,52.6115154 227.146795,52.0618142 C226.854875,51.397507 226.715068,50.6791764 226.737109,49.9568463 C226.753795,49.3436324 226.85655,48.7355307 227.042511,48.1494773 C227.266029,47.4230408 227.65569,46.7554542 228.182182,46.1969382 C228.825469,45.5267498 229.60746,44.9973011 230.476422,44.6436171 C231.659042,44.1814579 232.927351,43.9639389 234.200836,44.0048682 C235.238796,43.9998535 236.27218,44.1391689 237.269754,44.4186033 C238.191948,44.6713335 239.056452,45.0925412 239.817254,45.6598085 C241.378435,46.8288216 242.27027,48.6559817 242.215777,50.5738196 L240.152451,50.5738196 C240.132081,49.8353875 239.941126,49.1109318 239.593789,48.4543348 C239.273139,47.8673018 238.828942,47.3528317 238.290244,46.9445647 C237.734495,46.5318911 237.105867,46.2219174 236.435485,46.0299925 C235.710927,45.8171332 234.957582,45.7119126 234.200836,45.7178765 C233.511475,45.7168665 232.824238,45.7923575 232.152408,45.9428903 C231.535326,46.0788237 230.949407,46.3249222 230.42428,46.6687413 C229.924873,46.9974109 229.513622,47.4379794 229.225018,47.9534976 C228.902731,48.5654939 228.746321,49.2476064 228.77064,49.9350708 C228.761241,50.3766499 228.850186,50.8149666 229.031349,51.219827 C229.206796,51.5789587 229.461087,51.8961346 229.776232,52.1489163 C230.08888,52.4116404 230.443701,52.6225262 230.826517,52.7731481 C231.234433,52.935251 231.655509,53.0639303 232.085369,53.1578491 L237.374038,54.4280884 C238.116786,54.616302 238.843876,54.8589433 239.549096,55.1539393 C240.197777,55.422215 240.802596,55.7817037 241.344264,56.2209403 C241.860591,56.6460494 242.275033,57.1762615 242.558423,57.7742614 C242.869791,58.4744179 243.019808,59.2325924 242.997904,59.9953654 C242.991951,60.3110458 242.967079,60.6261179 242.923416,60.9389717 C242.861107,61.3718107 242.738303,61.7943045 242.558423,62.1946939 C242.344217,62.6762922 242.06895,63.12985 241.739052,63.5447767 C241.327231,64.0424563 240.821566,64.4588262 240.249286,64.7714649 C239.533101,65.174396 238.760123,65.4727527 237.955047,65.6570031 C236.881108,65.9016407 235.780297,66.016223 234.677562,65.9981531 C233.479052,66.0078185 232.284443,65.863833 231.12447,65.569901 C230.110999,65.3226239 229.16032,64.8754868 228.331159,64.2561107 C227.551744,63.6531595 226.939701,62.869599 226.550888,61.9769386 C226.114077,60.915699 225.93314,59.7709 226.022022,58.6307656 L228.085347,58.6307656 C228.057888,59.559749 228.254332,60.4820659 228.658907,61.3236727 Z" id="Shape" fill="#FFFFFF" fill-rule="nonzero"></path>
                    <rect id="Rectangle-path" fill="#FFFFFF" fill-rule="nonzero" x="0" y="36" width="242" height="1"></rect>
                    <rect id="Rectangle-path" fill="#FFFFFF" fill-rule="nonzero" x="0" y="73" width="242" height="1"></rect>
                    <path d="M38,36 C85.4861383,-4 154.513862,-4 202,36" id="Shape" stroke="#FFFFFF"></path>
                    <path d="M71,36 C85.0231788,27.8027778 102.091391,23 120.5,23 C138.908609,23 155.976821,27.81 170,36" id="Shape" stroke="#FFFFFF"></path>
                    <circle id="Oval" fill="#FFFFFF" fill-rule="nonzero" cx="120.5" cy="5.5" r="5.5"></circle>
                    <circle id="Oval" fill="#FFFFFF" fill-rule="nonzero" cx="120.5" cy="23.5" r="5.5"></circle>
                    <circle id="Oval" fill="#FFFFFF" fill-rule="nonzero" cx="157.5" cy="29.5" r="5.5"></circle>
                    <circle id="Oval" fill="#FFFFFF" fill-rule="nonzero" cx="83.5" cy="29.5" r="5.5"></circle>
                </g>
            </g>
        </g>
    </g>
</svg>
