<?xml version="1.0" encoding="UTF-8"?>
<svg width="26px" height="48px" viewBox="0 0 26 48" version="1.1" xmlns="http://www.w3.org/2000/svg" xmlns:xlink="http://www.w3.org/1999/xlink">
    <!-- Generator: Sketch 46.2 (44496) - http://www.bohemiancoding.com/sketch -->
    <title>right</title>
    <desc>Created with Sketch.</desc>
    <defs></defs>
    <g id="Page-1" stroke="none" stroke-width="1" fill="none" fill-rule="evenodd">
        <g id="icons" transform="translate(-817.000000, -149.000000)" fill-rule="nonzero" fill="#B4BED0">
            <g id="right" transform="translate(830.000000, 173.000000) scale(-1, 1) translate(-830.000000, -173.000000) translate(817.000000, 149.000000)">
                <path d="M3.23589183,23.5510372 L23.4423787,0.575285067 C23.9672517,0.0520932105 23.9672517,0.915585749 23.4423787,0.392393892 C22.9175056,-0.130797964 23.2107773,-0.130797964 22.6859043,0.392393892 L0.393654783,22.6132405 C-0.131218261,23.1364323 -0.131218261,23.9755136 0.393654783,24.4987055 L22.6859043,46.7096805 C22.9433891,46.9663407 23.2900034,47.1045423 23.6267144,47.1045423 C23.9634254,47.1045423 23.7425151,46.9762122 24,46.7096805 C23.8288285,46.7096805 23.9573484,47.0499812 23.4324754,46.5267893 L3.23589183,23.5510372 Z" id="Shape"></path>
                <path d="M12.5224324,23.5514999 L25.1514867,9.19165484 C25.4795323,8.86465993 25.4795323,9.40434277 25.1514867,9.07734786 C24.823441,8.75035295 25.0067358,8.75035295 24.6786902,9.07734786 L10.7460342,22.965377 C10.4179886,23.2923719 10.4179886,23.8167977 10.7460342,24.1437926 L24.6786902,38.025652 C24.8396182,38.1860646 25.0562521,38.2724406 25.2666965,38.2724406 C25.4771409,38.2724406 25.3390719,38.1922343 25.5,38.025652 C25.3930178,38.025652 25.4733428,38.2383399 25.1452971,37.911345 L12.5224324,23.5514999 Z" id="Shape"></path>
            </g>
        </g>
    </g>
</svg>