<?xml version="1.0"?>
<!--Icons from directory ""-->
<svg xmlns="http://www.w3.org/2000/svg" width="66" height="259" viewBox="0 0 66 259"><svg xmlns:xlink="http://www.w3.org/1999/xlink" height="62" width="62" version="1.1" viewBox="0 0 62 62" id="book" y="0"><title>book</title><desc>Created with Sketch.</desc><g id="book-Page-1" fill-rule="evenodd" fill="none"><g id="book-home-page-copy" transform="translate(-362 -142)"><g id="book-book" transform="translate(362 142)"><path id="book-Path-2" fill="#4FD662" d="m4.8115 27.98c3.2572 0.005 5.2495 0.54 5.9765 1.604s8.605 8.873 23.633 23.426l26.133-26.993-24.857-24.288-3.014 0.0005-3.977 1.8721-23.894 24.378z"/><g fill-rule="nonzero" fill="#696D71"><path id="book-Shape" d="m21.65 20c0.422 0 0.845-0.161 1.167-0.484l0.7-0.7c0.644-0.644 0.644-1.689 0-2.333-0.645-0.644-1.69-0.644-2.334 0.001l-0.7 0.7c-0.644 0.644-0.644 1.689 0 2.333 0.323 0.322 0.745 0.483 1.167 0.483z"/><path id="book-Shape" d="m32.122 53.179l1.137 1.137c0.252 0.252 0.583 0.378 0.913 0.378 0.165 0 0.331-0.032 0.486-0.095 0.156-0.063 0.301-0.157 0.427-0.283l26.537-26.535c0.504-0.505 0.504-1.322 0-1.827l-24.067-24.066c-2.518-2.5174-6.616-2.5174-9.133 0.0002l-26.531 26.53c-0.0019 0.002-0.0035 0.003-0.0054 0.005-0.0035 0.004-0.0071 0.007-0.0104 0.011-0.0375 0.037-0.0738 0.075-0.1062 0.109-0.0355 0.037-0.0702 0.075-0.1049 0.113h-0.0003c-0.0016 0.002-0.003 0.004-0.0044 0.005-0.0367 0.041-0.0726 0.082-0.1081 0.123-0.0081 0.009-0.0146 0.019-0.0224 0.029-0.98856 1.162-1.5287 2.626-1.5287 4.177 0.00015905 1.729 0.66972 3.351 1.8852 4.566l2.7399 2.74-4.247 4.247c-0.36922 0.37-0.47991 0.925-0.27997 1.408 0.19993 0.482 0.67089 0.797 1.1935 0.797h6.0151v6.015c0 0.522 0.3147 0.993 0.7973 1.193 0.1598 0.066 0.3276 0.098 0.4941 0.098 0.3361 0 0.6665-0.131 0.9136-0.378l4.2471-4.247 9.988 9.988h-5.664c-0.713 0-1.291 0.578-1.291 1.291 0 0.714 0.578 1.292 1.291 1.292h25.834c0.713 0 1.291-0.578 1.291-1.292 0-0.713-0.578-1.291-1.291-1.291h-15.668c0.36-2.525 1.761-4.79 3.873-6.238zm-1.874-49.464c1.511-1.5105 3.969-1.5105 5.48 0l23.154 23.152-24.71 24.709-22.24-22.24 6.966-6.965c0.505-0.504 0.505-1.322 0-1.826-0.504-0.505-1.322-0.505-1.826 0l-7.058 7.057c-0.7965-0.527-1.6988-0.868-2.6527-1.001l22.887-22.886zm-20.358 45.929v-4.188c0-0.713-0.5783-1.291-1.2917-1.291h-4.1883l5.6948-5.695 5.481 5.48-5.6958 5.694zm16.019 8.281l-10.323-10.322 1.826-1.827 3.118 3.118c0.252 0.253 0.583 0.379 0.914 0.379 0.33 0 0.661-0.126 0.913-0.379 0.504-0.504 0.504-1.322 0-1.826l-4.03-4.03-0.002-0.002-7.306-7.306c-0.505-0.504-1.3223-0.504-1.8271 0l-2.7398 2.74-2.7399-2.741c-0.7276-0.727-1.1283-1.7-1.1284-2.739 0-1.039 0.4007-2.012 1.1285-2.74l0.0176-0.017c0.7257-0.717 1.6916-1.112 2.7224-1.112 1.0389 0 2.0119 0.401 2.7398 1.129l21.08 21.079c-2.185 1.632-3.722 3.969-4.363 6.596z"/><path id="book-Shape" d="m24.17 52.515c0.324 0.323 0.748 0.485 1.172 0.485 0.425 0 0.849-0.162 1.173-0.486 0.647-0.647 0.647-1.697-0.001-2.344l-0.684-0.685c-0.648-0.647-1.697-0.647-2.345 0.001-0.647 0.647-0.647 1.697 0.001 2.344l0.684 0.685z"/><path id="book-Shape" d="m41.65 41c0.422 0 0.845-0.161 1.167-0.484l0.7-0.7c0.644-0.644 0.644-1.689-0.001-2.333-0.644-0.644-1.689-0.644-2.333 0.001l-0.7 0.7c-0.644 0.644-0.644 1.689 0 2.333 0.323 0.322 0.745 0.483 1.167 0.483z"/><path id="book-Shape" d="m45.235 36c0.316 0 0.632-0.121 0.873-0.362l7.531-7.531c0.481-0.482 0.481-1.263 0-1.746-0.483-0.481-1.264-0.481-1.746 0l-7.531 7.531c-0.483 0.483-0.483 1.264 0 1.746 0.241 0.241 0.557 0.362 0.873 0.362z"/></g></g></g></g></svg><svg xmlns:xlink="http://www.w3.org/1999/xlink" height="69" width="61" version="1.1" viewBox="0 0 61 69" id="fast_delivery" y="62"><title>fast delivery</title><desc>Created with Sketch.</desc><g id="fast_delivery-Page-1" fill-rule="evenodd" fill="none"><g id="fast_delivery-home-page-copy" transform="translate(-214 -138)"><g id="fast_delivery-fast-delivery" transform="translate(214 138)"><path id="fast_delivery-Path-3" fill="#4FD662" d="m24.649 36.916v-5.006h-4.328v-3.453l4.328-6.383-0.521-13.459 6.447-6.9451 6.826 6.9448v13.459l2.953 6.383v3.453h-3.788v4.37l-4.363 2.488 2.921 2.611c1.842-1.435 3.82-1.673 5.936-0.714 3.173 1.438 7.492 6.619 5.749 6.619h-32.587c1.66-3.46 3.31-5.428 4.952-5.905 1.642-0.476 4.035-0.884 7.178-1.223l-1.703-3.24z"/><g fill-rule="nonzero" fill="#696D71"><path id="fast_delivery-Shape" d="m42.942 66.105h-11.017v-3.162c0-0.773-0.627-1.391-1.411-1.391s-1.411 0.618-1.411 1.391v3.162h-11.017c-0.784 0-1.411 0.618-1.411 1.391s0.627 1.392 1.411 1.392h24.871c0.783 0 1.411-0.619 1.411-1.392-0.015-0.773-0.642-1.391-1.426-1.391z"/><path id="fast_delivery-Shape" d="m28.362 38.941c-3.534 0.815-6.271 3.696-6.827 7.279h-5.644c0.585-2.108 2.537-3.654 4.846-3.654 0.784 0 1.411-0.618 1.411-1.391s-0.627-1.391-1.411-1.391c-3.876 0-7.112 2.782-7.739 6.436h-11.131c-0.1425-0.042-0.2707-0.07-0.4275-0.07-0.78389 0-1.411 0.618-1.411 1.391l0.000005 7.589c0 1.756 1.4537 3.19 3.2353 3.19h54.501c1.781 0 3.235-1.434 3.235-3.19v-36.988c0-1.756-1.454-3.19-3.235-3.19h-15.25c-0.784 0-1.411 0.619-1.411 1.392 0 0.772 0.627 1.391 1.411 1.391h15.25c0.228 0 0.413 0.183 0.413 0.407v37.002c0 0.225-0.185 0.407-0.413 0.407h-54.501c-0.2283 0-0.4135-0.182-0.4135-0.407v-6.127h50.91c0.784 0 1.411-0.619 1.411-1.392 0-0.772-0.627-1.391-1.411-1.391h-6.029c-0.627-3.654-3.862-6.436-7.739-6.436-0.784 0-1.411 0.618-1.411 1.391s0.627 1.391 1.411 1.391c2.323 0 4.262 1.546 4.846 3.654h-5.616c-0.598-3.991-3.933-7.111-8.038-7.476-1.696-0.098-2.822 0.183-2.822 0.183zm2.024 2.557c2.922 0 5.359 2.024 5.972 4.722h-11.944c0.599-2.698 3.05-4.722 5.972-4.722z"/><path id="fast_delivery-Shape" d="m19.982 16.344c0-0.773-0.627-1.392-1.411-1.392h-15.307c-1.7818 0-3.2355 1.434-3.2355 3.19l0.000005 24.27c0 0.773 0.6271 1.391 1.411 1.391s1.411-0.618 1.411-1.391v-24.27c0-0.224 0.1852-0.407 0.4133-0.407h15.307c0.784 0 1.411-0.619 1.411-1.391z"/><path id="fast_delivery-Shape" d="m35.759 37.521c0.784 0 1.411-0.618 1.411-1.391v-2.684h3.107c0.784 0 1.411-0.618 1.411-1.391v-2.769c0-0.941-0.271-1.869-0.784-2.67l-2.18-3.386c-0.214-0.324-0.314-0.703-0.314-1.083v-11.115c0-1.6868-0.613-3.3169-1.739-4.5957l-5.216-5.9585c-0.271-0.30916-0.656-0.4778-1.069-0.4778s-0.798 0.18269-1.069 0.49185l-5.159 5.9584c-1.098 1.2789-1.711 2.895-1.711 4.5678v11.045c0 0.422-0.128 0.815-0.37 1.152l-2.323 3.303c-0.599 0.843-0.912 1.827-0.912 2.853v2.684c0 0.773 0.627 1.391 1.411 1.391l2.565 0.014v2.684c0 0.773 0.627 1.391 1.411 1.391s1.411-0.618 1.411-1.391v-2.684l0.014-0.014c0.784 0 1.411-0.618 1.411-1.391s-0.627-1.391-1.411-1.391h-3.99v-1.293c0-0.45 0.142-0.886 0.399-1.265l2.323-3.303c0.57-0.815 0.869-1.756 0.869-2.754v-11.031c0-1.012 0.371-1.996 1.026-2.7549l4.133-4.7358 4.134 4.7218c0.67 0.7729 1.04 1.7569 1.04 2.7689v11.115c0 0.914 0.257 1.799 0.755 2.572l2.181 3.387c0.228 0.351 0.342 0.759 0.342 1.18v1.377h-3.791c-0.784 0-1.411 0.619-1.411 1.392 0 0.506 0.271 0.941 0.684 1.18v2.909c0 0.773 0.641 1.391 1.411 1.391z"/><path id="fast_delivery-Shape" d="m29 33.259v5.429c0 0.674 0.606 1.272 1.409 1.31 0.864 0.038 1.591-0.534 1.591-1.259v-5.48c0-0.7-0.667-1.259-1.5-1.259s-1.5 0.559-1.5 1.259z"/></g></g></g></g></svg><svg xmlns:xlink="http://www.w3.org/1999/xlink" height="62" width="62" version="1.1" viewBox="0 0 62 62" id="free" y="131"><title>free</title><desc>Created with Sketch.</desc><g id="free-Page-1" fill-rule="evenodd" fill="none"><g id="free-home-page-copy" transform="translate(-520 -142)"><g id="free-free" transform="translate(520 142)"><polygon id="free-Path-4" points="37.374 2.5649 29.983 0.7832 14.951 5.7554 6.4189 14.057 2.6362 22.134 1.2583 27.661 1.2583 36.79 3.8525 42.771 7.1978 48.682 12.28 53.792 17.504 57.636 25.04 59.966 31.945 60.792 41.894 59.082 49.733 54.461 57.081 45.96 59.895 39.657 60.989 32.711 60.989 26.931 58.183 24.952 54.904 24.952 55.603 32.711 54.904 38.776 51.453 44.164 47.509 48.682 40.747 53.792 34.404 55.296 31.945 55.296 23.988 54.461 17.504 50.667 9.9292 42.771 6.4189 35.592 7.1978 28.483 7.877 23.876 9.9292 18.212 14.194 13.255 19.702 9.1899 25.04 7.2261 33.096 7.2261 37.374 7.2261" fill="#4FD662"/><g fill-rule="nonzero" fill="#696D71"><path id="free-Shape" d="m21.377 18.924l-0.878-0.925 1.753-1.847 2.632 2.772c0.483 0.509 1.27 0.509 1.753 0 0.484-0.51 0.484-1.338 0-1.847l-3.507-3.695c-0.483-0.509-1.27-0.509-1.753 0l-7.014 7.389c-0.484 0.51-0.484 1.338 0 1.847 0.243 0.254 0.56 0.382 0.878 0.382 0.317 0 0.635-0.125 0.873-0.382l2.631-2.772 0.878 0.925c0.243 0.254 0.561 0.382 0.878 0.382 0.318 0 0.635-0.128 0.876-0.382 0.483-0.509 0.483-1.338 0-1.847z"/><path id="free-Shape" d="m36.363 44.131l3.506 3.507c0.243 0.24 0.56 0.362 0.878 0.362 0.317 0 0.635-0.121 0.878-0.36 0.483-0.483 0.483-1.269 0-1.753l-2.631-2.631 1.753-1.754 0.875 0.876c0.243 0.24 0.56 0.362 0.878 0.362 0.317 0 0.635-0.121 0.875-0.362 0.484-0.484 0.484-1.27 0-1.753l-0.875-0.876 1.753-1.756 2.631 2.632c0.484 0.483 1.27 0.483 1.753 0 0.484-0.484 0.484-1.27 0-1.754l-3.506-3.509c-0.233-0.231-0.548-0.362-0.878-0.362s-0.645 0.129-0.878 0.362l-7.012 7.016c-0.484 0.484-0.484 1.27 0 1.753z"/><path id="free-Shape" d="m30.014 21.363l-3.786 3.484c-0.019 0.017-0.035 0.032-0.054 0.049l-3.78 3.482c-0.525 0.484-0.525 1.27 0 1.753 0.525 0.484 1.378 0.484 1.904 0l1.51-1.391v4.02c0 0.684 0.603 1.24 1.346 1.24 0.744 0 1.347-0.556 1.344-1.24v-4.064c0.703 0.5 1.559 0.771 2.464 0.771 1.079 0 2.095-0.387 2.857-1.089 1.575-1.45 1.575-3.811 0-5.262l-1.904-1.753c-0.525-0.484-1.376-0.484-1.901 0zm1.906 5.262c-0.256 0.233-0.592 0.362-0.953 0.362s-0.697-0.129-0.953-0.365l-0.953-0.875 1.906-1.756 0.953 0.878c0.525 0.486 0.525 1.272 0 1.756z"/><path id="free-Shape" d="m29.365 37.129l3.506 3.509c0.243 0.24 0.56 0.362 0.878 0.362 0.317 0 0.635-0.121 0.878-0.365 0.483-0.483 0.483-1.269 0-1.753l-2.631-2.631 1.75-1.751 0.878 0.878c0.243 0.241 0.561 0.362 0.878 0.362s0.635-0.121 0.875-0.362c0.484-0.483 0.484-1.27 0-1.753l-0.877-0.876 1.755-1.758 2.629 2.631c0.484 0.484 1.27 0.484 1.753 0 0.484-0.483 0.484-1.269 0-1.753l-3.506-3.506c-0.484-0.484-1.27-0.484-1.753 0l-7.013 7.013c-0.487 0.483-0.487 1.269 0 1.753z"/><path id="free-Shape" d="m52.426 14.356c-0.811-0.775-1.63-1.553-2.428-2.351-0.801-0.801-1.584-1.623-2.361-2.439-4.485-4.7042-9.117-9.566-16.637-9.566-17.094 0-31 13.906-31 31s13.906 31 31 31 31-13.906 31-30.997c0-7.533-4.87-12.168-9.574-16.647zm-6.66-3.01c0.793 0.832 1.592 1.669 2.405 2.483 0.812 0.813 1.649 1.606 2.475 2.394 2.529 2.408 4.947 4.754 6.613 7.466-0.762-0.24-1.56-0.421-2.379-0.566-0.039-0.007-0.072-0.015-0.111-0.018-0.312-0.054-0.628-0.108-0.94-0.16-3.247-0.527-6.934-1.126-10.287-4.482s-3.952-7.039-4.479-10.287c-0.192-1.17-0.401-2.3377-0.744-3.4252 2.702 1.6637 5.045 4.0764 7.447 6.5952zm-9.256-2.759c0.561 3.454 1.261 7.753 5.206 11.7 3.944 3.947 8.243 4.645 11.7 5.205 0.051 0.008 0.093 0.016 0.144 0.026 0.432 1.785 0.69 3.619 0.69 5.482 0 12.818-10.429 23.25-23.25 23.25s-23.25-10.432-23.25-23.25 10.429-23.25 23.25-23.25c1.857 0 3.692 0.2583 5.484 0.6923 0.008 0.0517 0.016 0.093 0.026 0.1447zm-5.51 50.83c-15.668 0-28.417-12.749-28.417-28.417 0.0003-15.668 12.749-28.417 28.417-28.417 0.615 0.0003 1.188 0.0726 1.762 0.1475 1.919 0.3333 2.705 1.2995 3.172 2.9683-1.622-0.3152-3.268-0.5322-4.934-0.5322-14.242 0.0001-25.833 11.589-25.833 25.833-0.0003 14.244 11.589 25.833 25.833 25.833s25.833-11.589 25.833-25.833c0-1.669-0.214-3.312-0.529-4.932 1.666 0.468 2.635 1.253 2.965 3.173 0.075 0.571 0.148 1.144 0.148 1.759 0 15.668-12.749 28.417-28.417 28.417z"/></g></g></g></g></svg><svg xmlns:xlink="http://www.w3.org/1999/xlink" height="66" width="66" version="1.1" viewBox="0 0 66 66" id="support" y="193"><title>support</title><desc>Created with Sketch.</desc><g id="support-Page-1" fill-rule="evenodd" fill="none"><g id="support-home-page-copy" transform="translate(-71 -140)"><g id="support-support" transform="translate(71 140)"><polygon id="support-Path-5" points="15 64 15 52.469 15.811 50.363 27.036 45.828 30.015 48.945 31.865 50.867 34.649 50.867 37.977 48.945 40.03 45 45.601 46.85 49 48.945 48.451 50.867 46.435 53.547 46.435 55.651 47.273 57.293 47.273 64 15.811 64" fill="#4FD662"/><g fill-rule="nonzero" fill="#696D71"><path id="support-Shape" d="m1.5098 63h-0.0196c-0.82311 0-1.4902 0.671-1.4902 1.5 0 0.828 0.66709 1.5 1.4902 1.5h0.0196c0.823 0 1.4902-0.671 1.4902-1.5s-0.6672-1.5-1.4902-1.5z"/><path id="support-Shape" d="m64.51 63h-0.02c-0.823 0-1.49 0.671-1.49 1.5 0 0.828 0.667 1.5 1.49 1.5h0.02c0.823 0 1.49-0.671 1.49-1.5s-0.667-1.5-1.49-1.5z"/><path id="support-Shape" d="m38.5 28c-0.827 0-1.5 0.673-1.5 1.5s0.673 1.5 1.5 1.5 1.5-0.673 1.5-1.5-0.673-1.5-1.5-1.5z"/><path id="support-Shape" d="m28.5 28c-0.827 0-1.5 0.673-1.5 1.5s0.673 1.5 1.5 1.5 1.5-0.673 1.5-1.5-0.673-1.5-1.5-1.5z"/><path id="support-Shape" d="m15.579 18h-9.1575c-0.7851 0-1.4215 0.671-1.4215 1.5 0 0.828 0.6363 1.5 1.4215 1.5h9.1575c0.785 0 1.421-0.671 1.421-1.5 0-0.828-0.636-1.5-1.421-1.5z"/><path id="support-Shape" d="m15.579 20h-9.1575c-0.7851 0-1.4215 0.671-1.4215 1.5s0.6363 1.5 1.4215 1.5h9.1575c0.785 0 1.421-0.671 1.421-1.5s-0.636-1.5-1.421-1.5z"/><path id="support-Shape" d="m10.764 23h-4.5278c-0.6827 0-1.2362 0.671-1.2362 1.5s0.5534 1.5 1.2362 1.5h4.5278c0.683 0 1.236-0.671 1.236-1.5s-0.553-1.5-1.236-1.5z"/><path id="support-Shape" d="m64.519 51.203c-2.626-1.61-5.984-2.517-9.463-2.556h-0.03c-1.522 0.017-3.021 0.2-4.446 0.536-0.494-0.446-1.048-0.804-1.635-1.049l-8.668-3.611c-0.308-0.129-0.508-0.428-0.508-0.762v-2.097l3.521-2.019c0.025-0.014 0.049-0.029 0.072-0.044 1.763-1.165 2.921-3.235 3.097-5.539 0.003-0.034 0.022-1.155 0.028-1.23 1.594-0.529 2.781-1.954 2.965-3.674 0.349-1.367 0.526-2.793 0.526-4.238 0-4.71-1.674-9.106-4.715-12.378-1.417-1.525-3.081-2.7404-4.916-3.6166 0.095-0.4758 0.143-0.9605 0.143-1.4508 0-4.1215-3.353-7.4746-7.474-7.4746-4.122 0-7.475 3.3531-7.475 7.4746 0 0.4873 0.048 0.9689 0.142 1.4421-1.842 0.8765-3.513 2.0953-4.935 3.6253-0.078 0.084-0.154 0.169-0.23 0.254h-16.553c-2.1861 0-3.965 1.779-3.965 3.965v9.943c0 2.186 1.7789 3.965 3.9654 3.965h6.1526l3.161 2.221c0.231 0.162 0.502 0.245 0.774 0.245 0.213 0 0.426-0.051 0.621-0.152 0.446-0.232 0.726-0.693 0.726-1.195v-1.119h1.584c0.522 1.022 1.434 1.812 2.54 2.172v1.118c0 0.035 0.001 0.069 0.004 0.103 0.177 2.313 1.326 4.384 3.075 5.538 0.024 0.016 0.049 0.031 0.074 0.046l3.541 2.024v2.091c0 0.334-0.2 0.633-0.508 0.761l-8.669 3.612c-2.268 0.946-3.853 3.439-3.853 6.065v9.107h-7.4734c-0.7439 0-1.347 0.603-1.347 1.347s0.603 1.347 1.347 1.347h54.556c0.744 0 1.347-0.603 1.347-1.347s-0.603-1.347-1.347-1.347h-12.192v-4.42h1.573c1.513 0 2.744-1.231 2.744-2.744v-1.02c1.73-0.255 3.558-0.255 5.289 0v1.02c0 1.513 1.231 2.744 2.744 2.744h1.902v1.681c0 0.744 0.603 1.347 1.347 1.347s1.347-0.603 1.347-1.347v-2.33c0.595-0.504 0.975-1.256 0.975-2.095v-2.503c0-1.019-0.578-1.967-1.481-2.436zm-31.504-48.509c2.636 0 4.781 2.1446 4.781 4.7807 0 0.16-0.008 0.3191-0.024 0.477-1.515-0.432-3.112-0.6555-4.756-0.6555h-0.021c-1.638 0-3.228 0.2214-4.737 0.6497-0.015-0.156-0.023-0.313-0.023-0.4711 0-2.6362 2.144-4.7808 4.78-4.7808zm-16.983 22.227c0 1.033 0.093 2.056 0.272 3.055h-2.251c-0.702 0-1.279 0.537-1.341 1.224l-1.394-0.979c-0.227-0.16-0.497-0.245-0.774-0.245h-6.5786c-0.7012 0-1.2716-0.571-1.2716-1.272v-9.942c0-0.702 0.5705-1.272 1.2716-1.272h14.585c-1.639 2.774-2.518 6.019-2.518 9.431zm16.963-14.931h0.021c8.13 0 14.262 6.4119 14.268 14.917-0.259-0.149-0.533-0.274-0.821-0.368v-1.713c0-0.744-0.603-1.347-1.347-1.347h-9.454v-2.812c0-0.6-0.396-1.127-0.972-1.294s-1.192 0.067-1.513 0.573l-2.236 3.533h-10.07c-0.744 0-1.347 0.603-1.347 1.347v1.713c-0.28 0.091-0.545 0.212-0.797 0.355 0.013-8.499 6.142-14.904 14.268-14.904zm-8.941 27.341c-1.029-0.697-1.712-1.972-1.836-3.426v-2.198c0-0.744-0.603-1.347-1.347-1.347-0.851 0-1.554-0.64-1.656-1.464 0.003-0.078-0.001-0.158-0.013-0.238 0.018-0.906 0.759-1.638 1.669-1.638 0.744 0 1.347-0.603 1.347-1.347v-1.5h9.465c0.462 0 0.891-0.237 1.138-0.627l0.206-0.326c0.169 0.552 0.682 0.953 1.288 0.953h9.454v1.5c0 0.744 0.603 1.347 1.347 1.347 0.921 0 1.67 0.749 1.67 1.67 0 0.548-0.266 1.033-0.674 1.338-0.244-0.244-0.581-0.395-0.953-0.395-0.744 0-1.347 0.603-1.347 1.347v0.67c-0.001 0.019-0.003 0.038-0.003 0.057v0.769c-0.028 1.147-0.969 2.072-2.122 2.072h-3.511c-0.518-1.168-1.688-1.985-3.046-1.985-1.837 0-3.332 1.495-3.332 3.332s1.495 3.332 3.332 3.332c1.358 0 2.528-0.817 3.046-1.985h3.511c0.123 0 0.246-0.006 0.367-0.015-0.047 0.036-0.095 0.071-0.144 0.104l-7.232 4.147c-0.024 0.014-0.048 0.029-0.072 0.045-1.01 0.667-2.215 0.667-3.225 0-0.024-0.016-0.049-0.031-0.074-0.046l-7.253-4.146zm11.714-1.436c0 0.352-0.286 0.638-0.638 0.638-0.351 0-0.638-0.287-0.638-0.638 0-0.352 0.287-0.638 0.638-0.638 0.352 0 0.638 0.286 0.638 0.638zm1.307 7.314v2.76c0 2.24-1.828 4.063-4.075 4.063-2.255 0-4.089-1.823-4.089-4.063v-2.758l1.024 0.585c0.945 0.614 2.002 0.921 3.058 0.921 1.057 0 2.114-0.308 3.06-0.922l1.022-0.586zm8.31 15.264v4.833h-29.503v-9.107c0-1.518 0.944-3.056 2.196-3.578l8.251-3.438c0.577 3.148 3.347 5.543 6.671 5.543 3.317 0 6.083-2.395 6.658-5.543l7.552 3.147c-0.574 0.263-1.126 0.554-1.647 0.873-0.903 0.469-1.481 1.416-1.481 2.436v2.503c0 0.985 0.522 1.847 1.303 2.331zm17.921-2.331c0 0.028-0.022 0.05-0.05 0.05h-2.827c-0.027 0-0.05-0.022-0.05-0.05v-2.146c0-0.636-0.445-1.185-1.067-1.317-1.382-0.294-2.819-0.443-4.271-0.443-1.453 0-2.89 0.149-4.272 0.443-0.622 0.132-1.067 0.681-1.067 1.317v2.146c0 0.028-0.022 0.05-0.05 0.05h-2.829c-0.027-0.001-0.048-0.023-0.048-0.049v-2.503c0-0.029 0.022-0.042 0.029-0.046 0.043-0.02 0.084-0.043 0.124-0.068 2.219-1.373 5.099-2.148 8.113-2.184 3.013 0.036 5.893 0.811 8.112 2.184 0.04 0.025 0.081 0.048 0.124 0.068 0.007 0.004 0.029 0.017 0.029 0.046v2.502z"/><path id="support-Shape" d="m28.511 57h-0.022c-0.822 0-1.489 0.671-1.489 1.5 0 0.828 0.666 1.5 1.489 1.5h0.022c0.822 0 1.489-0.671 1.489-1.5s-0.666-1.5-1.489-1.5z"/><path id="support-Shape" d="m22.78 57h-3.56c-0.674 0-1.22 0.671-1.22 1.5 0 0.828 0.546 1.5 1.22 1.5h3.56c0.674 0 1.22-0.671 1.22-1.5s-0.546-1.5-1.22-1.5z"/></g></g></g></g></svg></svg>
