<?xml version="1.0" encoding="UTF-8"?>
<svg width="50px" height="16px" viewBox="0 0 50 16" version="1.1" xmlns="http://www.w3.org/2000/svg" xmlns:xlink="http://www.w3.org/1999/xlink">
    <!-- Generator: Sketch 46.2 (44496) - http://www.bohemiancoding.com/sketch -->
    <title>visa</title>
    <desc>Created with Sketch.</desc>
    <defs></defs>
    <g id="Page-1" stroke="none" stroke-width="1" fill="none" fill-rule="evenodd">
        <g id="payment" transform="translate(-1148.000000, -390.000000)">
            <g id="card" transform="translate(590.000000, 325.000000)">
                <g id="logos" transform="translate(558.000000, 62.000000)">
                    <g id="visa" transform="translate(0.000000, 3.000000)">
                        <g id="logo">
                            <g id="registered" transform="translate(48.196721, 13.794792)" fill="#0161AB">
                                <path d="M0.126688525,0.91732 C0.126688525,0.46148625 0.486688525,0.092055 0.930491803,0.092055 C1.37508197,0.092055 1.73429508,0.46148625 1.73429508,0.91732 C1.73429508,1.37275 1.37508197,1.742585 0.930491803,1.742585 C0.486688525,1.742585 0.126688525,1.37275 0.126688525,0.91732 L0.126688525,0.91732 Z M0.930491803,1.54394 C1.26885246,1.54394 1.54190164,1.26333375 1.54190164,0.91732 C1.54190164,0.570095 1.26885246,0.29029625 0.930491803,0.29029625 C0.593704918,0.29029625 0.320262295,0.570095 0.320262295,0.91732 C0.320262295,1.26333375 0.593704918,1.54394 0.930491803,1.54394 L0.930491803,1.54394 Z M0.822295082,1.27908 L0.657836066,1.27908 L0.657836066,0.55434875 L0.956065574,0.55434875 C1.01822951,0.55434875 1.08118033,0.55515625 1.1362623,0.59068625 C1.19331148,0.63186875 1.22557377,0.7001025 1.22557377,0.77197 C1.22557377,0.85473875 1.17954098,0.93145125 1.104,0.95971375 L1.23304918,1.27908 L1.05009836,1.27908 L0.943081967,0.99201375 L0.822295082,0.99201375 L0.822295082,1.27908 L0.822295082,1.27908 Z M0.822295082,0.8680625 L0.912786885,0.8680625 C0.947016393,0.8680625 0.983606557,0.8712925 1.0135082,0.85473875 C1.04065574,0.83657 1.05481967,0.802655 1.05481967,0.770355 C1.05481967,0.7437075 1.03829508,0.7114075 1.01508197,0.69727625 C0.985967213,0.679915 0.940327869,0.68354875 0.909639344,0.68354875 L0.822295082,0.68354875 L0.822295082,0.8680625 L0.822295082,0.8680625 Z"></path>
                            </g>
                            <path d="M44.3555695,15.5890204 L43.9002373,13.3276322 L38.9600733,13.3276322 L38.1502416,15.5890204 L34.1004487,15.5890204 L39.8948361,1.49594551 C39.8948361,1.49594551 40.246799,0.361692708 41.6895298,0.361692708 L44.8128041,0.361692708 L47.9233952,15.5890204 L44.3555695,15.5890204 Z M40.0800129,10.203099 L43.2705091,10.203099 L42.1213978,4.50336538 L40.0800129,10.203099 Z" id="a" fill="#0066B2"></path>
                            <path d="M34.4035807,4.02326522 L34.9584771,0.753149038 C34.9584771,0.753149038 33.2468594,0.0892908654 31.4635807,0.0892908654 C29.5350777,0.0892908654 24.955755,0.949200721 24.955755,5.13034255 C24.955755,9.06496394 30.3309577,9.11413862 30.3309577,11.1788281 C30.3309577,13.2448117 25.5100173,12.8760016 23.9182571,11.5728726 L23.3411648,14.9911599 C23.3411648,14.9911599 25.0756126,15.8517167 27.7277006,15.8517167 C30.3785203,15.8517167 34.3801165,14.4502384 34.3801165,10.6385537 C34.3801165,6.67934495 28.956717,6.30988782 28.956717,4.58877404 C28.956717,2.86701322 32.741428,3.08829928 34.4035807,4.02326522" id="s" fill="#0066B2"></path>
                            <polyline id="i" fill="#0066B2" points="20.9465487 15.5890204 17.0610052 15.5890204 19.4892321 0.361692708 23.376044 0.361692708 20.9465487 15.5890204"></polyline>
                            <path d="M0.304905275,0.619722989 C0.380398796,0.635976784 2.22097606,1.04415468 4.36814495,2.35973758 L7.74318378,15.5890204 L11.7917084,15.5890204 L17.9742062,0.361692708 L13.7918723,0.361692708 L10.0877006,10.8352524 L9.64885677,8.5796875 L9.64885677,8.58025366 C9.64885669,8.58033426 9.64885677,8.58033454 9.64885677,8.58033454 L8.34120362,1.73276042 C8.34120362,1.73276042 8.18393011,0.361692708 6.4983132,0.361692708 L3.43623598,0.361692708 L6.4983132,0.361692708 C8.18393011,0.361692708 8.34120362,1.73276042 8.34120362,1.73276042 L9.64885677,8.58033454 L9.64885677,8.58025366 Z" id="v" fill="#0066B2"></path>
                            <path d="M9.64885677,8.58033454 L8.34120362,1.73276042 C8.34120362,1.73276042 8.18393011,0.361692708 6.4983132,0.361692708 L0.374158758,0.361692708 L0.302497843,0.61921274 C0.30313201,0.61921274 3.24693701,1.24166066 6.07025022,3.57292869 C8.76990078,5.80261218 9.64885677,8.58033454 9.64885677,8.58033454" id="shape" fill="#F9A533"></path>
                        </g>
                    </g>
                </g>
            </g>
        </g>
    </g>
</svg>