<?xml version="1.0" encoding="UTF-8"?>
<svg width="29px" height="29px" viewBox="0 0 29 29" version="1.1" xmlns="http://www.w3.org/2000/svg" xmlns:xlink="http://www.w3.org/1999/xlink">
    <!-- Generator: Sketch 48.2 (47327) - http://www.bohemiancoding.com/sketch -->
    <title>out-of-the-maze</title>
    <desc>Created with Sketch.</desc>
    <defs></defs>
    <g id="radon" stroke="none" stroke-width="1" fill="none" fill-rule="evenodd" transform="translate(-792.000000, -235.000000)">
        <g id="out-of-the-maze" transform="translate(792.000000, 235.000000)" fill="#797979" fill-rule="nonzero">
            <path d="M27.6814255,0 L1.31857447,0 C0.589255319,0 0,0.608929266 0,1.35911485 L0,18 C0.368361702,17.7970236 0.783,17.6716745 1.22910638,17.6716745 L2.63591489,17.6716745 L2.63591489,16.9921171 L6.59040426,16.9921171 C6.95506383,16.9921171 7.24938298,16.6873343 7.24938298,16.3125597 C7.24938298,15.937785 6.95444681,15.6330022 6.59040426,15.6330022 L2.63591489,15.6330022 L2.63591489,8.15659797 L7.25,8.15659797 L7.25,12.2345788 C7.25,12.6099897 7.54493617,12.9141362 7.90897872,12.9141362 L11.2044894,12.9141362 C11.5691489,12.9141362 11.8634681,12.6099897 11.8634681,12.2345788 C11.8634681,11.8591679 11.5685319,11.5550214 11.2044894,11.5550214 L8.56857447,11.5550214 L8.56857447,7.47640426 C8.56857447,7.10099332 8.27302128,6.79684683 7.90959574,6.79684683 L2.63591489,6.79684683 L2.63591489,2.71886599 L11.2044894,2.71886599 L11.2044894,8.83551911 C11.2044894,9.21093004 11.4994255,9.51507653 11.8634681,9.51507653 C12.2275106,9.51507653 12.5224468,9.21029375 12.5224468,8.83551911 L12.5224468,2.71886599 L18.7827447,2.71886599 L18.7827447,6.79684683 L16.4763191,6.79684683 C16.1122766,6.79684683 15.8185745,7.10162961 15.8185745,7.47640426 C15.8185745,7.8511789 16.1128936,8.15596168 16.4763191,8.15596168 L22.4077447,8.15596168 C22.7724043,8.15596168 23.0667234,7.8511789 23.0667234,7.47640426 C23.0667234,7.10162961 22.7711702,6.79684683 22.4077447,6.79684683 L20.1013191,6.79684683 L20.1013191,2.71886599 L26.3628511,2.71886599 L26.3628511,7.64247587 C26.4313404,7.68001697 26.5016809,7.71755806 26.5664681,7.76273463 L29,9.43617661 L29,1.35911485 C29,0.608929266 28.4088936,0 27.6814255,0 Z" id="Shape"></path>
            <path d="M26.3641412,14.7674637 L26.3641412,17.6112113 L21.7495372,17.6112113 L21.7495372,14.9317915 C21.7495372,14.5617405 21.4539903,14.2625637 21.0905725,14.2625637 C20.7271547,14.2625637 20.4316078,14.5629949 20.4316078,14.9317915 L20.4316078,22.9713054 C20.4316078,23.3413563 20.7271547,23.6411603 21.0905725,23.6411603 C21.4558414,23.6411603 21.7495372,23.3407291 21.7495372,22.9713054 L21.7495372,18.9521756 L26.3641412,18.9521756 L26.3641412,26.3218346 L15.8182379,26.3218346 L15.8182379,20.9623677 L17.795132,20.9623677 C18.1597838,20.9623677 18.4540967,20.6619365 18.4540967,20.2925127 C18.4540967,19.923089 18.1591668,19.6226578 17.795132,19.6226578 L15.1592732,19.6226578 C14.7946214,19.6226578 14.5003085,19.923089 14.5003085,20.2925127 L14.5003085,22.9713054 L8.56900917,22.9713054 C8.20435735,22.9713054 7.91004447,23.2717366 7.91004447,23.6411603 C7.91004447,24.0105841 8.20497436,24.3110153 8.56900917,24.3110153 L14.4996915,24.3110153 L14.4996915,26.319953 L2.63585881,26.319953 L2.63585881,22.3008232 L1.22908023,22.3008232 C0.782366333,22.3008232 0.367736857,22.1766366 0,21.975931 L0,27.6596629 C-2.74006661e-16,28.400392 0.589242782,29 1.31854641,29 L27.6808366,29 C28.4089062,29 29,28.3997648 29,27.6602901 L29,13 L26.5665199,14.6501764 C26.5005,14.6934535 26.4313951,14.7304586 26.3641412,14.7674637 Z" id="Shape"></path>
            <path d="M28.5582316,9.82861648 L25.9224288,8.15839045 C25.6188673,7.9655819 25.2295434,7.94741453 24.906855,8.11150691 C24.5866346,8.27501325 24.3854942,8.59323526 24.3854942,8.9395874 L24.3854942,9.35802297 L16.5650823,9.35802297 C15.8370282,9.35802297 15.245947,9.91886729 15.245947,10.6098134 L15.245947,14.3657709 L11.2916259,14.3657709 C10.5641888,14.3657709 9.97372452,14.9266152 9.97372452,15.6175613 L9.97372452,17.495833 L1.31851836,17.495833 C0.589230246,17.495833 0,18.0566774 0,18.7476235 C0,19.4391557 0.589230246,20 1.31851836,20 L11.2916259,20 C12.020297,20 12.6101442,19.4391557 12.6101442,18.7476235 L12.6101442,16.8693518 L16.5650823,16.8693518 C17.2931365,16.8693518 17.8823667,16.3085074 17.8823667,15.6175613 L17.8823667,11.8616039 L24.3861112,11.8616039 L24.3861112,12.2794534 C24.3861112,12.6258056 24.5872516,12.9440276 24.907472,13.1075339 C25.0536998,13.1819615 25.2141185,13.2182963 25.3751542,13.2182963 C25.5676567,13.2182963 25.7570742,13.1655523 25.9242798,13.0606504 L28.5594656,11.3904243 C28.8327943,11.2163692 29,10.9233471 29,10.6092274 C28.999383,10.2951077 28.8321774,10.0026716 28.5582316,9.82861648 Z" id="Shape"></path>
        </g>
    </g>
</svg>