<svg width="28" height="30" viewBox="0 0 28 30" xmlns="http://www.w3.org/2000/svg"><title>book-with-bookmark</title><path d="M27.595 5.453l-2.129-.316c-.01-.84.318-1.112.323-1.115a.475.475 0 0 0-.185-.865C24.854 3.033 7.222.115 5.507.01 4.64-.044 4.075.124 3.782.521a.965.965 0 0 0-.183.618L0 24.964l.014.078c.22 1.23 1.258 1.932 2.932 1.996l.495-3.38c-1.918-.397-2.48-1.284-2.48-1.284l.242-1.595c.858.704 1.828 1.024 2.488 1.17L5.905 6.84c-1.933-.396-2.494-1.289-2.494-1.289l.24-1.596c.863.709 1.843 1.03 2.504 1.175l.415-2.825c-1.481-.333-1.928-.827-2-1.089a.442.442 0 0 0-.01-.072l-.002-.015.003-.02-.012-.002-.005-.02c.001-.002.144-.173.906-.128 1.474.091 15.838 2.45 19.269 3.015a2.904 2.904 0 0 0-.196 1.023L12.878 3.269c.647 2.814-.19 5.11-.19 5.11-.198-.555-1.54-1.582-1.54-1.582-1.065 1.073-2.012 1.146-2.012 1.146.55-2.933.277-4.484.003-5.229l-1.635-.243-3.595 24.535c.034-.003.068-.008.092-.011l19.349 3a.471.471 0 0 0 .538-.389l4.105-23.602a.478.478 0 0 0-.398-.551z" fill="#797979"/></svg>