<svg width="27" height="35" viewBox="0 0 27 35" xmlns="http://www.w3.org/2000/svg"><title>analog dev</title><g fill="#797979"><path d="M17.475 11h-7.95C8.133 11 7 12.095 7 13.442v3.116C7 17.905 8.133 19 9.525 19h7.95C18.867 19 20 17.905 20 16.558v-3.116C20 12.095 18.867 11 17.475 11zm-9.12 3.025l1.773-1.715a.605.605 0 0 1 .835 0 .558.558 0 0 1 0 .808L9.19 14.833a.6.6 0 0 1-.417.167.6.6 0 0 1-.418-.167.558.558 0 0 1 0-.808zm1.009 3.832a.6.6 0 0 1-.418-.167.558.558 0 0 1 0-.808l4.727-4.572a.605.605 0 0 1 .836 0 .558.558 0 0 1 0 .808L9.78 17.69a.6.6 0 0 1-.417.167zm3.545 0a.6.6 0 0 1-.418-.167.558.558 0 0 1 0-.808l4.728-4.572a.605.605 0 0 1 .835 0 .558.558 0 0 1 0 .808l-4.727 4.572a.6.6 0 0 1-.418.167zm5.736-1.882l-1.773 1.715a.6.6 0 0 1-.417.167.6.6 0 0 1-.418-.167.558.558 0 0 1 0-.808l1.773-1.715a.605.605 0 0 1 .835 0 .558.558 0 0 1 0 .808z"/><path d="M25.268 11.062l-.012-.02a13.246 13.246 0 0 0-.98-1.538l1.078-1.07a.58.58 0 0 0 0-.825l.636-.633a1.42 1.42 0 0 0 .425-1.016c0-.385-.15-.746-.424-1.017l-1.274-1.265a1.456 1.456 0 0 0-2.047 0l-.636.633a.587.587 0 0 0-.83 0l-1.37 1.36a13.388 13.388 0 0 0-3.399-1.261V2.915a.585.585 0 0 0-.587-.583v-.894C15.848.645 15.2 0 14.401 0H12.6c-.799 0-1.448.645-1.448 1.438v.894a.585.585 0 0 0-.587.583V4.41c-1.2.267-2.348.698-3.417 1.271l-1.38-1.37a.59.59 0 0 0-.83 0L4.3 3.678a1.456 1.456 0 0 0-2.046 0L.979 4.943a1.432 1.432 0 0 0 0 2.033l.638.633a.58.58 0 0 0 0 .824L2.71 9.52a13.288 13.288 0 0 0-.979 1.542C-1.134 16.35-.392 22.943 3.58 27.472l4.424 5.043A7.307 7.307 0 0 0 13.5 35a7.308 7.308 0 0 0 5.497-2.485l4.424-5.043c3.97-4.529 4.713-11.123 1.847-16.41zm-13.53-7.564h3.523v.7a13.457 13.457 0 0 0-1.76-.117c-.595 0-1.183.041-1.762.117v-.7zM5.39 6.81c-.7.531-1.348 1.133-1.935 1.799l-.592-.588 2.49-2.474.758.752H6.11c-.244.162-.483.332-.717.509 0 0-.002 0-.003.002zm8.11 25.255c-1.619 0-2.935-1.308-2.935-2.915s1.317-2.915 2.935-2.915c1.619 0 2.935 1.308 2.935 2.915s-1.316 2.915-2.935 2.915zm7.632-15.317c0 2.016-1.652 3.657-3.683 3.657H9.551c-2.03 0-3.683-1.64-3.683-3.657v-3.18c0-2.016 1.652-3.657 3.683-3.657h7.898c2.03 0 3.683 1.641 3.683 3.658v3.179zm2.4-8.155a13.306 13.306 0 0 0-2.66-2.305l.746-.74 2.49 2.473-.575.572z"/><path d="M13.5 28c-.827 0-1.5.673-1.5 1.5s.673 1.5 1.5 1.5 1.5-.673 1.5-1.5-.673-1.5-1.5-1.5z"/></g></svg>