<svg width="26" height="48" viewBox="0 0 26 48" xmlns="http://www.w3.org/2000/svg"><title>left</title><g fill="#B4BED0"><path d="M3.236 23.551L23.442.575c.525-.523.525.34 0-.183-.524-.523-.231-.523-.756 0L.394 22.613a1.326 1.326 0 0 0 0 1.886l22.292 22.21c.257.257.604.396.94.396.337 0 .117-.129.374-.395-.171 0-.043.34-.568-.183L3.236 23.55z"/><path d="M12.522 23.551l12.63-14.36c.328-.326.328.213 0-.114-.329-.327-.145-.327-.473 0L10.746 22.965a.829.829 0 0 0 0 1.179l13.933 13.882a.84.84 0 0 0 .588.246c.21 0 .072-.08.233-.246-.107 0-.027.212-.355-.115l-12.623-14.36z"/></g></svg>