<svg width="38" height="23" viewBox="0 0 38 23" xmlns="http://www.w3.org/2000/svg"><title>mastercard</title><g fill="none" fill-rule="evenodd"><path d="M22.617 11.46c0 6.33-5.054 11.46-11.288 11.46-6.236 0-11.29-5.13-11.29-11.46C.04 5.13 5.093 0 11.33 0c6.234 0 11.288 5.13 11.288 11.46" fill="#D82332"/><path d="M26.596 0a11.157 11.157 0 0 0-7.58 2.966c-.407.376-.787.782-1.138 1.213h2.28c.312.386.6.79.861 1.214h-4.002c-.24.39-.457.795-.65 1.214h5.302c.182.393.341.797.478 1.213h-6.259c-.13.396-.24.8-.328 1.213h6.915a11.724 11.724 0 0 1-.328 6.067h-6.259c.137.416.297.821.478 1.214h5.303c-.193.419-.41.824-.65 1.214h-4.002c.26.423.549.828.86 1.212h2.28c-.35.433-.73.838-1.14 1.214a11.154 11.154 0 0 0 7.579 2.966c6.235 0 11.289-5.13 11.289-11.46C37.885 5.131 32.83 0 26.595 0" fill="#F1AB3E"/><path d="M36.255 17.756c0-.204.163-.37.365-.37.202 0 .364.166.364.37s-.162.37-.364.37a.368.368 0 0 1-.365-.37zm.365.281a.28.28 0 0 0 .277-.281.279.279 0 0 0-.277-.281.279.279 0 0 0-.278.28.28.28 0 0 0 .278.282zm-.05-.119h-.074v-.324h.135c.028 0 .057 0 .082.015a.1.1 0 0 1 .04.082c0 .037-.02.071-.055.084l.06.143h-.084l-.049-.128h-.055v.128zm0-.184h.042c.015 0 .032.001.045-.006a.045.045 0 0 0 .02-.038.043.043 0 0 0-.02-.033c-.012-.008-.033-.006-.047-.006h-.04v.083z" fill="#F1AB3E"/><path d="M36.255 14.134c0-.205.164-.37.364-.37.202 0 .365.165.365.37 0 .204-.163.37-.365.37a.368.368 0 0 1-.364-.37zm.364.281a.28.28 0 0 0 .278-.28.28.28 0 0 0-.278-.282.28.28 0 0 0-.277.281.28.28 0 0 0 .277.281zm-.049-.12h-.074v-.324h.135c.028 0 .057.001.082.017.026.017.04.049.04.08 0 .038-.02.072-.055.085l.06.143h-.084l-.049-.129h-.055v.129zm0-.183h.041c.015 0 .033.001.046-.006a.047.047 0 0 0 .019-.038.044.044 0 0 0-.018-.034c-.013-.007-.034-.005-.048-.005h-.04v.083z" fill="#FFFFFE"/><path d="M35.1 8.874l-.272 1.68c-.335-.448-.695-.772-1.17-.772-.619 0-1.181.476-1.55 1.177a10.197 10.197 0 0 1-1.043-.292v.004c.04-.392.057-.63.053-.711h-1.126c-.153 1.463-.426 2.945-.638 4.409l-.057.318h1.227c.165-1.091.292-1.998.385-2.716.42-.385.629-.72 1.052-.698a4.11 4.11 0 0 0-.297 1.534c0 1.182.588 1.962 1.48 1.962.449 0 .793-.158 1.13-.522l-.058.44h1.16l.933-5.813H35.1zm-1.533 4.72c-.417 0-.628-.313-.628-.931 0-.93.395-1.588.95-1.588.422 0 .65.325.65.926 0 .937-.401 1.594-.972 1.594zm-5.512-.906a1.995 1.995 0 0 0-.273-.02c-.695 0-1.046.242-1.046.72 0 .294.171.482.439.482.499 0 .86-.483.88-1.182zm.892 2.106H27.93l.023-.49c-.31.387-.723.572-1.284.572-.664 0-1.12-.527-1.12-1.292 0-1.152.792-1.822 2.152-1.822.14 0 .317.013.499.037.038-.157.048-.223.048-.308 0-.312-.213-.429-.786-.429a4.02 4.02 0 0 0-1.297.212l.17-1.063c.611-.182 1.013-.25 1.467-.25 1.052 0 1.61.48 1.609 1.386.002.243-.038.543-.1.937-.106.684-.334 2.153-.365 2.51zm-4.125-4.661c.34 0 .658.09 1.095.313l.2-1.261c-.18-.072-.811-.492-1.346-.492-.82 0-1.514.414-2.002 1.095-.711-.24-1.004.244-1.362.726l-.318.075a2.46 2.46 0 0 0 .039-.476H20c-.153 1.464-.425 2.946-.639 4.41l-.055.318h1.226c.204-1.35.316-2.214.384-2.8l.462-.26c.07-.26.285-.348.718-.337a5.39 5.39 0 0 0-.087.969c0 1.547.823 2.51 2.142 2.51.34 0 .631-.046 1.083-.17l.215-1.325c-.406.202-.739.298-1.04.298-.713 0-1.144-.534-1.144-1.416 0-1.28.64-2.177 1.556-2.177m-5.936 4.551a4.12 4.12 0 0 1-1.25.192c-1.364-.001-2.075-.725-2.075-2.11 0-1.616.904-2.805 2.132-2.805 1.005 0 1.646.666 1.646 1.711 0 .347-.045.685-.15 1.162h-2.426c-.082.686.35.972 1.059.972.436 0 .83-.091 1.267-.298l-.203 1.176zm-.685-2.803c.007-.099.13-.844-.567-.844-.388 0-.665.301-.778.844H18.2zm-3.11 2.907a2.761 2.761 0 0 1-.88.154c-.626 0-.969-.366-.969-1.038-.008-.21.09-.759.169-1.26.07-.443.531-3.227.531-3.227h1.218l-.142.716h.625l-.166 1.136h-.628c-.141.9-.343 2.018-.345 2.167 0 .244.128.35.42.35.14 0 .247-.014.33-.044l-.163 1.046m-4.775-3.228c0 .6.286 1.01.934 1.321.496.237.573.307.573.522 0 .294-.22.427-.704.427-.366 0-.706-.057-1.099-.186l-.168 1.091c.279.062.527.119 1.275.14 1.294 0 1.891-.5 1.891-1.58 0-.65-.25-1.03-.864-1.316-.514-.24-.573-.293-.573-.514 0-.256.204-.387.6-.387.24 0 .57.027.88.071l.175-1.096a8.221 8.221 0 0 0-1.079-.092c-1.37 0-1.845.727-1.84 1.6m-1.528 1.127a2.008 2.008 0 0 0-.274-.02c-.694 0-1.046.242-1.046.72 0 .294.172.482.44.482.499 0 .859-.483.88-1.182zm.891 2.106H8.664l.023-.49c-.31.387-.723.572-1.284.572-.665 0-1.12-.527-1.12-1.292 0-1.152.792-1.822 2.152-1.822.139 0 .317.013.5.037a1.22 1.22 0 0 0 .047-.308c0-.312-.213-.429-.786-.429a4.016 4.016 0 0 0-1.297.212l.17-1.063c.61-.182 1.013-.25 1.467-.25 1.052 0 1.61.48 1.608 1.386.003.243-.037.543-.099.937-.106.684-.335 2.153-.366 2.51zm-4.012.073H4.442l.702-4.468-1.568 4.468h-.835l-.103-4.442-.738 4.442H.753l.958-5.812h1.762l.05 3.598 1.189-3.598h1.903l-.948 5.812" fill="#0C2D5A"/><path d="M35.863 14.505h-1.159l.058-.44c-.337.365-.681.522-1.13.522-.891 0-1.48-.779-1.48-1.961 0-1.573.913-2.898 1.994-2.898.475 0 .835.197 1.17.645l.272-1.68h1.209l-.934 5.812zm-1.808-1.092c.571 0 .972-.657.972-1.593 0-.6-.228-.927-.65-.927-.555 0-.95.659-.95 1.589 0 .618.212.931.628.931zM30.349 9.65c-.153 1.462-.426 2.944-.64 4.408l-.055.318h1.226c.438-2.89.544-3.455 1.232-3.384.11-.592.313-1.11.465-1.371-.513-.109-.8.186-1.176.745.03-.242.084-.477.074-.717h-1.126m-1.938 2.677a1.995 1.995 0 0 0-.272-.02c-.695 0-1.046.242-1.046.72 0 .293.171.482.439.482.499 0 .859-.483.88-1.182zm.893 2.105h-1.016l.023-.49c-.31.387-.723.572-1.284.572-.665 0-1.12-.527-1.12-1.291 0-1.152.792-1.822 2.152-1.822.139 0 .317.013.499.037.038-.157.048-.223.048-.308 0-.313-.213-.43-.786-.43a4.02 4.02 0 0 0-1.297.213l.17-1.063c.61-.182 1.013-.25 1.467-.25 1.052 0 1.61.48 1.608 1.386.003.243-.037.543-.099.936-.106.684-.334 2.154-.365 2.51zm-2.857-5.617l-.2 1.261c-.438-.223-.755-.314-1.096-.314-.915 0-1.556.898-1.556 2.179 0 .882.431 1.415 1.144 1.415.301 0 .635-.095 1.04-.298l-.215 1.324c-.451.125-.743.17-1.083.17-1.32 0-2.141-.963-2.141-2.509 0-2.078 1.136-3.53 2.76-3.53.535 0 1.167.23 1.347.302m-6.087.836c-.155 1.462-.428 2.944-.64 4.408l-.057.318h1.227c.438-2.89.544-3.455 1.23-3.384.11-.592.315-1.11.466-1.371-.513-.109-.8.186-1.175.745.03-.242.084-.477.073-.717H20.36m-1.118 4.673a4.12 4.12 0 0 1-1.25.191c-1.364 0-2.075-.724-2.075-2.108 0-1.617.904-2.807 2.131-2.807 1.006 0 1.647.667 1.647 1.712 0 .346-.045.685-.15 1.162h-2.426c-.083.686.35.972 1.059.972a2.86 2.86 0 0 0 1.267-.298l-.203 1.176zm-.685-2.803c.007-.099.13-.844-.567-.844-.388 0-.665.3-.778.844h1.345zm-3.11 2.907a2.761 2.761 0 0 1-.88.153c-.627 0-.969-.365-.969-1.038-.008-.21.09-.758.168-1.26.071-.442.532-3.226.532-3.226h1.218l-.142.715h.625l-.166 1.136h-.628c-.141.9-.343 2.02-.346 2.168 0 .244.129.35.42.35.14 0 .248-.014.33-.045l-.162 1.047m-4.775-3.227c0 .598.286 1.01.934 1.32.496.237.572.307.572.522 0 .294-.218.427-.703.427-.366 0-.706-.057-1.099-.186l-.168 1.091c.279.062.527.118 1.275.14 1.294 0 1.891-.5 1.891-1.58 0-.65-.25-1.03-.864-1.317-.514-.24-.573-.293-.573-.514 0-.255.204-.387.6-.387.24 0 .57.028.88.072l.175-1.096a8.221 8.221 0 0 0-1.079-.093c-1.37 0-1.845.727-1.841 1.6m-1.527 1.128a2.008 2.008 0 0 0-.274-.02c-.694 0-1.046.242-1.046.72 0 .293.172.482.44.482.499 0 .859-.483.88-1.182zm.891 2.105H9.021l.023-.49c-.31.387-.723.572-1.285.572-.664 0-1.119-.527-1.119-1.291 0-1.152.792-1.822 2.152-1.822.139 0 .317.013.5.037a1.22 1.22 0 0 0 .047-.308c0-.313-.213-.43-.786-.43a4.016 4.016 0 0 0-1.297.213l.17-1.063c.61-.182 1.013-.25 1.467-.25 1.052 0 1.61.48 1.608 1.386.002.243-.037.543-.099.936-.106.684-.335 2.154-.366 2.51zm-4.012.074H4.799l.702-4.468-1.568 4.468h-.835l-.104-4.442-.737 4.442H1.109l.959-5.812H3.83l.05 3.598 1.188-3.598h1.904l-.948 5.812" fill="#FFFFFE"/></g></svg>