<svg width="22" height="25" viewBox="0 0 22 25" xmlns="http://www.w3.org/2000/svg"><title>pdf</title><g fill="none"><path d="M1.571 0h13.352L22 7.01v16.428C22 24.3 21.296 25 20.429 25H1.57C.704 25 0 24.3 0 23.438V1.562C0 .7.704 0 1.571 0z" fill="#E2574C"/><path d="M22 7h-5.44A1.56 1.56 0 0 1 15 5.441V0l7 7z" fill="#B53629"/><path d="M16.608 11.96c.263 0 .392-.243.392-.48 0-.244-.135-.48-.392-.48h-1.501c-.293 0-.457.258-.457.543v3.914c0 .35.187.543.44.543.252 0 .44-.194.44-.543v-1.074h.908c.281 0 .422-.245.422-.488 0-.238-.14-.474-.422-.474h-.908v-1.46h1.078zM11.536 11h-1.098c-.298 0-.51.217-.51.54v3.92c0 .4.305.526.522.526h1.153c1.363 0 2.264-.953 2.264-2.423-.001-1.554-.849-2.563-2.331-2.563zm.052 4.02h-.669v-3.053h.603c.914 0 1.31.65 1.31 1.548 0 .84-.39 1.504-1.244 1.504zM7.567 11H6.479c-.308 0-.479.215-.479.543v3.914c0 .35.197.543.46.543.265 0 .462-.194.462-.543v-1.143h.681c.842 0 1.536-.632 1.536-1.65 0-.996-.67-1.664-1.572-1.664zm-.018 2.396h-.627V11.92h.627c.386 0 .633.32.633.74-.001.417-.247.737-.633.737z" fill="#FFF"/></g></svg>