<svg width="24" height="35" viewBox="0 0 24 35" xmlns="http://www.w3.org/2000/svg"><title>paper-bag</title><path d="M23.014 8.216L23 8.22l.004-.009L20.059 7l-.75.106c-.79-3.452-2.891-5.864-5.43-5.864-.299 0-.589.044-.875.109C12.086.49 10.94 0 9.607 0 5.74 0 3.864 5.019 3.837 9.483l-3.526.541L0 33.018 4.762 35 24 32.095l-.986-23.879zM16.88 7.48l-1.462.224c-.055-1.44-.322-2.747-.77-3.86.92.483 1.786 1.8 2.232 3.636zm-3.898.6l-2.288.352c.254-1.732.87-3.11 1.61-3.935.43.96.665 2.196.678 3.583zm-4.87 2.226l-4.113.573-2.595-.446L8.139 9.42c-.012.244-.03.486-.03.738-.001.049.003.098.003.148zm-1.809-1.2C6.456 5.507 7.85 2.39 9.606 2.39c.404 0 .777.095 1.116.268-1.356 1.348-2.302 3.555-2.546 6.16l-1.874.287zm3.355 4.69c-.804 0-1.456-.636-1.456-1.42 0-.785.652-1.42 1.456-1.42.803 0 1.455.635 1.455 1.42 0 .784-.652 1.42-1.455 1.42zm.908-3.835c.004-.316.022-.622.05-.92l6.394-.979c.057.314.103.569.134.907l-6.578.992zm8.44 2.415c-.804 0-1.457-.636-1.457-1.42 0-.784.653-1.418 1.456-1.418.804 0 1.455.634 1.455 1.418 0 .784-.651 1.42-1.455 1.42zm.565-3.746c-.036-.344-.124-.65-.183-.978l.61-.121 1.878.78-2.305.319z" fill="#797979"/></svg>