<svg width="243" height="74" viewBox="0 0 243 74" xmlns="http://www.w3.org/2000/svg"><title>radon_logo</title><g fill="none" fill-rule="evenodd"><path d="M10.874 44a9.61 9.61 0 0 1 2.519.325 6.174 6.174 0 0 1 2.081.988 4.787 4.787 0 0 1 1.422 1.709 5.37 5.37 0 0 1 .526 2.459 5.788 5.788 0 0 1-1.059 3.469 4.842 4.842 0 0 1-3.14 1.882v.057a4.886 4.886 0 0 1 1.755.541 3.5 3.5 0 0 1 1.133 1.017c.304.437.52.927.637 1.442.137.576.224 1.163.26 1.753 0 .35.02.781.059 1.29.04.51.079 1.025.118 1.544.058.487.155.97.29 1.442.093.391.273.757.525 1.075h-2.23a2.527 2.527 0 0 1-.289-.721c-.07-.29-.12-.584-.148-.88-.03-.303-.054-.601-.074-.894a39.63 39.63 0 0 0-.059-.765 30.172 30.172 0 0 0-.2-2.221 5.964 5.964 0 0 0-.57-1.969 3.507 3.507 0 0 0-1.267-1.399 3.916 3.916 0 0 0-2.282-.468h-7.83V65H1V44h9.874zm-.148 9.966a5.632 5.632 0 0 0 1.785-.28 4.479 4.479 0 0 0 1.482-.809c.424-.353.77-.787 1.014-1.276.261-.538.39-1.128.378-1.724a4.069 4.069 0 0 0-1.148-3.057 4.855 4.855 0 0 0-3.504-1.118H3.052v8.264h7.674zM31.74 44L40 65h-2.17l-2.567-6.526h-9.598L23.126 65H21l8.462-21h2.278zm2.893 12.764l-4.072-10.766-4.216 10.766h8.288zM52.31 44c3.216.077 5.633.974 7.253 2.69S61.995 51.01 62 54.5c0 3.49-.812 6.094-2.437 7.81-1.624 1.716-4.042 2.613-7.252 2.69H45V44h7.31zm-1.008 19.29a13.921 13.921 0 0 0 3.917-.482 6.282 6.282 0 0 0 2.705-1.544 6.345 6.345 0 0 0 1.567-2.733c.67-2.644.67-5.411 0-8.055a6.345 6.345 0 0 0-1.567-2.733A6.282 6.282 0 0 0 55.22 46.2a13.927 13.927 0 0 0-3.917-.484h-4.286v17.59l4.286-.015zm16.322-12.452a10.42 10.42 0 0 1 1.874-3.51 9.014 9.014 0 0 1 3.135-2.425 11.053 11.053 0 0 1 8.749 0 9.058 9.058 0 0 1 3.12 2.426 10.43 10.43 0 0 1 1.874 3.509 14.291 14.291 0 0 1 0 8.354 10.26 10.26 0 0 1-1.874 3.494 9.131 9.131 0 0 1-3.12 2.412 11.06 11.06 0 0 1-8.75 0 9.088 9.088 0 0 1-3.134-2.412 10.253 10.253 0 0 1-1.874-3.494 14.291 14.291 0 0 1 0-8.354zm1.881 7.57a9.089 9.089 0 0 0 1.458 2.992 7.174 7.174 0 0 0 2.48 2.122 7.678 7.678 0 0 0 3.644.799 7.59 7.59 0 0 0 3.646-.8 7.218 7.218 0 0 0 2.464-2.12 9.103 9.103 0 0 0 1.458-2.994 12.77 12.77 0 0 0 0-6.8 9.133 9.133 0 0 0-1.458-2.978 7.225 7.225 0 0 0-2.464-2.121 7.59 7.59 0 0 0-3.646-.8 7.678 7.678 0 0 0-3.645.8 7.182 7.182 0 0 0-2.479 2.121 9.118 9.118 0 0 0-1.458 2.979 12.77 12.77 0 0 0 0 6.8zM95.296 44l12.593 17.762h.06V44H110v21h-2.296L95.11 47.238h-.06V65H93V44zm24.605 0l6.937 18.411L134.02 44H137v21h-1.99V46.849h-.057l-7.145 18.144h-1.874l-6.887-18.144h-.058v18.144H117V44zm38.944 0v1.707h-12.793v7.576h11.981v1.728h-11.98v8.282H159V65h-15V44zm20.155.007v1.709h-7.51V65h-2.061V45.709H162V44zM198.845 44v1.707h-12.793v7.576h11.981v1.728h-11.98v8.282H199V65h-15V44zm16.035 0c.85-.004 1.7.105 2.52.325a6.136 6.136 0 0 1 2.078.988 4.778 4.778 0 0 1 1.42 1.709c.368.769.547 1.61.525 2.459a5.795 5.795 0 0 1-1.057 3.469 4.833 4.833 0 0 1-3.135 1.882v.057c.614.068 1.21.252 1.752.541.45.254.836.601 1.131 1.017.304.437.52.927.636 1.442.137.576.224 1.163.26 1.753 0 .35.019.781.058 1.29l.119 1.544c.057.487.154.97.288 1.442.094.391.273.757.525 1.075h-2.263a2.516 2.516 0 0 1-.288-.721c-.07-.29-.12-.584-.148-.88a29.71 29.71 0 0 1-.074-.894c-.02-.294-.04-.548-.06-.765a30.223 30.223 0 0 0-.199-2.22 5.971 5.971 0 0 0-.57-1.97 3.498 3.498 0 0 0-1.264-1.399 3.904 3.904 0 0 0-2.277-.468h-7.787V65H205V44h9.88zm-.149 9.966a5.614 5.614 0 0 0 1.782-.28 4.469 4.469 0 0 0 1.48-.809 3.966 3.966 0 0 0 1.012-1.276c.26-.538.39-1.128.377-1.724a4.073 4.073 0 0 0-1.146-3.057 4.833 4.833 0 0 0-3.497-1.118h-7.669v8.264h7.661zm13.928 7.358a4.485 4.485 0 0 0 1.49 1.749 6.344 6.344 0 0 0 2.234.93c.918.192 1.855.287 2.794.282a8.098 8.098 0 0 0 1.854-.24 6.55 6.55 0 0 0 1.87-.725 4.711 4.711 0 0 0 1.445-1.329 3.313 3.313 0 0 0 .581-1.967 2.846 2.846 0 0 0-.41-1.538 3.67 3.67 0 0 0-1.065-1.096 6.364 6.364 0 0 0-1.445-.726 14.477 14.477 0 0 0-1.55-.458l-4.826-1.154a14.672 14.672 0 0 1-1.84-.595 5.238 5.238 0 0 1-1.564-.943 4.5 4.5 0 0 1-1.08-1.452 4.861 4.861 0 0 1-.41-2.105c.017-.613.12-1.221.306-1.808a4.985 4.985 0 0 1 1.14-1.952 6.657 6.657 0 0 1 2.293-1.553 9.407 9.407 0 0 1 3.725-.64 11.18 11.18 0 0 1 3.069.415 7.64 7.64 0 0 1 2.547 1.24c1.561 1.17 2.453 2.997 2.399 4.915h-2.064a4.815 4.815 0 0 0-.558-2.12 4.758 4.758 0 0 0-1.304-1.51 5.779 5.779 0 0 0-1.855-.914 7.714 7.714 0 0 0-2.234-.312 9.308 9.308 0 0 0-2.049.225 5.195 5.195 0 0 0-1.728.726c-.5.328-.91.769-1.199 1.284a3.95 3.95 0 0 0-.454 1.982c-.01.442.08.88.26 1.285.176.359.43.676.745.929.313.263.668.474 1.05.624.408.162.83.29 1.26.385l5.288 1.27c.743.188 1.47.43 2.175.726a7.247 7.247 0 0 1 1.795 1.067c.517.425.931.955 1.214 1.553.312.7.462 1.459.44 2.221a7.65 7.65 0 0 1-.075.944 4.697 4.697 0 0 1-.365 1.256 6.255 6.255 0 0 1-.819 1.35 5.116 5.116 0 0 1-1.49 1.226 8.585 8.585 0 0 1-2.294.886 13.68 13.68 0 0 1-3.277.341 14.008 14.008 0 0 1-3.554-.428 7.728 7.728 0 0 1-2.793-1.314 5.826 5.826 0 0 1-1.78-2.28 7.296 7.296 0 0 1-.529-3.345h2.063a5.816 5.816 0 0 0 .574 2.693zM0 36h242v1H0zm0 37h242v1H0z" fill="#000" fill-rule="nonzero"/><path d="M38 36C85.486-4 154.514-4 202 36M71 36c14.023-8.197 31.091-13 49.5-13s35.477 4.81 49.5 13" stroke="#000"/><circle fill="#83CEFF" fill-rule="nonzero" cx="120.5" cy="5.5" r="5.5"/><circle fill="#83CEFF" fill-rule="nonzero" cx="120.5" cy="23.5" r="5.5"/><circle fill="#83CEFF" fill-rule="nonzero" cx="157.5" cy="29.5" r="5.5"/><circle fill="#83CEFF" fill-rule="nonzero" cx="83.5" cy="29.5" r="5.5"/></g></svg>