<svg width="26" height="48" viewBox="0 0 26 48" xmlns="http://www.w3.org/2000/svg"><title>right</title><g fill="#B4BED0"><path d="M22.764 23.551L2.558.575c-.525-.523-.525.34 0-.183.524-.523.231-.523.756 0l22.292 22.221a1.326 1.326 0 0 1 0 1.886L3.314 46.709a1.348 1.348 0 0 1-.94.396c-.337 0-.117-.129-.374-.395.171 0 .043.34.568-.183L22.764 23.55z"/><path d="M13.478 23.551L.848 9.191c-.328-.326-.328.213 0-.114.329-.327.145-.327.473 0l13.933 13.888a.829.829 0 0 1 0 1.179L1.321 38.026a.842.842 0 0 1-.588.246c-.21 0-.072-.08-.233-.246.107 0 .027.212.355-.115l12.623-14.36z"/></g></svg>