<svg xmlns="http://www.w3.org/2000/svg" width="66" height="259" viewBox="0 0 66 259"><svg xmlns:xlink="http://www.w3.org/1999/xlink" height="62" width="62" viewBox="0 0 62 62"><title>book</title><g fill-rule="evenodd" fill="none"><path fill="#4FD662" d="M4.811 27.98c3.258.005 5.25.54 5.977 1.604s8.605 8.873 23.633 23.426l26.133-26.993L35.697 1.729h-3.014l-3.977 1.873L4.812 27.98z"/><g fill-rule="nonzero" fill="#696D71"><path d="M21.65 20c.422 0 .845-.161 1.167-.484l.7-.7a1.65 1.65 0 1 0-2.334-2.332l-.7.7A1.65 1.65 0 0 0 21.65 20z"/><path d="M32.122 53.179l1.137 1.137a1.288 1.288 0 0 0 1.826 0l26.537-26.535a1.293 1.293 0 0 0 0-1.827L37.555 1.888a6.466 6.466 0 0 0-9.133 0L1.891 28.418l-.005.005c-.004.004-.008.007-.01.011a4.947 4.947 0 0 0-.212.222l-.005.005a9.916 9.916 0 0 0-.108.123l-.022.03A6.409 6.409 0 0 0 0 32.99c0 1.73.67 3.351 1.885 4.566l2.74 2.74-4.247 4.247a1.293 1.293 0 0 0 .914 2.205h6.015v6.015a1.292 1.292 0 0 0 2.205.913l4.247-4.247 9.988 9.988h-5.664a1.291 1.291 0 1 0 0 2.583h25.834a1.291 1.291 0 0 0 0-2.583H28.249a9.124 9.124 0 0 1 3.873-6.238zM30.248 3.715a3.88 3.88 0 0 1 5.48 0l23.154 23.152-24.71 24.709-22.24-22.24 6.966-6.965a1.29 1.29 0 0 0 0-1.826 1.29 1.29 0 0 0-1.826 0l-7.058 7.057a6.396 6.396 0 0 0-2.653-1.001L30.248 3.715zM9.89 49.644v-4.188c0-.713-.578-1.291-1.292-1.291H4.41l5.695-5.695 5.48 5.48-5.695 5.694zm16.019 8.281L15.586 47.603l1.826-1.827 3.118 3.118c.252.253.583.379.914.379a1.292 1.292 0 0 0 .913-2.205l-4.03-4.03-.002-.002-7.306-7.306a1.293 1.293 0 0 0-1.827 0l-2.74 2.74-2.74-2.741a3.844 3.844 0 0 1-1.128-2.739c0-1.039.4-2.012 1.128-2.74l.018-.017a3.846 3.846 0 0 1 2.722-1.112c1.04 0 2.012.401 2.74 1.129l21.08 21.079a11.695 11.695 0 0 0-4.363 6.596z"/><path d="M24.17 52.515a1.655 1.655 0 0 0 2.345-.001 1.657 1.657 0 0 0-.001-2.344l-.684-.685a1.658 1.658 0 0 0-2.344 2.345l.684.685zM41.65 41c.422 0 .845-.161 1.167-.484l.7-.7a1.65 1.65 0 1 0-2.334-2.332l-.7.7A1.65 1.65 0 0 0 41.65 41zm3.585-5c.316 0 .632-.121.873-.362l7.531-7.531a1.237 1.237 0 0 0 0-1.746 1.237 1.237 0 0 0-1.746 0l-7.531 7.531A1.233 1.233 0 0 0 45.235 36z"/></g></g></svg><svg xmlns:xlink="http://www.w3.org/1999/xlink" height="69" width="61" viewBox="0 0 61 69" y="62"><title>fast delivery</title><g fill-rule="evenodd" fill="none"><path fill="#4FD662" d="M24.649 36.916V31.91h-4.328v-3.453l4.328-6.383-.521-13.459 6.447-6.945 6.826 6.945v13.459l2.953 6.383v3.453h-3.788v4.37l-4.363 2.488 2.921 2.61c1.842-1.434 3.82-1.672 5.936-.713 3.173 1.438 7.492 6.619 5.749 6.619H14.222c1.66-3.46 3.31-5.428 4.952-5.905 1.642-.476 4.035-.884 7.178-1.223l-1.703-3.24z"/><g fill-rule="nonzero" fill="#696D71"><path d="M42.942 66.105H31.925v-3.162c0-.773-.627-1.391-1.411-1.391s-1.411.618-1.411 1.391v3.162H18.086c-.784 0-1.411.618-1.411 1.391s.627 1.392 1.411 1.392h24.871c.783 0 1.411-.619 1.411-1.392a1.418 1.418 0 0 0-1.426-1.391zm-14.58-27.164c-3.534.815-6.271 3.696-6.827 7.279h-5.644a5.022 5.022 0 0 1 4.846-3.654c.784 0 1.411-.618 1.411-1.391s-.627-1.391-1.411-1.391c-3.876 0-7.112 2.782-7.739 6.436H1.867a1.395 1.395 0 0 0-1.839 1.321v7.589c0 1.756 1.454 3.19 3.236 3.19h54.5c1.782 0 3.236-1.434 3.236-3.19V18.142c0-1.756-1.454-3.19-3.235-3.19h-15.25c-.784 0-1.411.619-1.411 1.392 0 .772.627 1.391 1.41 1.391h15.25a.41.41 0 0 1 .414.407v37.002a.41.41 0 0 1-.413.407H3.264a.41.41 0 0 1-.414-.407v-6.127h50.91c.784 0 1.411-.619 1.411-1.392 0-.772-.627-1.391-1.41-1.391h-6.03c-.627-3.654-3.862-6.436-7.739-6.436-.784 0-1.41.618-1.41 1.391s.626 1.391 1.41 1.391a5.009 5.009 0 0 1 4.846 3.654h-5.616c-.598-3.991-3.933-7.111-8.038-7.476-1.696-.098-2.822.183-2.822.183zm2.024 2.557c2.922 0 5.359 2.024 5.972 4.722H24.414c.599-2.698 3.05-4.722 5.972-4.722zM19.982 16.344c0-.773-.627-1.392-1.411-1.392H3.264c-1.782 0-3.236 1.434-3.236 3.19v24.27c0 .773.628 1.391 1.412 1.391s1.41-.618 1.41-1.391v-24.27a.41.41 0 0 1 .414-.407H18.57c.784 0 1.41-.619 1.41-1.391z"/><path d="M35.759 37.521c.784 0 1.411-.618 1.411-1.391v-2.684h3.107c.784 0 1.411-.618 1.411-1.391v-2.769c0-.941-.271-1.869-.784-2.67l-2.18-3.386a1.958 1.958 0 0 1-.314-1.083V11.032a6.945 6.945 0 0 0-1.739-4.596L31.455.478a1.42 1.42 0 0 0-2.138.014L24.158 6.45a7.018 7.018 0 0 0-1.711 4.568v11.045c0 .422-.128.815-.37 1.152l-2.323 3.303a4.892 4.892 0 0 0-.912 2.853v2.684c0 .773.627 1.391 1.411 1.391l2.565.014v2.684c0 .773.627 1.391 1.411 1.391s1.411-.618 1.411-1.39V33.46l.014-.014c.784 0 1.411-.618 1.411-1.39s-.627-1.392-1.411-1.392h-3.99v-1.293c0-.45.142-.886.399-1.265l2.323-3.303c.57-.815.869-1.756.869-2.754V11.02c0-1.013.371-1.997 1.026-2.756l4.133-4.736 4.134 4.722a4.233 4.233 0 0 1 1.04 2.77v11.114c0 .914.257 1.8.755 2.572l2.181 3.387c.228.351.342.76.342 1.18v1.377h-3.791c-.784 0-1.411.62-1.411 1.392 0 .506.271.941.684 1.18v2.91c0 .772.641 1.39 1.411 1.39z"/><path d="M29 33.259v5.429c0 .674.606 1.272 1.409 1.31.864.038 1.591-.534 1.591-1.259v-5.48c0-.7-.667-1.259-1.5-1.259s-1.5.559-1.5 1.259z"/></g></g></svg><svg xmlns:xlink="http://www.w3.org/1999/xlink" height="62" width="62" viewBox="0 0 62 62" y="131"><title>free</title><g fill-rule="evenodd" fill="none"><path fill="#4FD662" d="M37.374 2.565L29.983.783 14.951 5.755l-8.532 8.302-3.783 8.077-1.378 5.527v9.129l2.595 5.981 3.345 5.911 5.082 5.11 5.224 3.844 7.536 2.33 6.905.826 9.949-1.71 7.839-4.621 7.348-8.501 2.814-6.303 1.094-6.946v-5.78l-2.806-1.979h-3.279l.699 7.759-.699 6.065-3.451 5.388-3.944 4.518-6.762 5.11-6.343 1.504h-2.459l-7.957-.835-6.484-3.794-7.575-7.896-3.51-7.179.779-7.109.679-4.607 2.052-5.664 4.265-4.957 5.508-4.065 5.338-1.964h12.334z"/><g fill-rule="nonzero" fill="#696D71"><path d="M21.377 18.924l-.878-.925 1.753-1.847 2.632 2.772c.483.509 1.27.509 1.753 0a1.356 1.356 0 0 0 0-1.847l-3.507-3.695a1.197 1.197 0 0 0-1.753 0l-7.014 7.389a1.356 1.356 0 0 0 0 1.847c.243.254.56.382.878.382.317 0 .635-.125.873-.382l2.631-2.772.878.925c.243.254.561.382.878.382.318 0 .635-.128.876-.382a1.358 1.358 0 0 0 0-1.847zm14.986 25.207l3.506 3.507a1.247 1.247 0 0 0 1.756.002 1.242 1.242 0 0 0 0-1.753l-2.631-2.631 1.753-1.754.875.876c.243.24.56.362.878.362a1.24 1.24 0 0 0 .875-2.115l-.875-.876 1.753-1.756 2.631 2.632a1.24 1.24 0 0 0 1.753-1.754l-3.506-3.509a1.247 1.247 0 0 0-1.756 0l-7.012 7.016a1.24 1.24 0 0 0 0 1.753zm-6.349-22.768l-3.786 3.484-.054.049-3.78 3.482a1.172 1.172 0 0 0 0 1.753 1.43 1.43 0 0 0 1.904 0l1.51-1.391v4.02c0 .684.603 1.24 1.346 1.24.744 0 1.347-.556 1.344-1.24v-4.064c.703.5 1.559.771 2.464.771 1.079 0 2.095-.387 2.857-1.089 1.575-1.45 1.575-3.811 0-5.262l-1.904-1.753a1.426 1.426 0 0 0-1.901 0zm1.906 5.262c-.256.233-.592.362-.953.362s-.697-.129-.953-.365l-.953-.875 1.906-1.756.953.878a1.176 1.176 0 0 1 0 1.756zm-2.555 10.504l3.506 3.509c.243.24.56.362.878.362a1.242 1.242 0 0 0 .878-2.118l-2.631-2.631 1.75-1.751.878.878a1.244 1.244 0 0 0 1.753 0 1.24 1.24 0 0 0 0-1.753l-.877-.876 1.755-1.758 2.629 2.631a1.24 1.24 0 0 0 1.753-1.753l-3.506-3.506a1.24 1.24 0 0 0-1.753 0l-7.013 7.013a1.234 1.234 0 0 0 0 1.753z"/><path d="M52.426 14.356c-.811-.775-1.63-1.553-2.428-2.351a138.785 138.785 0 0 1-2.361-2.439C43.152 4.862 38.52 0 31 0 13.906 0 0 13.906 0 31s13.906 31 31 31 31-13.906 31-30.997c0-7.533-4.87-12.168-9.574-16.647zm-6.66-3.01c.793.832 1.592 1.669 2.405 2.483.812.813 1.649 1.606 2.475 2.394 2.529 2.408 4.947 4.754 6.613 7.466-.762-.24-1.56-.421-2.379-.566-.039-.007-.072-.015-.111-.018-.312-.054-.628-.108-.94-.16-3.247-.527-6.934-1.126-10.287-4.482s-3.952-7.039-4.479-10.287c-.192-1.17-.401-2.338-.744-3.425 2.702 1.663 5.045 4.076 7.447 6.595zM36.51 8.587c.561 3.454 1.261 7.753 5.206 11.7 3.944 3.947 8.243 4.645 11.7 5.205.051.008.093.016.144.026.432 1.785.69 3.619.69 5.482 0 12.818-10.429 23.25-23.25 23.25S7.75 43.818 7.75 31 18.179 7.75 31 7.75c1.857 0 3.692.258 5.484.692.008.052.016.093.026.145zM31 59.417C15.332 59.417 2.583 46.668 2.583 31 2.583 15.332 15.332 2.583 31 2.583c.615 0 1.188.073 1.762.147 1.919.334 2.705 1.3 3.172 2.969-1.622-.315-3.268-.532-4.934-.532C16.758 5.167 5.167 16.756 5.167 31c0 14.244 11.589 25.833 25.833 25.833S56.833 45.243 56.833 31c0-1.67-.214-3.312-.529-4.932 1.666.468 2.635 1.253 2.965 3.173.075.57.148 1.144.148 1.759 0 15.668-12.749 28.417-28.417 28.417z"/></g></g></svg><svg xmlns:xlink="http://www.w3.org/1999/xlink" height="66" width="66" viewBox="0 0 66 66" y="193"><title>support</title><g fill-rule="evenodd" fill="none"><path fill="#4FD662" d="M15 64V52.469l.811-2.106 11.225-4.535 2.979 3.117 1.85 1.922h2.784l3.328-1.922L40.03 45l5.571 1.85L49 48.945l-.549 1.922-2.016 2.68v2.104l.838 1.642V64H15.811z"/><g fill-rule="nonzero" fill="#696D71"><path d="M1.51 63h-.02C.667 63 0 63.671 0 64.5c0 .828.667 1.5 1.49 1.5h.02C2.333 66 3 65.329 3 64.5S2.333 63 1.51 63zm63 0h-.02c-.823 0-1.49.671-1.49 1.5 0 .828.667 1.5 1.49 1.5h.02c.823 0 1.49-.671 1.49-1.5s-.667-1.5-1.49-1.5zM38.5 28c-.827 0-1.5.673-1.5 1.5s.673 1.5 1.5 1.5 1.5-.673 1.5-1.5-.673-1.5-1.5-1.5zm-10 0c-.827 0-1.5.673-1.5 1.5s.673 1.5 1.5 1.5 1.5-.673 1.5-1.5-.673-1.5-1.5-1.5zM15.579 18H6.421C5.636 18 5 18.671 5 19.5c0 .828.636 1.5 1.421 1.5h9.158c.785 0 1.421-.671 1.421-1.5 0-.828-.636-1.5-1.421-1.5z"/><path d="M15.579 20H6.421C5.636 20 5 20.671 5 21.5S5.636 23 6.421 23h9.158c.785 0 1.421-.671 1.421-1.5s-.636-1.5-1.421-1.5zm-4.815 3H6.236C5.553 23 5 23.671 5 24.5S5.553 26 6.236 26h4.528c.683 0 1.236-.671 1.236-1.5s-.553-1.5-1.236-1.5z"/><path d="M64.519 51.203c-2.626-1.61-5.984-2.517-9.463-2.556h-.03a20.42 20.42 0 0 0-4.446.536 5.774 5.774 0 0 0-1.635-1.049l-8.668-3.611a.825.825 0 0 1-.508-.762v-2.097l3.521-2.019c.025-.014.049-.029.072-.044 1.763-1.165 2.921-3.235 3.097-5.539.003-.034.022-1.155.028-1.23a4.372 4.372 0 0 0 2.965-3.674c.349-1.367.526-2.793.526-4.238 0-4.71-1.674-9.106-4.715-12.378a16.262 16.262 0 0 0-4.916-3.617 7.4 7.4 0 0 0 .143-1.45C40.49 3.353 37.137 0 33.016 0c-4.122 0-7.475 3.353-7.475 7.475 0 .487.048.969.142 1.442a16.266 16.266 0 0 0-4.935 3.625c-.078.084-.154.169-.23.254H3.965A3.97 3.97 0 0 0 0 16.761v9.943a3.97 3.97 0 0 0 3.965 3.965h6.153l3.161 2.221a1.348 1.348 0 0 0 2.121-1.102v-1.119h1.584a4.383 4.383 0 0 0 2.54 2.172v1.118c0 .035.001.069.004.103.177 2.313 1.326 4.384 3.075 5.538l.074.046 3.541 2.024v2.091c0 .334-.2.633-.508.761l-8.669 3.612c-2.268.946-3.853 3.439-3.853 6.065v9.107H5.715a1.347 1.347 0 1 0 0 2.694H60.27a1.347 1.347 0 1 0 0-2.694H48.079v-4.42h1.573a2.747 2.747 0 0 0 2.744-2.744v-1.02a18.379 18.379 0 0 1 5.289 0v1.02a2.747 2.747 0 0 0 2.744 2.744h1.902v1.681a1.347 1.347 0 1 0 2.694 0v-2.33A2.741 2.741 0 0 0 66 56.142v-2.503a2.76 2.76 0 0 0-1.481-2.436zM33.015 2.694a4.786 4.786 0 0 1 4.757 5.258 17.325 17.325 0 0 0-4.756-.656h-.021c-1.638 0-3.228.222-4.737.65a4.786 4.786 0 0 1 4.757-5.252zM16.032 24.921c0 1.033.093 2.056.272 3.055h-2.251c-.702 0-1.279.537-1.341 1.224l-1.394-.979a1.342 1.342 0 0 0-.774-.245H3.965a1.273 1.273 0 0 1-1.271-1.272v-9.942c0-.702.57-1.272 1.271-1.272H18.55c-1.639 2.774-2.518 6.019-2.518 9.431zM32.995 9.99h.021c8.13 0 14.262 6.412 14.268 14.917a4.36 4.36 0 0 0-.821-.368v-1.713c0-.744-.603-1.347-1.347-1.347h-9.454v-2.812a1.347 1.347 0 0 0-2.485-.721l-2.236 3.533h-10.07c-.744 0-1.347.603-1.347 1.347v1.713a4.32 4.32 0 0 0-.797.355C18.74 16.395 24.869 9.99 32.995 9.99zm-8.941 27.341c-1.029-.697-1.712-1.972-1.836-3.426v-2.198c0-.744-.603-1.347-1.347-1.347-.851 0-1.554-.64-1.656-1.464a1.276 1.276 0 0 0-.013-.238 1.672 1.672 0 0 1 1.669-1.638c.744 0 1.347-.603 1.347-1.347v-1.5h9.465c.462 0 .891-.237 1.138-.627l.206-.326c.169.552.682.953 1.288.953h9.454v1.5c0 .744.603 1.347 1.347 1.347a1.668 1.668 0 1 1 .996 3.008 1.347 1.347 0 0 0-2.3.952v.67l-.003.057v.769a2.126 2.126 0 0 1-2.122 2.072h-3.511a3.335 3.335 0 0 0-3.046-1.985c-1.837 0-3.332 1.495-3.332 3.332s1.495 3.332 3.332 3.332a3.335 3.335 0 0 0 3.046-1.985h3.511c.123 0 .246-.006.367-.015a2.92 2.92 0 0 1-.144.104l-7.232 4.147a1.417 1.417 0 0 0-.072.045c-1.01.667-2.215.667-3.225 0l-.074-.046-7.253-4.146zm11.714-1.436a.638.638 0 1 1-1.277 0 .638.638 0 0 1 1.277 0zm1.307 7.314v2.76A4.074 4.074 0 0 1 33 50.032c-2.255 0-4.089-1.823-4.089-4.063v-2.758l1.024.585a5.6 5.6 0 0 0 3.058.921 5.607 5.607 0 0 0 3.06-.922l1.022-.586zm8.31 15.264v4.833H15.882v-9.107c0-1.518.944-3.056 2.196-3.578l8.251-3.438a6.776 6.776 0 1 0 13.329 0l7.552 3.147c-.574.263-1.126.554-1.647.873a2.76 2.76 0 0 0-1.481 2.436v2.503a2.74 2.74 0 0 0 1.303 2.331zm17.921-2.331a.05.05 0 0 1-.05.05h-2.827a.05.05 0 0 1-.05-.05v-2.146c0-.636-.445-1.185-1.067-1.317a20.565 20.565 0 0 0-4.271-.443c-1.453 0-2.89.149-4.272.443a1.346 1.346 0 0 0-1.067 1.317v2.146a.05.05 0 0 1-.05.05h-2.829a.05.05 0 0 1-.048-.049V53.64c0-.029.022-.042.029-.046.043-.02.084-.043.124-.068 2.219-1.373 5.099-2.148 8.113-2.184 3.013.036 5.893.811 8.112 2.184.04.025.081.048.124.068.007.004.029.017.029.046v2.502z"/><path d="M28.511 57h-.022c-.822 0-1.489.671-1.489 1.5 0 .828.666 1.5 1.489 1.5h.022c.822 0 1.489-.671 1.489-1.5s-.666-1.5-1.489-1.5zm-5.731 0h-3.56c-.674 0-1.22.671-1.22 1.5 0 .828.546 1.5 1.22 1.5h3.56c.674 0 1.22-.671 1.22-1.5s-.546-1.5-1.22-1.5z"/></g></g></svg></svg>