<svg width="50" height="16" viewBox="0 0 50 16" xmlns="http://www.w3.org/2000/svg"><title>visa</title><g fill="none" fill-rule="evenodd"><path d="M48.323 14.712c0-.456.36-.825.804-.825.445 0 .804.37.804.825 0 .456-.36.825-.804.825a.815.815 0 0 1-.804-.825zm.804.627c.339 0 .612-.28.612-.627a.618.618 0 0 0-.612-.627c-.337 0-.61.28-.61.627 0 .346.273.627.61.627zm-.108-.265h-.164v-.725h.298c.062 0 .125 0 .18.036.057.042.09.11.09.182 0 .083-.047.16-.122.188l.129.319h-.183l-.107-.287h-.121v.287zm0-.411h.09c.035 0 .071.003.101-.013a.102.102 0 0 0 .042-.085.092.092 0 0 0-.04-.073c-.03-.017-.075-.014-.106-.014h-.087v.185z" fill="#0161AB"/><path d="M44.356 15.589l-.456-2.261h-4.94l-.81 2.261H34.1l5.795-14.093S40.247.362 41.69.362h3.123l3.11 15.227h-3.567zm-4.276-5.386h3.19l-1.149-5.7-2.041 5.7zm-5.676-6.18l.554-3.27S33.247.09 31.464.09c-1.929 0-6.508.86-6.508 5.041 0 3.935 5.375 3.984 5.375 6.049 0 2.066-4.821 1.697-6.413.394l-.577 3.418s1.735.86 4.387.86c2.65 0 6.652-1.4 6.652-5.212 0-3.96-5.423-4.33-5.423-6.05 0-1.722 3.784-1.5 5.447-.566M20.947 15.589H17.06L19.489.362h3.887l-2.43 15.227M.305.62c.075.016 1.916.424 4.063 1.74l3.375 13.229h4.049L17.974.362h-4.182l-3.704 10.473-.44-2.255-1.307-6.847S8.184.362 6.498.362H3.436h3.062c1.686 0 1.843 1.37 1.843 1.37L9.65 8.58z" fill="#0066B2"/><path d="M9.649 8.58L8.34 1.733S8.184.362 6.498.362H.374L.302.619c.001 0 2.945.623 5.768 2.954 2.7 2.23 3.58 5.007 3.58 5.007" fill="#F9A533"/></g></svg>