<svg width="29" height="29" viewBox="0 0 29 29" xmlns="http://www.w3.org/2000/svg"><title>out-of-the-maze</title><g fill="#797979"><path d="M27.681 0H1.32C.589 0 0 .609 0 1.36V18a2.536 2.536 0 0 1 1.23-.328h1.406v-.68H6.59a.67.67 0 0 0 .66-.68.67.67 0 0 0-.66-.679H2.636V8.157H7.25v4.078c0 .375.295.68.659.68h3.295a.669.669 0 0 0 .66-.68.67.67 0 0 0-.66-.68H8.57V7.476a.67.67 0 0 0-.66-.68H2.637V2.72h8.568v6.117c0 .375.295.68.66.68a.67.67 0 0 0 .658-.68V2.719h6.26v4.078h-2.306a.669.669 0 0 0-.657.68c0 .374.294.679.657.679h5.932a.67.67 0 0 0 .659-.68.67.67 0 0 0-.66-.68h-2.306V2.72h6.262v4.923c.068.038.139.076.203.12L29 9.437V1.36C29 .61 28.409 0 27.681 0zm-1.317 14.767v2.844H21.75v-2.68a.664.664 0 0 0-.66-.668c-.363 0-.658.3-.658.669v8.04c0 .37.295.67.659.67a.665.665 0 0 0 .659-.67v-4.02h4.614v7.37H15.818v-5.36h1.977c.365 0 .66-.3.66-.67a.666.666 0 0 0-.66-.67H15.16a.665.665 0 0 0-.659.67v2.68H8.57c-.365 0-.659.3-.659.67 0 .369.295.669.659.669h5.93v2.009H2.637V22.3H1.229A2.55 2.55 0 0 1 0 21.976v5.684C0 28.4.59 29 1.319 29H27.68c.728 0 1.319-.6 1.319-1.34V13l-2.433 1.65c-.067.043-.136.08-.203.117z"/><path d="M28.558 9.829l-2.636-1.67a1.031 1.031 0 0 0-1.015-.047.935.935 0 0 0-.522.828v.418h-7.82c-.728 0-1.32.56-1.32 1.252v3.756h-3.953c-.728 0-1.318.56-1.318 1.252v1.878H1.319c-.73 0-1.319.56-1.319 1.252C0 19.439.59 20 1.319 20h9.973c.728 0 1.318-.56 1.318-1.252v-1.879h3.955c.728 0 1.317-.56 1.317-1.251v-3.756h6.504v.417c0 .347.201.665.521.829a1.038 1.038 0 0 0 1.018-.047l2.634-1.67a.931.931 0 0 0 .441-.782.931.931 0 0 0-.442-.78z"/></g></svg>